<svg width="180" height="40" viewBox="0 0 180 40" fill="none" xmlns="http://www.w3.org/2000/svg">
<path fill-rule="evenodd" clip-rule="evenodd" d="M57.3467 16.3327C57.3467 13.807 58.052 11.9008 59.5097 10.6618C60.9203 9.37513 62.6131 8.75562 64.5409 8.75562C66.4688 8.75562 68.1146 9.37513 69.5252 10.6618C70.9359 11.9485 71.6412 13.807 71.6412 16.3804C71.6412 18.9061 70.9359 20.8123 69.5252 22.0513C68.1146 23.338 66.4218 23.9575 64.5409 23.9575C62.6131 23.9575 60.9673 23.338 59.5097 22.0513C58.052 20.7646 57.3467 18.8584 57.3467 16.3327ZM60.4501 16.3327C60.4501 18.096 60.7792 19.335 61.3905 20.1451C62.0488 20.9552 62.7541 21.4794 63.5065 21.6701C63.5387 21.6782 63.5696 21.6864 63.5996 21.6943C63.7443 21.7327 63.8679 21.7654 64.0237 21.7654C64.0942 21.7654 64.1765 21.7773 64.2588 21.7892C64.3411 21.8011 64.4234 21.813 64.4939 21.813C64.682 21.813 64.8231 21.813 65.0112 21.7654C65.167 21.7654 65.2905 21.7327 65.4353 21.6943C65.4652 21.6864 65.4961 21.6782 65.5284 21.6701C66.2807 21.4794 66.9861 20.9552 67.5973 20.1451C68.2086 19.335 68.5378 18.0483 68.5378 16.3804C68.5378 14.6648 68.2086 13.4258 67.5973 12.6157C66.9861 11.8055 66.2807 11.2813 65.5284 11.0907C65.3403 11.043 65.1522 10.9954 65.0112 10.9954C64.9171 10.9954 64.8348 10.9835 64.7525 10.9716C64.6703 10.9596 64.588 10.9477 64.4939 10.9477C64.3058 10.9477 64.1648 10.9477 64.0237 10.9954C63.8826 10.9954 63.6946 11.043 63.5065 11.0907L63.5065 11.0907C62.7541 11.2813 62.0488 11.8055 61.3905 12.6157C60.7792 13.3305 60.4501 14.6172 60.4501 16.3327ZM73.1929 8.89858H77.0486L82.1269 18.2389L82.8792 20.2881H82.9263L82.8792 17.6194V8.89858H85.8416V23.7669H81.9858L76.9075 14.0453L76.1552 12.3774H76.1082L76.1552 14.9984V23.7669H73.1929V8.89858ZM88.8981 8.89858H91.8604V21.2412H97.691V23.7669H88.8981V8.89858ZM95.8573 8.89858H99.2898L102.299 14.093L102.769 15.1414H102.863L103.334 14.093L106.39 8.89858H109.54L104.227 17.7147V23.7669H101.265V17.6671L95.8573 8.89858ZM111.327 10.6618C109.87 11.9008 109.164 13.807 109.164 16.3327C109.164 18.8584 109.917 20.7646 111.327 22.0513C112.785 23.338 114.431 23.9575 116.358 23.9575C118.239 23.9575 119.932 23.338 121.343 22.0513C122.753 20.8123 123.459 18.9061 123.459 16.3804C123.459 13.807 122.753 11.9485 121.343 10.6618C119.932 9.37513 118.286 8.75562 116.358 8.75562C114.431 8.75562 112.738 9.37513 111.327 10.6618ZM113.208 20.1451C112.597 19.335 112.268 18.096 112.268 16.3327C112.268 14.6172 112.597 13.3305 113.208 12.6157C113.866 11.8055 114.572 11.2813 115.324 11.0907C115.512 11.043 115.7 10.9954 115.841 10.9954C115.982 10.9477 116.123 10.9477 116.311 10.9477C116.405 10.9477 116.488 10.9596 116.57 10.9716C116.652 10.9835 116.735 10.9954 116.829 10.9954C116.97 10.9954 117.158 11.043 117.346 11.0907C118.098 11.2813 118.804 11.8055 119.415 12.6157C120.026 13.4258 120.355 14.6648 120.355 16.3804C120.355 18.0483 120.026 19.335 119.415 20.1451C118.804 20.9552 118.098 21.4794 117.346 21.6701L117.289 21.6847L117.253 21.6943L117.253 21.6943C117.108 21.7327 116.985 21.7654 116.829 21.7654C116.641 21.813 116.5 21.813 116.311 21.813C116.241 21.813 116.159 21.8011 116.076 21.7892C115.994 21.7773 115.912 21.7654 115.841 21.7654C115.685 21.7654 115.562 21.7327 115.417 21.6943L115.381 21.6848L115.324 21.6701C114.525 21.4794 113.866 20.9552 113.208 20.1451ZM133.709 8.89858H125.528V23.7669H128.49V17.5241H133.474V14.9984H128.49V11.3766H133.709V8.89858ZM135.919 8.89858H144.101V11.3766H138.882V14.9984H143.866V17.5241H138.882V23.7669H135.919V8.89858ZM145.841 8.89858V23.7669H148.803V8.89858H145.841ZM161.856 9.23204V11.8054C161.339 11.6148 160.822 11.4718 160.257 11.3765C159.693 11.2812 159.035 11.2335 158.376 11.2335C156.825 11.2335 155.649 11.7101 154.803 12.7108C153.956 13.6639 153.533 14.903 153.533 16.3803C153.533 17.8099 153.909 19.0013 154.709 19.9544C155.508 20.9075 156.637 21.4317 158.094 21.4317C158.541 21.4317 158.988 21.3961 159.496 21.3556L159.74 21.3364C160.351 21.241 160.963 21.0981 161.621 20.8122L161.809 23.3379C161.715 23.3855 161.574 23.4332 161.433 23.4808C161.245 23.5285 161.057 23.5761 160.822 23.6238C160.579 23.6853 160.296 23.727 159.975 23.7745C159.799 23.8005 159.611 23.8283 159.411 23.8621C158.847 23.9097 158.282 23.9574 157.671 23.9574H157.436H157.201C155.508 23.8621 153.956 23.1949 152.546 22.0512C151.135 20.8598 150.43 19.0013 150.43 16.5232C150.43 14.0928 151.135 12.1866 152.499 10.8523C153.862 9.51797 155.743 8.85081 158.047 8.85081C158.659 8.85081 159.223 8.85081 159.693 8.89846C160.141 8.93971 160.553 9.01665 160.991 9.09839L160.992 9.09856L160.997 9.09936L161.198 9.13673C161.245 9.16056 161.303 9.17248 161.362 9.18439C161.421 9.1963 161.48 9.20822 161.527 9.23204C161.587 9.20167 161.647 9.21002 161.719 9.22007C161.76 9.22578 161.805 9.23204 161.856 9.23204ZM173 8.89858H164.207V23.7669H173V21.4318H167.216V17.2382H172.436V14.9507H167.216V11.2337H173V8.89858Z" fill="#333333"/>
<path d="M63.1796 35.2577H61.9655V31.925H58.5558V35.2577H57.3467V27.8641H58.5558V30.8883H61.9655V27.8641H63.1796V35.2577Z" fill="#333333"/>
<path d="M74.2841 35.2577H70.1004V27.8641H74.2841V28.8857H71.3094V30.8984H74.0969V31.9099H71.3094V34.2311H74.2841V35.2577Z" fill="#333333"/>
<path d="M80.8608 35.2577V27.8641H82.0699V34.221H85.2014V35.2577H80.8608Z" fill="#333333"/>
<path d="M96.3463 30.0994C96.3463 30.8715 96.0934 31.4632 95.5875 31.8745C95.0816 32.2858 94.3615 32.4915 93.4273 32.4915H92.6584V35.2577H91.4493V27.8641H93.5791C94.5032 27.8641 95.1946 28.0529 95.6532 28.4305C96.1153 28.8081 96.3463 29.3644 96.3463 30.0994ZM92.6584 31.475H93.3008C93.9214 31.475 94.3767 31.3671 94.6667 31.1513C94.9568 30.9355 95.1018 30.5984 95.1018 30.1399C95.1018 29.7151 94.972 29.3981 94.7123 29.1891C94.4526 28.9801 94.0479 28.8756 93.4981 28.8756H92.6584V31.475Z" fill="#333333"/>
<path d="M113.608 28.7947C112.913 28.7947 112.367 29.0408 111.969 29.533C111.571 30.0252 111.372 30.7046 111.372 31.571C111.372 32.478 111.562 33.1641 111.943 33.6293C112.328 34.0946 112.883 34.3272 113.608 34.3272C113.921 34.3272 114.225 34.2969 114.518 34.2362C114.812 34.1721 115.117 34.0912 115.434 33.9934V35.0302C114.854 35.2493 114.196 35.3589 113.461 35.3589C112.378 35.3589 111.547 35.0318 110.967 34.3778C110.387 33.7203 110.097 32.7814 110.097 31.5609C110.097 30.7922 110.237 30.1196 110.517 29.5431C110.8 28.9666 111.208 28.5249 111.741 28.2181C112.274 27.9113 112.899 27.7579 113.618 27.7579C114.373 27.7579 115.071 27.9164 115.712 28.2333L115.277 29.2397C115.028 29.1217 114.763 29.0189 114.483 28.9312C114.206 28.8402 113.915 28.7947 113.608 28.7947Z" fill="#333333"/>
<path d="M126.184 35.2577H122.001V27.8641H126.184V28.8857H123.21V30.8984H125.997V31.9099H123.21V34.2311H126.184V35.2577Z" fill="#333333"/>
<path d="M138.923 35.2577H137.441L133.803 29.3661H133.763L133.788 29.6948C133.835 30.3219 133.859 30.8951 133.859 31.4143V35.2577H132.761V27.8641H134.228L137.855 33.7254H137.886C137.879 33.6479 137.865 33.3663 137.845 32.8809C137.825 32.392 137.815 32.011 137.815 31.7379V27.8641H138.923V35.2577Z" fill="#333333"/>
<path d="M148.403 35.2577H147.194V28.9009H145.019V27.8641H150.579V28.9009H148.403V35.2577Z" fill="#333333"/>
<path d="M160.874 35.2577H156.69V27.8641H160.874V28.8857H157.899V30.8984H160.687V31.9099H157.899V34.2311H160.874V35.2577Z" fill="#333333"/>
<path d="M168.66 31.303H169.499C170.063 31.303 170.471 31.1985 170.724 30.9895C170.977 30.7804 171.103 30.4703 171.103 30.059C171.103 29.6409 170.966 29.3408 170.693 29.1588C170.42 28.9767 170.009 28.8857 169.459 28.8857H168.66V31.303ZM168.66 32.3043V35.2577H167.45V27.8641H169.54C170.494 27.8641 171.201 28.0428 171.659 28.4002C172.118 28.7576 172.347 29.297 172.347 30.0185C172.347 30.9389 171.869 31.5946 170.911 31.9857L173 35.2577H171.624L169.853 32.3043H168.66Z" fill="#333333"/>
<path fill-rule="evenodd" clip-rule="evenodd" d="M26.5554 37.5589L10.0542 30.1473C8.64859 29.5003 8.64859 28.5003 10.0542 27.9121L15.7991 25.324L26.4943 30.1473C27.8999 30.7944 30.1612 30.7944 31.5057 30.1473L42.2009 25.324L47.9458 27.9121C49.3514 28.5592 49.3514 29.5591 47.9458 30.1473L31.4446 37.5589C30.1612 38.1471 27.8999 38.1471 26.5554 37.5589Z" fill="#FF6F3D"/>
<path fill-rule="evenodd" clip-rule="evenodd" d="M26.5019 28.3874L10.051 20.9672C8.64966 20.3194 8.64966 19.3183 10.051 18.7294L15.6565 16.1971L26.5019 21.085C27.9033 21.7328 30.1577 21.7328 31.4981 21.085L42.3435 16.1971L47.949 18.7294C49.3503 19.3772 49.3503 20.3783 47.949 20.9672L31.4981 28.3874C30.0967 29.0351 27.8423 29.0351 26.5019 28.3874Z" fill="#95C038"/>
<path fill-rule="evenodd" clip-rule="evenodd" d="M26.5019 19.3112L10.051 11.9978C8.64966 11.3593 8.64966 10.3726 10.051 9.7922L26.5019 2.47885C27.9033 1.84038 30.1577 1.84038 31.4981 2.47885L47.949 9.7922C49.3503 10.4307 49.3503 11.4174 47.949 11.9978L31.4981 19.3112C30.0967 19.8916 27.8423 19.8916 26.5019 19.3112Z" fill="#5DC0E8"/>
</svg>
