<svg width="31" height="28" viewBox="0 0 31 28" fill="none" xmlns="http://www.w3.org/2000/svg">
<path fill-rule="evenodd" clip-rule="evenodd" d="M13.4059 27.6457L0.805056 21.6925C-0.268352 21.1728 -0.268352 20.3696 0.805056 19.8971L5.19203 17.8182L13.3593 21.6925C14.4327 22.2122 16.1595 22.2122 17.1862 21.6925L25.3534 17.8182L29.7404 19.8971C30.8138 20.4168 30.8138 21.2201 29.7404 21.6925L17.1395 27.6457C16.1595 28.1182 14.4327 28.1182 13.4059 27.6457Z" fill="#FF6F3D"/>
<path fill-rule="evenodd" clip-rule="evenodd" d="M13.3651 20.0222L0.802603 14.8071C-0.267534 14.3519 -0.267534 13.6482 0.802603 13.2343L5.08315 11.4546L13.3651 14.8899C14.4352 15.3452 16.1568 15.3452 17.1804 14.8899L25.4623 11.4546L29.7429 13.2343C30.813 13.6896 30.813 14.3932 29.7429 14.8071L17.1804 20.0222C16.1102 20.4775 14.3887 20.4775 13.3651 20.0222Z" fill="#95C038"/>
<path fill-rule="evenodd" clip-rule="evenodd" d="M13.3651 13.6566L0.802603 7.88716C-0.267534 7.38348 -0.267534 6.60507 0.802603 6.14718L13.3651 0.37776C14.4352 -0.12592 16.1568 -0.12592 17.1804 0.37776L29.7429 6.14718C30.813 6.65086 30.813 7.42927 29.7429 7.88716L17.1804 13.6566C16.1102 14.1145 14.3887 14.1145 13.3651 13.6566Z" fill="#5DC0E8"/>
</svg>
