<svg width="80" height="80" viewBox="0 0 80 80" fill="none" xmlns="http://www.w3.org/2000/svg">
<path d="M51.5 37.9498V29.0502L47.7528 28.1914L46.4257 25.0688L48.4554 21.79L42.132 15.4665L38.9312 17.4963L35.8085 16.2472L34.9498 12.5H26.0502L25.1915 16.2472L22.0688 17.5743L18.79 15.5446L12.4665 21.868L14.4963 25.0688L13.2472 28.1914L9.5 29.0502V37.9498L13.2472 38.8086L14.5743 41.9312L12.5446 45.21L18.868 51.5335L22.0688 49.5037L25.1915 50.7528L26.0502 54.5H34.9498L35.8085 50.7528L38.9312 49.4257L42.21 51.4554L48.5335 45.132L46.5037 41.9312L47.7528 38.8086L51.5 37.9498ZM30.5 41.5409C26.0502 41.5409 22.4591 37.9498 22.4591 33.5C22.4591 29.0502 26.0502 25.4591 30.5 25.4591C34.9498 25.4591 38.5409 29.0502 38.5409 33.5C38.5409 37.9498 34.9498 41.5409 30.5 41.5409Z" fill="#BDECFF"/>
<path fill-rule="evenodd" clip-rule="evenodd" d="M25.6518 12H35.3482L36.2374 15.8802L38.8794 16.9371L42.2024 14.8298L49.089 21.7164L46.9872 25.1117L48.1132 27.7611L52 28.6518V38.3482L48.1198 39.2374L47.0629 41.8794L49.1702 45.2024L42.2836 52.089L38.8883 49.9872L36.2389 51.1132L35.3482 55H25.6518L24.7626 51.1198L22.1206 50.0629L18.7976 52.1702L11.911 45.2836L14.0128 41.8883L12.8868 39.2389L9 38.3482V28.6518L12.8802 27.7626L13.9371 25.1205L11.8298 21.7976L18.7164 14.911L22.1117 17.0128L24.7611 15.8868L25.6518 12ZM26.4486 13L25.6218 16.6076L22.0259 18.1359L18.8635 16.1782L13.1032 21.9384L15.0555 25.017L13.6142 28.6203L10 29.4486V37.5514L13.6076 38.3782L15.1359 41.9741L13.1782 45.1365L18.9384 50.8968L22.017 48.9445L25.6203 50.3858L26.4486 54H34.5514L35.3782 50.3924L38.9741 48.8641L42.1365 50.8218L47.8968 45.0616L45.9445 41.983L47.3858 38.3797L51 37.5514V29.4486L47.3924 28.6218L45.8641 25.0259L47.8218 21.8635L42.0616 16.1032L38.983 18.0555L35.3797 16.6142L34.5514 13H26.4486ZM30.5 25.9591C26.3263 25.9591 22.9591 29.3263 22.9591 33.5C22.9591 37.6737 26.3263 41.0409 30.5 41.0409C34.6737 41.0409 38.0409 37.6737 38.0409 33.5C38.0409 29.3263 34.6737 25.9591 30.5 25.9591ZM21.9591 33.5C21.9591 28.774 25.774 24.9591 30.5 24.9591C35.226 24.9591 39.0409 28.774 39.0409 33.5C39.0409 38.226 35.226 42.0409 30.5 42.0409C25.774 42.0409 21.9591 38.226 21.9591 33.5Z" fill="#333333"/>
<path d="M70.0705 32.899L63.0582 39.9114L57.1892 38.3107L55.5886 32.4417L62.6009 25.4294C58.8661 24.3623 54.6739 25.2769 51.7013 28.2496C47.4329 32.5179 47.4329 39.5303 51.7013 43.7986C55.9697 48.067 62.982 48.067 67.2504 43.7986C70.223 40.826 71.1376 36.6339 70.0705 32.899Z" fill="#EFEFEF"/>
<path fill-rule="evenodd" clip-rule="evenodd" d="M51.3477 27.896C54.4547 24.7891 58.837 23.834 62.7382 24.9486C62.9086 24.9973 63.0405 25.1325 63.0849 25.304C63.1293 25.4755 63.0797 25.6577 62.9544 25.7829L56.1473 32.5901L57.5964 37.9035L62.9098 39.3526L69.717 32.5455C69.8423 32.4202 70.0245 32.3706 70.196 32.415C70.3675 32.4595 70.5026 32.5913 70.5513 32.7617C71.6659 36.6629 70.7109 41.0452 67.6039 44.1522C63.1403 48.6158 55.8114 48.6158 51.3477 44.1522C46.8841 39.6886 46.8841 32.3596 51.3477 27.896ZM61.6177 25.7054C58.2752 25.0396 54.6708 25.9872 52.0548 28.6031C47.9817 32.6762 47.9817 39.372 52.0548 43.4451C56.1279 47.5182 62.8237 47.5182 66.8968 43.4451C69.5128 40.8291 70.4603 37.2247 69.7945 33.8822L63.4118 40.2649C63.2849 40.3918 63.0998 40.441 62.9266 40.3937L57.0576 38.7931C56.8868 38.7465 56.7534 38.6131 56.7068 38.4423L55.1062 32.5733C55.059 32.4002 55.1081 32.215 55.235 32.0882L61.6177 25.7054Z" fill="#333333"/>
<path d="M29.7513 65.7487C27.4162 63.4137 27.4162 59.5489 29.7513 57.2139L46.982 39.9831C47.6262 39.339 48.5924 39.339 49.2365 39.9831L55.5169 46.2635C56.161 46.9076 56.161 47.8738 55.5169 48.518L38.2861 65.7487C35.8706 68.0837 32.0863 68.0837 29.7513 65.7487Z" fill="url(#paint0_linear)"/>
<path fill-rule="evenodd" clip-rule="evenodd" d="M48.883 40.3367C48.4341 39.8878 47.7845 39.8878 47.3356 40.3367L30.1048 57.5674C27.9651 59.7072 27.9651 63.2554 30.1048 65.3952C32.2404 67.5307 35.7104 67.5401 37.9356 65.3921L55.1633 48.1644C55.6122 47.7155 55.6122 47.0659 55.1633 46.617L48.883 40.3367ZM46.6285 39.6296C47.4679 38.7901 48.7507 38.7901 49.5901 39.6296L55.8704 45.9099C56.7098 46.7493 56.7098 48.0321 55.8704 48.8715L38.6337 66.1083C36.0277 68.6274 31.9312 68.6358 29.3977 66.1023C26.8674 63.572 26.8674 59.3906 29.3977 56.8603L46.6285 39.6296Z" fill="#333333"/>
<path d="M56.7731 47.2265L48.3262 38.7043L44.8061 42.2557L53.253 50.7779L56.7731 47.2265Z" fill="white"/>
<path fill-rule="evenodd" clip-rule="evenodd" d="M47.9742 38.3493C48.1686 38.1531 48.4838 38.1531 48.6782 38.3493L57.1251 46.8714C57.3195 47.0675 57.3195 47.3855 57.1251 47.5816L53.605 51.133C53.4106 51.3292 53.0955 51.3292 52.9011 51.133L44.4541 42.6109C44.2598 42.4148 44.2598 42.0968 44.4541 41.9007L47.9742 38.3493ZM48.3262 39.4146L45.5101 42.2558L53.253 50.0677L56.0691 47.2265L48.3262 39.4146Z" fill="#333333"/>
<path d="M34 63.5C35.1046 63.5 36 62.6046 36 61.5C36 60.3954 35.1046 59.5 34 59.5C32.8954 59.5 32 60.3954 32 61.5C32 62.6046 32.8954 63.5 34 63.5Z" fill="white"/>
<path fill-rule="evenodd" clip-rule="evenodd" d="M34 60C33.1716 60 32.5 60.6716 32.5 61.5C32.5 62.3284 33.1716 63 34 63C34.8284 63 35.5 62.3284 35.5 61.5C35.5 60.6716 34.8284 60 34 60ZM31.5 61.5C31.5 60.1193 32.6193 59 34 59C35.3807 59 36.5 60.1193 36.5 61.5C36.5 62.8807 35.3807 64 34 64C32.6193 64 31.5 62.8807 31.5 61.5Z" fill="#333333"/>
<defs>
<linearGradient id="paint0_linear" x1="27.972" y1="53.5084" x2="56.0093" y2="53.5084" gradientUnits="userSpaceOnUse">
<stop stop-color="#FF8E3D"/>
<stop offset="1" stop-color="#FF6F3D"/>
</linearGradient>
</defs>
</svg>
