<svg width="775" height="412" viewBox="0 0 775 412" fill="none" xmlns="http://www.w3.org/2000/svg">
<g style="mix-blend-mode:luminosity">
<path d="M616.391 329.785L513.53 335.507C265.671 335.507 367.415 345.896 280.148 345.896C191.186 345.896 156.42 350.696 90.6056 350.219C28.3982 345.896 -25.1999 231.343 43.086 172.083C120.741 90.4786 131.888 5.02713e-06 265.996 0C368.724 -3.85085e-06 394.73 65.7201 589.128 46.6959C723.741 33.5224 790.797 261.151 754.151 335.507C724.762 395.138 616.391 329.785 616.391 329.785Z" fill="#E9F7FF"/>
<path fill-rule="evenodd" clip-rule="evenodd" d="M190.787 233.92L269.184 339.251C271.935 342.948 280.942 347.935 280.942 347.935C280.942 347.935 238.016 346.638 178.832 355.285C119.649 363.933 90 347.618 90 347.618C90 347.618 93.8778 342.85 96.7566 339.155L178.832 233.824C181.596 230.277 188.115 230.33 190.787 233.92Z" fill="#E1C6C6"/>
<path fill-rule="evenodd" clip-rule="evenodd" d="M185.5 233.825C211 265.226 217.5 315.769 249 347.619C249 347.619 238.016 346.639 178.832 355.286C119.649 363.934 90 347.619 90 347.619C90 347.619 93.8778 342.851 96.7566 339.156L178.832 233.825C181.596 230.278 182.828 230.235 185.5 233.825Z" fill="#E6CECE"/>
<path d="M198.5 262.224C203 256.719 210.892 261.455 210 259.221C209 256.719 200.66 245.301 198.5 242.707L189.5 231.697C185.5 227.193 180 228.695 175 235.701L168.5 244.208C164.5 249.226 156.5 261.223 156.5 261.223C167.5 251.214 172.101 260.833 177 256.218C185.5 248.211 192.003 270.171 198.5 262.224Z" fill="white"/>
<path fill-rule="evenodd" clip-rule="evenodd" d="M501.028 256.028H440.637C440.08 254.77 439.771 253.377 439.771 251.912C439.771 247.044 443.185 242.974 447.746 241.968C449.408 234.631 455.963 229.152 463.797 229.152C469.541 229.152 474.598 232.097 477.542 236.561C479.092 235.685 480.883 235.185 482.79 235.185C488.692 235.185 493.476 239.973 493.476 245.88C493.476 246.517 493.421 247.14 493.314 247.745C493.518 247.728 493.725 247.719 493.933 247.719C497.899 247.719 501.115 250.937 501.115 254.907C501.115 255.288 501.085 255.663 501.028 256.028Z" fill="white"/>
<path fill-rule="evenodd" clip-rule="evenodd" d="M575.056 210.551L668.861 336.187C672.153 340.596 675.641 348.491 675.641 348.491C675.641 348.491 654.905 376.163 567.642 360.597C480.379 345.032 446.251 360.597 446.251 360.597C446.251 360.597 459.099 340.479 462.544 336.072L560.751 210.436C564.058 206.206 571.859 206.268 575.056 210.551Z" fill="#B59C9C"/>
<path fill-rule="evenodd" clip-rule="evenodd" d="M575.056 210.551C589.5 261.728 630.124 305.293 652 354.808C652 354.808 654.905 376.163 567.642 360.597C480.379 345.032 446.251 360.597 446.251 360.597C446.251 360.597 459.099 340.479 462.544 336.072L560.751 210.436C564.058 206.206 571.859 206.268 575.056 210.551Z" fill="#BCA7A7"/>
<path d="M555 244.212C551.361 248.125 550 234.204 541.5 233.203C541.5 233.203 542.236 230.628 544.198 228.244L560.845 207.3C563.929 203.553 570.826 203.662 573.724 207.504L591.223 230.701C592.136 231.911 597.854 238.535 597.018 239.781C590 239.781 584.674 228.191 578 235.705C570 244.713 568.5 229.7 555 244.212Z" fill="white"/>
<path fill-rule="evenodd" clip-rule="evenodd" d="M393.843 178.788L542.932 371.14C548.165 377.891 560.298 393.024 560.298 393.024C560.298 393.024 490.315 427.622 377.564 400.806C264.813 373.991 202.174 386.419 202.174 386.419C202.174 386.419 209.548 377.711 215.023 370.964L371.108 178.612C376.363 172.136 388.762 172.232 393.843 178.788Z" fill="#FAE0D2"/>
<path fill-rule="evenodd" clip-rule="evenodd" d="M389 176.016C448.837 253.217 478 357.307 530.922 402.966C530.922 402.966 467.851 423.288 371.108 402.966C274.365 382.645 197.854 389.563 197.854 389.563C255.515 321.474 314.887 245.299 371.108 176.016C376.363 169.54 383.918 169.46 389 176.016Z" fill="#FFE9DD"/>
<path d="M344.732 262.015C334.364 258.988 346.807 231.535 317 243.209C309.211 240.153 348.512 200.763 365.9 179.408C374.108 169.97 382.748 165.393 393.979 177.703C410.581 198.677 446.704 235.149 442.5 241.708C420.9 232.681 449.153 270.27 414.283 248.929C401.755 241.261 399.163 230.02 393.979 230.02C388.796 230.02 383.18 246.45 370.652 246.45C358.124 246.45 355.1 265.042 344.732 262.015Z" fill="white"/>
<path fill-rule="evenodd" clip-rule="evenodd" d="M321.335 302.41H249.035C248.37 300.904 248 299.237 248 297.484C248 291.656 252.086 286.784 257.547 285.579C259.535 276.794 267.384 270.234 276.763 270.234C283.64 270.234 289.693 273.76 293.218 279.103C295.074 278.054 297.218 277.455 299.501 277.455C306.567 277.455 312.295 283.187 312.295 290.259C312.295 291.022 312.228 291.769 312.1 292.495C312.344 292.475 312.592 292.464 312.841 292.464C317.59 292.464 321.439 296.317 321.439 301.069C321.439 301.525 321.404 301.973 321.335 302.41Z" fill="white"/>
<path fill-rule="evenodd" clip-rule="evenodd" d="M743.684 120.405C742.547 102.43 727.62 88.2031 709.374 88.2031C697.21 88.2031 686.522 94.5257 680.411 104.066C678.897 103.605 677.291 103.357 675.626 103.357C666.568 103.357 659.225 110.706 659.225 119.772C659.225 119.984 659.229 120.195 659.237 120.405H743.684Z" fill="#D0E7F9"/>
<path fill-rule="evenodd" clip-rule="evenodd" d="M73.4293 185.496H11.2314C11.3682 172.334 22.071 161.707 35.2538 161.707C43.733 161.707 51.1862 166.104 55.4617 172.743C56.9562 172.153 58.5848 171.828 60.2891 171.828C67.5515 171.828 73.4389 177.721 73.4389 184.989C73.4389 185.159 73.4357 185.328 73.4293 185.496Z" fill="#D0E7F9"/>
<path fill-rule="evenodd" clip-rule="evenodd" d="M3.02572 370.22H178.953C179.246 368.82 179.401 367.368 179.401 365.881C179.401 354.271 169.997 344.859 158.398 344.859C155.42 344.859 152.587 345.48 150.02 346.598C146.477 336.9 138.074 329.544 127.763 327.484C122.703 306.302 103.663 290.555 80.9494 290.555C58.1741 290.555 39.0935 306.387 34.095 327.655C32.6781 327.448 31.2287 327.34 29.7543 327.34C13.3215 327.34 0 340.673 0 357.12C0 361.821 1.08801 366.267 3.02572 370.22Z" fill="white"/>
<path fill-rule="evenodd" clip-rule="evenodd" d="M774.774 386.526H617.415C615.966 383.247 615.162 379.619 615.162 375.804C615.162 363.119 624.055 352.514 635.941 349.892C640.269 330.772 657.351 316.496 677.764 316.496C692.732 316.496 705.908 324.171 713.58 335.803C717.618 333.52 722.283 332.217 727.252 332.217C742.63 332.217 755.097 344.694 755.097 360.085C755.097 361.744 754.952 363.368 754.674 364.947C755.206 364.901 755.744 364.878 756.287 364.878C766.622 364.878 775 373.263 775 383.607C775 384.6 774.923 385.575 774.774 386.526Z" fill="white"/>
<path d="M451.226 116.371C459.434 116.371 462.458 126.748 462.458 126.748C462.458 126.748 465.482 116.371 472.826 116.371" stroke="#BADAF4" stroke-width="2" stroke-linecap="round" stroke-linejoin="round"/>
<path d="M474.554 95.6172C481.121 95.6172 483.54 103.4 483.54 103.4C483.54 103.4 485.959 95.6172 491.834 95.6172" stroke="#BADAF4" stroke-width="2" stroke-linecap="round" stroke-linejoin="round"/>
<path d="M433.083 101.672C437.351 101.672 438.923 106.86 438.923 106.86C438.923 106.86 440.496 101.672 444.314 101.672" stroke="#BADAF4" stroke-width="2" stroke-linecap="round" stroke-linejoin="round"/>
<path d="M677.369 211.863C681.637 211.863 683.21 217.052 683.21 217.052C683.21 217.052 684.782 211.863 688.601 211.863" stroke="#BADAF4" stroke-width="2" stroke-linecap="round" stroke-linejoin="round"/>
<path d="M211.758 116.064L253.473 189.9M253.473 189.9L229.902 134.224M253.473 189.9L234.654 91.8516M253.473 189.9L272.237 91.8516M253.473 189.9L277.421 134.224M253.473 189.9L295.565 116.064M253.473 189.9V110.443" stroke="#CBE4F6"/>
<path d="M247.182 180.492H259.278V189.599C259.278 191.255 257.934 192.599 256.278 192.599H250.182C248.525 192.599 247.182 191.255 247.182 189.599V180.492Z" fill="#BCA7A7"/>
<rect x="246.318" y="179.625" width="13.8239" height="1.72948" fill="#CBE4F6"/>
<rect x="248.91" y="183.086" width="1.72798" height="6.91791" fill="#E1C6C6"/>
<rect x="252.366" y="183.086" width="1.72798" height="6.91791" fill="#E1C6C6"/>
<rect x="255.822" y="183.086" width="1.72798" height="6.91791" fill="#E1C6C6"/>
<ellipse cx="253" cy="100.087" rx="46" ry="46.0398" fill="#D0E7F9"/>
<ellipse cx="253" cy="100.087" rx="30" ry="46.0398" fill="#E9F7FF"/>
<ellipse cx="253" cy="100.087" rx="12" ry="46.0398" fill="#D0E7F9"/>
</g>
</svg>
