<svg width="16" height="16" viewBox="0 0 16 16" fill="none" xmlns="http://www.w3.org/2000/svg">
<g id="16 / Info">
<circle id="Ellipse 170" cx="8" cy="8" r="6.5" stroke="#444444"/>
<path id="i" d="M8.18003 10.9C8.17336 10.9333 8.17003 10.9766 8.17003 11.03C8.17003 11.19 8.23003 11.27 8.35003 11.27C8.40336 11.27 8.46003 11.2533 8.52003 11.22C8.5867 11.1866 8.68003 11.13 8.80003 11.05L8.93003 11.39C8.8167 11.5433 8.64003 11.7 8.40003 11.86C8.1667 12.02 7.87003 12.1 7.51003 12.1C7.20336 12.1 6.96336 12.0433 6.79003 11.93C6.62336 11.81 6.54003 11.6566 6.54003 11.47C6.54003 11.43 6.54336 11.3966 6.55003 11.37L6.81003 9.39995L7.09003 7.30995L6.53003 7.00995L6.61003 6.57995L8.54003 6.31995L8.80003 6.43995L8.18003 10.9ZM8.17003 5.45995C7.97003 5.45995 7.79003 5.37995 7.63003 5.21995C7.4767 5.05995 7.40003 4.87995 7.40003 4.67995C7.40003 4.40662 7.49336 4.17662 7.68003 3.98995C7.8667 3.79662 8.11336 3.69995 8.42003 3.69995C8.65336 3.69995 8.84003 3.77662 8.98003 3.92995C9.12003 4.08328 9.19003 4.25995 9.19003 4.45995C9.19003 4.75328 9.10336 4.99328 8.93003 5.17995C8.7567 5.36662 8.50336 5.45995 8.17003 5.45995Z" fill="#444444"/>
</g>
</svg>
