<svg width="80" height="80" viewBox="0 0 80 80" fill="none" xmlns="http://www.w3.org/2000/svg">
<path d="M65.1719 38.6C65.1719 38.5478 65.1637 38.496 65.1477 38.4464C64.0176 34.9468 60.8272 32.5 57.0187 32.5H20.8844C17.0759 32.5 13.8855 34.9468 12.7554 38.4464L12.7543 38.4498C12.6578 38.7487 12.5564 39.0627 12.4554 39.4794L7.51547 58.8766C7.47737 59.0262 7.5105 59.185 7.60522 59.3068C7.69995 59.4287 7.84565 59.5 8 59.5H70C70.1549 59.5 70.301 59.4282 70.3957 59.3057C70.4904 59.1831 70.5229 59.0236 70.4838 58.8737L65.4463 39.5737C65.4456 39.5709 65.4448 39.5681 65.444 39.5653C65.4422 39.5589 65.4403 39.5526 65.4383 39.5464C65.3938 39.4084 65.3483 39.2444 65.2991 39.0666L65.2973 39.0601C65.2575 38.9164 65.2152 38.7635 65.1719 38.6231V38.6Z" fill="#EFEFEF" stroke="#333333" stroke-miterlimit="10" stroke-linecap="round" stroke-linejoin="round"/>
<path d="M71 59C71 63.4 67.4 67 63 67H15C10.6 67 7 63.4 7 59C7 54.6 10.6 51 15 51H63C67.4 51 71 54.6 71 59Z" fill="#EFEFEF"/>
<path fill-rule="evenodd" clip-rule="evenodd" d="M15.3692 51.0588C11.3088 51.0588 7.98462 54.6336 7.98462 59C7.98462 63.3664 11.3088 66.9412 15.3692 66.9412H62.6308C66.6912 66.9412 70.0154 63.3664 70.0154 59C70.0154 54.6336 66.6912 51.0588 62.6308 51.0588H15.3692ZM7 59C7 54.0488 10.765 50 15.3692 50H62.6308C67.235 50 71 54.0488 71 59C71 63.9512 67.235 68 62.6308 68H15.3692C10.765 68 7 63.9512 7 59Z" fill="#333333"/>
<path d="M46 28V13H32V28H25L39 43L53 28H46Z" fill="url(#paint0_linear)"/>
<path fill-rule="evenodd" clip-rule="evenodd" d="M46 13V28H53L39 43L25 28H32V13H46ZM31 27V13C31 12.4477 31.4477 12 32 12H46C46.5523 12 47 12.4477 47 13V27H53C53.3982 27 53.7585 27.2362 53.9172 27.6015C54.0759 27.9667 54.0028 28.3912 53.7311 28.6823L39.7311 43.6823C39.542 43.885 39.2772 44 39 44C38.7228 44 38.4581 43.885 38.269 43.6823L24.269 28.6823C23.9973 28.3912 23.9242 27.9667 24.0829 27.6015C24.2416 27.2362 24.6018 27 25 27H31Z" fill="#333333"/>
<path d="M13 59C13 56.7909 14.7909 55 17 55H49C51.2091 55 53 56.7909 53 59C53 61.2091 51.2091 63 49 63H17C14.7909 63 13 61.2091 13 59Z" fill="white"/>
<path fill-rule="evenodd" clip-rule="evenodd" d="M49 56H17C15.3431 56 14 57.3431 14 59C14 60.6569 15.3431 62 17 62H49C50.6569 62 52 60.6569 52 59C52 57.3431 50.6569 56 49 56ZM17 55C14.7909 55 13 56.7909 13 59C13 61.2091 14.7909 63 17 63H49C51.2091 63 53 61.2091 53 59C53 56.7909 51.2091 55 49 55H17Z" fill="#333333"/>
<path d="M61 63C63.2091 63 65 61.2091 65 59C65 56.7909 63.2091 55 61 55C58.7909 55 57 56.7909 57 59C57 61.2091 58.7909 63 61 63Z" fill="#BDECFF"/>
<path fill-rule="evenodd" clip-rule="evenodd" d="M61 62C62.6569 62 64 60.6569 64 59C64 57.3431 62.6569 56 61 56C59.3431 56 58 57.3431 58 59C58 60.6569 59.3431 62 61 62ZM65 59C65 61.2091 63.2091 63 61 63C58.7909 63 57 61.2091 57 59C57 56.7909 58.7909 55 61 55C63.2091 55 65 56.7909 65 59Z" fill="#333333"/>
<defs>
<linearGradient id="paint0_linear" x1="25" y1="28" x2="53" y2="28" gradientUnits="userSpaceOnUse">
<stop stop-color="#FF8E3D"/>
<stop offset="1" stop-color="#FF6F3D"/>
</linearGradient>
</defs>
</svg>
