<svg width="80" height="80" viewBox="0 0 80 80" fill="none" xmlns="http://www.w3.org/2000/svg">
<path d="M32.546 31.7678C33.5223 30.7915 35.1052 30.7915 36.0815 31.7678C37.0578 32.7441 37.0578 34.327 36.0815 35.3033L28.3033 43.0815C27.327 44.0578 25.7441 44.0578 24.7678 43.0815C23.7915 42.1052 23.7915 40.5223 24.7678 39.5459L32.546 31.7678Z" fill="#FF713D"/>
<path fill-rule="evenodd" clip-rule="evenodd" d="M36.7886 36.0104L29.0104 43.7886C27.6436 45.1554 25.4275 45.1554 24.0607 43.7886C22.6938 42.4217 22.6938 40.2057 24.0607 38.8388L31.8388 31.0607C33.2057 29.6938 35.4218 29.6938 36.7886 31.0607C38.1554 32.4275 38.1554 34.6436 36.7886 36.0104ZM36.0815 31.7678C35.1052 30.7915 33.5223 30.7915 32.546 31.7678L24.7678 39.5459C23.7915 40.5223 23.7915 42.1052 24.7678 43.0815C25.7441 44.0578 27.327 44.0578 28.3033 43.0815L36.0815 35.3033C37.0578 34.327 37.0578 32.7441 36.0815 31.7678Z" fill="#333333"/>
<path d="M14.0059 62.002L17.5098 65.5059L13.5117 69.5039L10.0078 66L14.0059 62.002Z" fill="white"/>
<path fill-rule="evenodd" clip-rule="evenodd" d="M14.0059 60.5877L18.924 65.5059L13.5117 70.9181L8.5936 66L14.0059 60.5877ZM14.0059 62.002L10.0078 66L13.5117 69.5039L17.5098 65.5059L14.0059 62.002Z" fill="#333333"/>
<path d="M44.546 42.7678C45.5223 41.7915 47.1052 41.7915 48.0815 42.7678C49.0578 43.7441 49.0578 45.327 48.0815 46.3033L40.3033 54.0815C39.327 55.0578 37.7441 55.0578 36.7678 54.0815C35.7915 53.1052 35.7915 51.5223 36.7678 50.5459L44.546 42.7678Z" fill="#FF713D"/>
<path fill-rule="evenodd" clip-rule="evenodd" d="M48.7886 47.0104L41.0104 54.7886C39.6436 56.1554 37.4275 56.1554 36.0607 54.7886C34.6938 53.4217 34.6938 51.2057 36.0607 49.8388L43.8388 42.0607C45.2057 40.6938 47.4218 40.6938 48.7886 42.0607C50.1554 43.4275 50.1554 45.6436 48.7886 47.0104ZM48.0815 42.7678C47.1052 41.7915 45.5223 41.7915 44.546 42.7678L36.7678 50.5459C35.7915 51.5223 35.7915 53.1052 36.7678 54.0815C37.7441 55.0578 39.327 55.0578 40.3033 54.0815L48.0815 46.3033C49.0578 45.327 49.0578 43.7441 48.0815 42.7678Z" fill="#333333"/>
<path d="M15.182 57L22.6066 64.4246L21.546 65.4853C20.3744 66.6569 18.4749 66.6569 17.3033 65.4853L14.1213 62.3033C12.9498 61.1317 12.9498 59.2322 14.1213 58.0607L15.182 57Z" fill="white"/>
<path fill-rule="evenodd" clip-rule="evenodd" d="M15.182 55.5858L24.0208 64.4246L22.2531 66.1924C20.691 67.7545 18.1583 67.7545 16.5962 66.1924L13.4142 63.0104C11.8521 61.4483 11.8521 58.9156 13.4142 57.3536L15.182 55.5858ZM15.182 57L14.1213 58.0607C12.9498 59.2322 12.9498 61.1317 14.1213 62.3033L17.3033 65.4853C18.4749 66.6569 20.3744 66.6569 21.546 65.4853L22.6066 64.4246L15.182 57Z" fill="#333333"/>
<path d="M23 35L44.9203 56.9203L38.9134 62.9272C34.2271 67.6135 26.6291 67.6135 21.9428 62.9272L16.9931 57.9775C12.3068 53.2912 12.3068 45.6932 16.9931 41.0069L23 35Z" fill="#BDECFF"/>
<path fill-rule="evenodd" clip-rule="evenodd" d="M23 33.5858L46.3345 56.9203L39.6205 63.6343C34.5437 68.7111 26.3125 68.7111 21.2357 63.6343L16.286 58.6846C11.2092 53.6078 11.2092 45.3766 16.286 40.2998L23 33.5858ZM23 35L16.9931 41.0069C12.3068 45.6932 12.3068 53.2912 16.9931 57.9775L21.9428 62.9272C26.6291 67.6135 34.2271 67.6135 38.9134 62.9272L44.9203 56.9203L23 35Z" fill="#333333"/>
<path d="M67.504 15.5019L64.0001 11.998L67.9981 7.99997L71.502 11.5039L67.504 15.5019Z" fill="white"/>
<path fill-rule="evenodd" clip-rule="evenodd" d="M67.504 16.9161L62.5858 11.998L67.9981 6.58576L72.9162 11.5039L67.504 16.9161ZM67.504 15.5019L71.502 11.5039L67.9981 7.99997L64.0001 11.998L67.504 15.5019Z" fill="#333333"/>
<path d="M66.4247 20.6066L59.0001 13.1819L60.0607 12.1213C61.2323 10.9497 63.1318 10.9497 64.3034 12.1213L67.4853 15.3033C68.6569 16.4748 68.6569 18.3743 67.4853 19.5459L66.4247 20.6066Z" fill="white"/>
<path fill-rule="evenodd" clip-rule="evenodd" d="M66.4247 22.0208L57.5858 13.1819L59.3536 11.4142C60.9157 9.85208 63.4484 9.85208 65.0105 11.4142L68.1925 14.5962C69.7545 16.1583 69.7545 18.6909 68.1924 20.253L66.4247 22.0208ZM66.4247 20.6066L67.4853 19.5459C68.6569 18.3743 68.6569 16.4748 67.4853 15.3033L64.3034 12.1213C63.1318 10.9497 61.2323 10.9497 60.0607 12.1213L59.0001 13.1819L66.4247 20.6066Z" fill="#333333"/>
<path d="M58.9203 42.9L37 20.9797L43.007 14.9728C47.6932 10.2865 55.2912 10.2865 59.9775 14.9728L64.9273 19.9225C69.6135 24.6088 69.6135 32.2068 64.9273 36.8931L58.9203 42.9Z" fill="#EFEFEF"/>
<path fill-rule="evenodd" clip-rule="evenodd" d="M58.9203 44.3142L35.5858 20.9797L42.2998 14.2657C47.3767 9.18885 55.6078 9.18886 60.6846 14.2657L65.6344 19.2154C70.7112 24.2922 70.7112 32.5234 65.6344 37.6002L58.9203 44.3142ZM58.9203 42.9L64.9273 36.8931C69.6135 32.2068 69.6135 24.6088 64.9273 19.9225L59.9775 14.9728C55.2912 10.2865 47.6932 10.2865 43.007 14.9728L37 20.9797L58.9203 42.9Z" fill="#333333"/>
</svg>
