<svg width="80" height="80" viewBox="0 0 80 80" fill="none" xmlns="http://www.w3.org/2000/svg">
<path d="M31.5 68.5H11.5C9.3 68.5 7.5 66.7 7.5 64.5V16.5C7.5 14.3 9.3 12.5 11.5 12.5H31.5V68.5Z" fill="#EFEFEF"/>
<path d="M31.5 12.5H67.5C69.7 12.5 71.5 14.3 71.5 16.5V64.5C71.5 66.7 69.7 68.5 67.5 68.5H31.5V12.5Z" fill="white"/>
<path fill-rule="evenodd" clip-rule="evenodd" d="M11.5 13C9.57614 13 8 14.5761 8 16.5V64.5C8 66.4239 9.57614 68 11.5 68H67.5C69.4239 68 71 66.4239 71 64.5V16.5C71 14.5761 69.4239 13 67.5 13H11.5ZM7 16.5C7 14.0239 9.02386 12 11.5 12H67.5C69.9761 12 72 14.0239 72 16.5V64.5C72 66.9761 69.9761 69 67.5 69H11.5C9.02386 69 7 66.9761 7 64.5V16.5Z" fill="#333333"/>
<path fill-rule="evenodd" clip-rule="evenodd" d="M14 20.5C14 20.2239 14.2239 20 14.5 20H24.5C24.7761 20 25 20.2239 25 20.5C25 20.7761 24.7761 21 24.5 21H14.5C14.2239 21 14 20.7761 14 20.5Z" fill="#333333"/>
<path fill-rule="evenodd" clip-rule="evenodd" d="M14 26.5C14 26.2239 14.2239 26 14.5 26H24.5C24.7761 26 25 26.2239 25 26.5C25 26.7761 24.7761 27 24.5 27H14.5C14.2239 27 14 26.7761 14 26.5Z" fill="#333333"/>
<path fill-rule="evenodd" clip-rule="evenodd" d="M14 32.5C14 32.2239 14.2239 32 14.5 32H24.5C24.7761 32 25 32.2239 25 32.5C25 32.7761 24.7761 33 24.5 33H14.5C14.2239 33 14 32.7761 14 32.5Z" fill="#333333"/>
<path fill-rule="evenodd" clip-rule="evenodd" d="M14 38.5C14 38.2239 14.2239 38 14.5 38H24.5C24.7761 38 25 38.2239 25 38.5C25 38.7761 24.7761 39 24.5 39H14.5C14.2239 39 14 38.7761 14 38.5Z" fill="#333333"/>
<path fill-rule="evenodd" clip-rule="evenodd" d="M14 44.5C14 44.2239 14.2239 44 14.5 44H24.5C24.7761 44 25 44.2239 25 44.5C25 44.7761 24.7761 45 24.5 45H14.5C14.2239 45 14 44.7761 14 44.5Z" fill="#333333"/>
<path fill-rule="evenodd" clip-rule="evenodd" d="M40 43.5C40 43.2239 40.2239 43 40.5 43H62.5C62.7761 43 63 43.2239 63 43.5C63 43.7761 62.7761 44 62.5 44H40.5C40.2239 44 40 43.7761 40 43.5Z" fill="#333333"/>
<path fill-rule="evenodd" clip-rule="evenodd" d="M40 49.5C40 49.2239 40.2239 49 40.5 49H62.5C62.7761 49 63 49.2239 63 49.5C63 49.7761 62.7761 50 62.5 50H40.5C40.2239 50 40 49.7761 40 49.5Z" fill="#333333"/>
<path fill-rule="evenodd" clip-rule="evenodd" d="M40 55.5C40 55.2239 40.2239 55 40.5 55H62.5C62.7761 55 63 55.2239 63 55.5C63 55.7761 62.7761 56 62.5 56H40.5C40.2239 56 40 55.7761 40 55.5Z" fill="#333333"/>
<path fill-rule="evenodd" clip-rule="evenodd" d="M40 61.5C40 61.2239 40.2239 61 40.5 61H62.5C62.7761 61 63 61.2239 63 61.5C63 61.7761 62.7761 62 62.5 62H40.5C40.2239 62 40 61.7761 40 61.5Z" fill="#333333"/>
<path fill-rule="evenodd" clip-rule="evenodd" d="M14 61.5C14 61.2239 14.2239 61 14.5 61H24.5C24.7761 61 25 61.2239 25 61.5C25 61.7761 24.7761 62 24.5 62H14.5C14.2239 62 14 61.7761 14 61.5Z" fill="#333333"/>
<path fill-rule="evenodd" clip-rule="evenodd" d="M40.3 23C39.6104 23 39 23.6406 39 24.4V34.6C39 35.4418 39.5938 36 40.3 36H62.7C63.3896 36 64 35.3594 64 34.6V24.4C64 23.5582 63.4062 23 62.7 23H57.9C57.6239 23 57.4 22.7761 57.4 22.5C57.4 22.2239 57.6239 22 57.9 22H62.7C63.9938 22 65 23.0418 65 24.4V34.6C65 35.8406 64.0104 37 62.7 37H40.3C39.0062 37 38 35.9582 38 34.6V24.4C38 23.1594 38.9896 22 40.3 22H45.1C45.3761 22 45.6 22.2239 45.6 22.5C45.6 22.7761 45.3761 23 45.1 23H40.3Z" fill="#333333"/>
<path d="M60 32C57.9 29 54.9 27 51.5 27C48.1 27 45.1 29 43 32H60Z" fill="url(#paint0_linear)"/>
<path fill-rule="evenodd" clip-rule="evenodd" d="M42.5904 31.7133C44.7534 28.6233 47.8899 26.5 51.5 26.5C55.1101 26.5 58.2466 28.6233 60.4096 31.7133C60.5165 31.866 60.5296 32.0655 60.4435 32.2309C60.3574 32.3963 60.1864 32.5 60 32.5H43C42.8136 32.5 42.6426 32.3963 42.5565 32.2309C42.4704 32.0655 42.4835 31.866 42.5904 31.7133ZM44.0009 31.5H58.9991C57.0163 29.0429 54.3924 27.5 51.5 27.5C48.6077 27.5 45.9837 29.0429 44.0009 31.5Z" fill="#333333"/>
<path d="M50 27.234V25H53V27.234L51.5 30L50 27.234Z" fill="#EFEFEF"/>
<path d="M51.5 26C53.7091 26 55.5 24.2091 55.5 22C55.5 19.7909 53.7091 18 51.5 18C49.2909 18 47.5 19.7909 47.5 22C47.5 24.2091 49.2909 26 51.5 26Z" fill="white"/>
<path fill-rule="evenodd" clip-rule="evenodd" d="M51.5 18.5C49.567 18.5 48 20.067 48 22C48 23.933 49.567 25.5 51.5 25.5C53.433 25.5 55 23.933 55 22C55 20.067 53.433 18.5 51.5 18.5ZM47 22C47 19.5147 49.0147 17.5 51.5 17.5C53.9853 17.5 56 19.5147 56 22C56 24.4853 53.9853 26.5 51.5 26.5C49.0147 26.5 47 24.4853 47 22Z" fill="#333333"/>
<path d="M55.5 21.5C55.4 19.4 53.7 17.6 51.5 17.6C49.3 17.6 47.5 19.4 47.5 21.6C47.5 21.8 47.5 21.9 47.5 22.1C47.8 22.2 48.1 22.2 48.4 22.2C50 22.2 51.4 21.1 51.7 19.6C52.3 20.8 53.4 21.6 54.8 21.6C55.1 21.5 55.3 21.5 55.5 21.5Z" fill="#AAAAAA"/>
<path fill-rule="evenodd" clip-rule="evenodd" d="M47 21.6C47 19.1239 49.0239 17.1 51.5 17.1C53.9885 17.1 55.8878 19.1318 55.9994 21.4762C56.0059 21.6128 55.9562 21.7461 55.8619 21.845C55.7675 21.944 55.6367 22 55.5 22C55.3146 22 55.1799 22.0004 54.9581 22.0743C54.9071 22.0913 54.8537 22.1 54.8 22.1C53.5668 22.1 52.5412 21.5571 51.8258 20.7022C51.1701 21.9076 49.8489 22.7 48.4 22.7C48.3918 22.7 48.3835 22.7 48.3751 22.7C48.0896 22.7001 47.7196 22.7003 47.3419 22.5743C47.1377 22.5063 47 22.3152 47 22.1V21.6ZM51.5 18.1C49.5761 18.1 48 19.6761 48 21.6V21.6892C48.1179 21.6984 48.248 21.7 48.4 21.7C49.7789 21.7 50.9598 20.7517 51.2097 19.5019C51.2516 19.2925 51.4219 19.1328 51.6336 19.1044C51.8453 19.0761 52.0517 19.1853 52.1472 19.3764C52.6639 20.4097 53.5764 21.0719 54.7259 21.0991C54.804 21.0759 54.877 21.0581 54.9457 21.0445C54.6466 19.406 53.2443 18.1 51.5 18.1Z" fill="#333333"/>
<path fill-rule="evenodd" clip-rule="evenodd" d="M50 25.5C50.2761 25.5 50.5 25.7239 50.5 26V27C50.5 27.2761 50.2761 27.5 50 27.5C49.7239 27.5 49.5 27.2761 49.5 27V26C49.5 25.7239 49.7239 25.5 50 25.5Z" fill="#333333"/>
<path fill-rule="evenodd" clip-rule="evenodd" d="M53 25.5C53.2761 25.5 53.5 25.7239 53.5 26V27C53.5 27.2761 53.2761 27.5 53 27.5C52.7239 27.5 52.5 27.2761 52.5 27V26C52.5 25.7239 52.7239 25.5 53 25.5Z" fill="#333333"/>
<defs>
<linearGradient id="paint0_linear" x1="43" y1="29.4825" x2="60" y2="29.4825" gradientUnits="userSpaceOnUse">
<stop stop-color="#FF8E3D"/>
<stop offset="1" stop-color="#FF6F3D"/>
</linearGradient>
</defs>
</svg>
