<svg width="186" height="34" viewBox="0 0 186 34" fill="none" xmlns="http://www.w3.org/2000/svg">
<path fill-rule="evenodd" clip-rule="evenodd" d="M15.3735 31.6158L0.941235 25.0205C-0.313745 24.4442 -0.313745 23.5478 0.941235 23.0355L5.96116 20.7303L15.3038 25.0205C16.5588 25.5968 18.511 25.5968 19.6962 25.0205L29.0388 20.7303L34.0588 23.0355C35.3137 23.6118 35.3137 24.5082 34.0588 25.0205L19.6265 31.6158C18.511 32.128 16.489 32.128 15.3735 31.6158Z" fill="#F36F43"/>
<path fill-rule="evenodd" clip-rule="evenodd" d="M15.3038 23.4837L0.941235 16.9524C-0.313745 16.3761 -0.313745 15.4797 0.941235 14.9674L5.82171 12.7263L15.3038 17.0805C16.5588 17.6568 18.511 17.6568 19.6265 17.0805L29.1086 12.7263L33.989 14.9674C35.244 15.5437 35.244 16.4402 33.989 16.9524L19.6265 23.4837C18.4412 24.06 16.489 24.06 15.3038 23.4837Z" fill="#95C03D"/>
<path fill-rule="evenodd" clip-rule="evenodd" d="M15.3038 15.5438L0.941235 9.01251C-0.313745 8.43622 -0.313745 7.53977 0.941235 7.02751L15.3038 0.432216C16.5588 -0.144072 18.511 -0.144072 19.6265 0.432216L33.989 7.02751C35.244 7.6038 35.244 8.50025 33.989 9.01251L19.6265 15.5438C18.4412 16.1201 16.489 16.1201 15.3038 15.5438Z" fill="#5FC1E8"/>
<path d="M45 8.9998C45 5.97837 45.8313 3.72837 47.6218 2.31409C49.2844 0.77123 51.3306 0.0640869 53.6327 0.0640869C55.9347 0.0640869 57.917 0.77123 59.6435 2.31409C61.3061 3.85694 62.2014 6.04266 62.2014 9.06409C62.2014 12.0855 61.3701 14.3355 59.6435 15.7498C57.981 17.2927 55.9347 17.9998 53.6327 17.9998C51.3306 17.9998 49.3483 17.2927 47.6218 15.7498C45.8952 14.2069 45 11.9569 45 8.9998ZM48.7728 8.9998C48.7728 11.0569 49.1565 12.5355 49.9238 13.4998C50.6912 14.4641 51.5864 15.1069 52.4816 15.2998C52.7374 15.3641 52.8653 15.4284 53.1211 15.4284C53.3129 15.4284 53.5048 15.4927 53.6966 15.4927C53.9524 15.4927 54.0803 15.4927 54.3361 15.4284C54.5918 15.4284 54.7197 15.3641 54.9755 15.2998C55.8707 15.0427 56.702 14.4641 57.4694 13.4998C58.1728 12.5355 58.6204 10.9927 58.6204 9.06409C58.6204 7.00694 58.2367 5.59266 57.4694 4.62837C56.766 3.66409 55.8707 3.02123 54.9755 2.82837C54.7197 2.76409 54.5279 2.6998 54.3361 2.6998C54.0803 2.6998 53.9524 2.63552 53.6966 2.63552C53.4408 2.63552 53.3129 2.63551 53.1211 2.6998C52.9293 2.6998 52.7374 2.76409 52.4816 2.82837C51.5864 3.08551 50.7551 3.66409 49.9238 4.62837C49.1565 5.3998 48.7728 6.94266 48.7728 8.9998Z" fill="white"/>
<path d="M64.7592 0H69.4272L75.566 11.3143L76.4612 13.8214H76.5252L76.4612 10.6071V0H80.0422V18H75.3742L69.2354 6.23571L68.3401 4.24286H68.2762L68.3401 7.39286V18H64.7592V0Z" fill="white"/>
<path d="M83.4313 0H87.0123V14.9143H94.0463V18H83.4313V0Z" fill="white"/>
<path d="M92.5116 0H96.6041L100.249 6.17143L100.824 7.39286H100.952L101.528 6.17143L105.173 0H108.946L102.551 10.4786V17.6786H98.9701V10.4143L92.5116 0Z" fill="white"/>
<path d="M108.562 8.9998C108.562 5.97837 109.393 3.72837 111.184 2.31409C112.846 0.77123 114.893 0.0640869 117.195 0.0640869C119.497 0.0640869 121.479 0.77123 123.205 2.31409C124.868 3.85694 125.763 6.04266 125.763 9.06409C125.763 12.0855 124.932 14.3355 123.205 15.7498C121.543 17.2927 119.497 17.9998 117.195 17.9998C114.893 17.9998 112.91 17.2927 111.184 15.7498C109.457 14.2069 108.562 11.9569 108.562 8.9998ZM112.271 8.9998C112.271 11.0569 112.654 12.5355 113.422 13.4998C114.189 14.4641 115.02 15.1069 115.98 15.2998C116.235 15.3641 116.363 15.4284 116.619 15.4284C116.811 15.4284 117.003 15.4927 117.195 15.4927C117.45 15.4927 117.578 15.4927 117.834 15.4284C118.09 15.4284 118.218 15.3641 118.473 15.2998C119.369 15.0427 120.2 14.4641 120.967 13.4998C121.671 12.5355 122.118 10.9927 122.118 9.06409C122.118 7.00694 121.735 5.59266 120.967 4.62837C120.2 3.66409 119.369 3.02123 118.473 2.82837C118.218 2.76409 118.026 2.6998 117.834 2.6998C117.578 2.6998 117.45 2.63552 117.195 2.63552C116.939 2.63552 116.811 2.63551 116.619 2.6998C116.427 2.6998 116.235 2.76409 115.98 2.82837C115.084 3.08551 114.253 3.66409 113.422 4.62837C112.718 5.3998 112.271 6.94266 112.271 8.9998Z" fill="white"/>
<path d="M128.321 0H138.169V2.95714H131.902V7.26428H137.913V10.2857H131.902V17.6786H128.321V0Z" fill="white"/>
<path d="M140.727 0H150.574V2.95714H144.307V7.26428H150.318V10.2857H144.307V17.6786H140.727V0Z" fill="white"/>
<path d="M153.196 17.6143V0H156.841V17.6143H153.196Z" fill="white"/>
<path d="M173.275 0.45V3.53571C172.635 3.27857 171.996 3.15 171.356 3.02143C170.653 2.89286 169.886 2.82857 169.054 2.82857C167.2 2.82857 165.729 3.40714 164.706 4.56429C163.683 5.72143 163.171 7.2 163.171 8.93571C163.171 10.6071 163.619 12.0857 164.578 13.1786C165.537 14.3357 166.944 14.9143 168.671 14.9143C169.31 14.9143 169.95 14.85 170.653 14.7857C171.42 14.6571 172.124 14.5286 172.955 14.1429L173.211 17.1643C173.083 17.2286 172.955 17.2929 172.763 17.3571C172.507 17.4214 172.316 17.4857 171.996 17.55C171.548 17.6786 170.973 17.7429 170.269 17.8071C169.566 17.8714 168.927 17.9357 168.159 17.9357C168.031 17.9357 167.903 17.9357 167.903 17.9357C167.775 17.9357 167.648 17.9357 167.648 17.9357C165.601 17.8071 163.683 17.0357 162.02 15.6857C160.294 14.2714 159.463 12.0214 159.463 9.12857C159.463 6.23571 160.294 3.98571 161.956 2.37857C163.619 0.771428 165.921 0 168.671 0C169.438 0 170.078 2.44273e-07 170.653 0.064286C171.293 0.128572 171.868 0.257143 172.507 0.321429C172.635 0.385714 172.763 0.385714 172.891 0.45C172.955 0.385714 173.083 0.45 173.275 0.45Z" fill="white"/>
<path d="M175.769 0H186V2.76429H179.286V7.2H185.361V9.9H179.286V14.85H186V17.6143H175.769V0Z" fill="white"/>
<path d="M52.2241 31H50.9404V27.4551H47.3203V31H46.0312V23.1475H47.3203V26.3594H50.9404V23.1475H52.2241V31ZM61.39 31H56.9427V23.1475H61.39V24.2324H58.2318V26.3647H61.1913V27.4443H58.2318V29.9097H61.39V31ZM65.7273 31V23.1475H67.0163V29.9043H70.3518V31H65.7273ZM76.6334 23.1475C77.6467 23.1475 78.3861 23.3551 78.8516 23.7705C79.3171 24.1859 79.5499 24.7677 79.5499 25.5161C79.5499 25.8563 79.4962 26.1803 79.3888 26.4883C79.2849 26.7926 79.113 27.063 78.8731 27.2993C78.6332 27.5321 78.3163 27.7165 77.9224 27.8525C77.5321 27.9886 77.0505 28.0566 76.4776 28.0566H75.6397V31H74.3507V23.1475H76.6334ZM76.5474 24.2163H75.6397V26.9824H76.3433C76.748 26.9824 77.0917 26.9359 77.3746 26.8428C77.6575 26.7461 77.8723 26.5939 78.0191 26.3862C78.1659 26.1785 78.2393 25.9046 78.2393 25.5645C78.2393 25.1097 78.1015 24.7713 77.8258 24.5493C77.5536 24.3273 77.1275 24.2163 76.5474 24.2163ZM92.6019 24.1304C92.2259 24.1304 91.8893 24.1984 91.5921 24.3345C91.2985 24.4705 91.0496 24.6675 90.8455 24.9253C90.6414 25.1795 90.4856 25.4893 90.3782 25.8545C90.2708 26.2161 90.2171 26.6243 90.2171 27.0791C90.2171 27.6878 90.303 28.2124 90.4749 28.6528C90.6468 29.0897 90.9082 29.4263 91.2591 29.6626C91.61 29.8953 92.054 30.0117 92.5911 30.0117C92.9241 30.0117 93.2482 29.9795 93.5633 29.915C93.8784 29.8506 94.2042 29.7629 94.5408 29.6519V30.7476C94.2221 30.8729 93.8999 30.9642 93.574 31.0215C93.2482 31.0788 92.8722 31.1074 92.4461 31.1074C91.644 31.1074 90.978 30.9409 90.448 30.6079C89.9217 30.2749 89.5278 29.8058 89.2664 29.2007C89.0086 28.5955 88.8797 27.8866 88.8797 27.0737C88.8797 26.4793 88.962 25.9351 89.1268 25.4409C89.2915 24.9468 89.5314 24.5207 89.8465 24.1626C90.1616 23.8009 90.5501 23.5234 91.012 23.3301C91.4775 23.1331 92.0092 23.0347 92.6072 23.0347C93.0011 23.0347 93.3878 23.0794 93.7674 23.1689C94.1505 23.2549 94.505 23.3784 94.8309 23.5396L94.3797 24.603C94.1076 24.4741 93.8229 24.3631 93.5257 24.27C93.2285 24.1769 92.9205 24.1304 92.6019 24.1304ZM103.315 31H98.8673V23.1475H103.315V24.2324H100.156V26.3647H103.116V27.4443H100.156V29.9097H103.315V31ZM114.205 31H112.62L108.774 24.7319H108.726C108.74 24.9432 108.753 25.167 108.764 25.4033C108.778 25.6396 108.789 25.8831 108.796 26.1338C108.807 26.3844 108.816 26.6387 108.823 26.8965V31H107.652V23.1475H109.226L113.066 29.3726H113.104C113.096 29.1899 113.087 28.9805 113.077 28.7441C113.066 28.5078 113.055 28.2643 113.044 28.0137C113.037 27.7594 113.032 27.5142 113.028 27.2778V23.1475H114.205V31ZM121.63 31H120.336V24.2432H118.037V23.1475H123.924V24.2432H121.63V31ZM132.214 31H127.767V23.1475H132.214V24.2324H129.056V26.3647H132.015V27.4443H129.056V29.9097H132.214V31ZM138.759 23.1475C139.436 23.1475 139.994 23.2298 140.435 23.3945C140.879 23.5592 141.208 23.8099 141.423 24.1465C141.641 24.4831 141.751 24.911 141.751 25.4302C141.751 25.8169 141.679 26.1463 141.536 26.4185C141.393 26.6906 141.205 26.9162 140.972 27.0952C140.739 27.2743 140.49 27.4175 140.225 27.5249L142.454 31H140.999L139.103 27.8525H137.84V31H136.551V23.1475H138.759ZM138.673 24.2217H137.84V26.7891H138.732C139.33 26.7891 139.763 26.6781 140.032 26.4561C140.304 26.234 140.44 25.9064 140.44 25.4731C140.44 25.0184 140.295 24.6961 140.005 24.5063C139.719 24.3166 139.275 24.2217 138.673 24.2217Z" fill="white"/>
</svg>
