<svg width="16" height="16" viewBox="0 0 16 16" fill="none" xmlns="http://www.w3.org/2000/svg">
<path d="M7.91709 -2.89166e-05C8.14595 0.0626147 8.38358 0.10396 8.60199 0.192078C9.2727 0.462699 9.68113 0.987653 9.9363 1.64291C10.2458 2.43639 10.3439 3.27164 10.3176 4.11148C10.2909 4.96302 10.612 5.6404 11.1808 6.24136C12.3861 7.51721 12.9812 9.04321 13.0008 10.7956C13.0029 10.9476 12.9946 11.085 13.1186 11.2228C13.2677 11.3898 13.281 11.622 13.256 11.8463C13.2514 11.9443 13.2406 12.042 13.2238 12.1386C13.1708 12.3566 13.2656 12.4919 13.4418 12.6043C13.6181 12.7166 13.7893 12.8223 13.9325 12.9626C14.072 13.092 14.184 13.2483 14.2616 13.422C14.3923 13.7477 14.2875 14.038 13.9835 14.2126C13.7571 14.3389 13.5194 14.4437 13.2735 14.5258C12.8665 14.6599 12.506 14.907 12.2341 15.2382C11.8002 15.7653 11.2226 16.0167 10.5431 15.99C10.1881 15.9766 9.9079 15.7983 9.768 15.4533C9.73041 15.3614 9.68447 15.328 9.5855 15.328C8.87554 15.3347 8.1685 15.3255 7.46021 15.3406C6.9173 15.3518 6.40655 15.5189 5.915 15.7419C5.90516 15.7453 5.89597 15.7504 5.88786 15.7569C5.62601 16.0305 5.30318 16.0284 4.97368 15.9399C4.64417 15.8513 4.3201 15.7615 4.01314 15.6245C3.63478 15.4546 3.26142 15.3205 2.83921 15.2992C2.48423 15.2813 2.12924 15.1994 1.78345 15.1059C1.58425 15.0516 1.39256 14.9363 1.223 14.8135C1.13231 14.7486 1.06416 14.6571 1.02807 14.5516C0.991975 14.4461 0.989751 14.3319 1.02171 14.2251C1.13739 13.7991 1.10523 13.3815 1.03298 12.9572C0.941106 12.4143 1.10899 12.1349 1.64021 11.9657C1.84902 11.8998 2.06326 11.8584 2.27667 11.8125C2.39109 11.7874 2.4575 11.7323 2.47337 11.6099C2.51847 11.2591 2.66339 10.9659 2.96658 10.7596C3.01168 10.7287 3.02881 10.6448 3.04301 10.5813C3.36374 9.14761 3.84735 7.77196 4.54645 6.47858C4.85173 5.91771 5.13488 5.34556 5.23929 4.7066C5.30778 4.28897 5.33116 3.85965 5.35246 3.43451C5.38504 2.77258 5.43599 2.1144 5.64146 1.4792C5.78679 1.02566 6.00479 0.616384 6.40905 0.33407C6.66338 0.156163 6.95196 0.075561 7.25307 0.0337985C7.3082 0.0258637 7.36249 0.0108294 7.41678 -0.00128174L7.91709 -2.89166e-05ZM8.89308 5.20399C8.82417 5.24074 8.76779 5.26747 8.716 5.29837C8.20827 5.59581 7.66205 5.82206 7.0927 5.97074C7.04931 5.98591 7.00295 5.99063 6.95739 5.98453C6.60619 5.90521 6.27618 5.75124 5.98976 5.53307L5.80016 5.38691C5.62642 5.77028 5.47942 6.14322 5.29358 6.49612C4.63601 7.73239 4.1333 9.045 3.79682 10.4042C3.73584 10.6523 3.68239 10.8787 3.93672 11.0499C3.95267 11.0634 3.96513 11.0806 3.97305 11.1C4.14219 11.427 4.31509 11.7519 4.47796 12.0818C4.68322 12.5097 4.97336 12.8914 5.33075 13.2036C5.5287 13.3752 5.69617 13.5861 5.85486 13.7962C5.93004 13.8956 5.99936 13.9561 6.12381 13.9691C6.79535 14.0384 7.46439 14.0417 8.1305 13.9186C8.70055 13.8125 9.23803 13.6262 9.6757 13.2295C9.72672 13.1815 9.75948 13.1173 9.76842 13.0478C9.80833 12.4172 9.98914 11.8035 10.2975 11.252C10.3299 11.1874 10.3443 11.1153 10.3393 11.0432C10.3088 10.5086 10.2938 9.97158 10.2328 9.43953C10.0866 8.16369 9.71538 6.9484 9.17748 5.78365C9.08978 5.59112 8.99372 5.40361 8.89308 5.20399ZM3.30151 11.3431L3.24221 11.3372C3.19325 11.4757 3.15143 11.6166 3.11692 11.7594C3.0334 12.1854 2.75777 12.3955 2.35309 12.4748C2.18933 12.5032 2.0272 12.5403 1.86739 12.5859C1.64355 12.6536 1.64355 12.6615 1.68531 12.8962C1.76382 13.3293 1.8106 13.7619 1.71663 14.1984C1.66861 14.4189 1.67487 14.4544 1.89746 14.5028C2.21152 14.5713 2.53142 14.6151 2.84965 14.6648C3.13864 14.7099 3.44351 14.6461 3.72248 14.7839C3.86698 14.8557 4.01857 14.9125 4.16182 14.9856C4.49471 15.1588 4.85424 15.2751 5.22551 15.3297C5.41761 15.3568 5.49362 15.3097 5.5216 15.1134C5.55225 14.925 5.5435 14.7323 5.49592 14.5475C5.44833 14.3627 5.36294 14.1898 5.24513 14.0397C5.11358 13.8701 4.93233 13.739 4.77322 13.5911C4.3432 13.2014 4.00855 12.718 3.79514 12.1783C3.67654 11.8722 3.52745 11.5832 3.30151 11.3414V11.3431ZM12.5594 12.4055C11.8628 12.7667 11.2071 12.8578 10.5761 12.3257C10.5677 12.3675 10.5544 12.4126 10.5494 12.4585C10.4934 12.976 10.4337 13.4926 10.3857 14.0104C10.3548 14.3416 10.3318 14.674 10.3226 15.0069C10.3151 15.2704 10.4203 15.3639 10.6864 15.3527C11.137 15.333 11.5153 15.151 11.7947 14.7981C12.1155 14.3926 12.5231 14.124 13.0021 13.9474C13.233 13.8638 13.459 13.7624 13.687 13.6692C13.6903 13.6479 13.6941 13.6275 13.6974 13.6053C13.5583 13.5022 13.4218 13.3965 13.2798 13.2967C12.9528 13.0674 12.592 12.867 12.5594 12.4038V12.4055ZM6.0027 4.67945C6.25556 4.96165 6.57192 5.17966 6.92565 5.31549C6.97727 5.33654 7.03444 5.33977 7.08811 5.32468C7.43808 5.19939 7.79055 5.07411 8.13217 4.92501C8.30799 4.84775 8.46042 4.7162 8.62997 4.60762C7.69157 3.82583 6.84004 3.80996 6.00437 4.67653L6.0027 4.67945ZM8.49675 3.92773L8.53643 3.9649C8.62956 3.88555 8.73981 3.81914 8.81206 3.72393C9.09145 3.35767 9.07015 2.59634 8.78241 2.23718C8.53517 1.92731 8.17059 1.9223 7.91751 2.22507C7.59552 2.6097 7.5713 3.33136 7.87575 3.72852C7.94465 3.81789 8.04739 3.88137 8.13467 3.95654L8.16808 3.92105C8.00563 3.71891 7.98182 3.49549 8.06702 3.25911C8.11337 3.1309 8.18771 3.01647 8.34014 3.01898C8.48506 3.02148 8.54895 3.13716 8.60032 3.25577C8.61565 3.2942 8.62645 3.33428 8.63248 3.37521C8.65374 3.47123 8.65271 3.57085 8.62947 3.66641C8.60624 3.76197 8.5614 3.85094 8.49842 3.92647L8.49675 3.92773ZM6.47295 3.95487C6.68176 3.89599 6.79577 3.78782 6.86593 3.6379C7.0689 3.20691 7.06806 2.76924 6.85132 2.34744C6.6212 1.90058 6.11755 1.8797 5.85695 2.30568C5.59636 2.73165 5.59051 3.19229 5.81811 3.64207C5.85298 3.71703 5.9042 3.78321 5.96802 3.83575C6.03184 3.8883 6.10662 3.92586 6.18688 3.94568C6.00354 3.71014 5.97806 3.47836 6.07495 3.23572C6.12089 3.11962 6.19397 3.01898 6.33137 3.01522C6.46877 3.01146 6.54728 3.11712 6.59114 3.22988C6.68635 3.47293 6.67341 3.70931 6.47462 3.95487H6.47295Z" fill="#444444"/>
</svg>
