<svg width="16" height="16" viewBox="0 0 16 16" fill="none" xmlns="http://www.w3.org/2000/svg">
<path d="M3.5 6.5V2.5C3.5 1.94772 3.94772 1.5 4.5 1.5H9.5L12.5 4.5V14.5H8.5" stroke="#333333" stroke-linecap="round"/>
<rect width="1" height="10" rx="0.5" transform="matrix(-1 0 0 1 16 4)" fill="#333333"/>
<rect width="2" height="1" rx="0.5" transform="matrix(-1 0 0 1 16 4)" fill="#333333"/>
<rect width="2" height="1" rx="0.5" transform="matrix(-1 0 0 1 16 13)" fill="#333333"/>
<path d="M9 1L11 3L13 5H9V1Z" fill="#333333"/>
<circle cx="3.5" cy="9.5" r="1.5" fill="#333333"/>
<path fill-rule="evenodd" clip-rule="evenodd" d="M6.61668 13.9059C6.89427 14.4475 6.41992 15 5.8113 15H1.18862C0.579998 15 0.105648 14.4475 0.383235 13.9059C0.963137 12.7744 2.14112 12 3.49996 12C4.8588 12 6.03678 12.7744 6.61668 13.9059Z" fill="#333333"/>
</svg>
