<svg width="16" height="16" viewBox="0 0 16 16" fill="none" xmlns="http://www.w3.org/2000/svg">
<path d="M3.5 2C3.5 1.72386 3.72386 1.5 4 1.5H9.45238L12.5 4.7V14C12.5 14.2761 12.2761 14.5 12 14.5H4C3.72386 14.5 3.5 14.2761 3.5 14V2Z" stroke="#333333"/>
<path d="M9 1L11 3L13 5H9V1Z" fill="#333333"/>
<rect y="4" width="1" height="10" rx="0.5" fill="#333333"/>
<rect width="1" height="10" rx="0.5" transform="matrix(-1 0 0 1 16 4)" fill="#333333"/>
<rect y="4" width="2" height="1" rx="0.5" fill="#333333"/>
<rect width="2" height="1" rx="0.5" transform="matrix(-1 0 0 1 16 4)" fill="#333333"/>
<rect y="13" width="2" height="1" rx="0.5" fill="#333333"/>
<rect width="2" height="1" rx="0.5" transform="matrix(-1 0 0 1 16 13)" fill="#333333"/>
</svg>
