<svg width="16" height="16" viewBox="0 0 16 16" fill="none" xmlns="http://www.w3.org/2000/svg">
<path d="M3 1.5H2.5C1.94772 1.5 1.5 1.94772 1.5 2.5V10.5C1.5 11.0523 1.94772 11.5 2.5 11.5H13.5C14.0523 11.5 14.5 11.0523 14.5 10.5V2.5C14.5 1.94772 14.0523 1.5 13.5 1.5H13" stroke="#444444"/>
<rect x="5.5" y="11.5" width="5" height="3" stroke="#444444"/>
<rect x="4" y="14" width="8" height="1" rx="0.5" fill="#444444"/>
<mask id="path-4-inside-1_650_2323" fill="white">
<path fill-rule="evenodd" clip-rule="evenodd" d="M13.0047 3.95033V6.07457L12.1117 6.27954L11.814 7.02489L12.2977 7.78886L10.7907 9.29819L10.0093 8.81371L9.26514 9.13049L9.06049 10.0249H6.93956L6.7349 9.13049L5.99072 8.83235L5.22792 9.31682L3.72094 7.8075L4.20467 7.02489L3.88839 6.27954L2.99536 6.07457V3.95033L3.88839 3.74536L4.18606 3.00002L3.70234 2.23604L5.20932 0.726712L5.99072 1.21119L6.7349 0.894415L6.93956 0H9.06049L9.26514 0.894415L10.0093 1.19255L10.7721 0.708079L12.2791 2.2174L11.7954 3.00002L12.1117 3.74536L13.0047 3.95033ZM8.00003 6C8.55232 6 9.00003 5.55228 9.00003 5C9.00003 4.44772 8.55232 4 8.00003 4C7.44775 4 7.00003 4.44772 7.00003 5C7.00003 5.55228 7.44775 6 8.00003 6Z"/>
</mask>
<path d="M13.0047 6.07457L13.2284 7.04923L14.0047 6.87105V6.07457H13.0047ZM13.0047 3.95033H14.0047V3.15386L13.2284 2.97568L13.0047 3.95033ZM12.1117 6.27954L11.888 5.30488L11.3773 5.42209L11.183 5.90865L12.1117 6.27954ZM11.814 7.02489L10.8853 6.65399L10.6959 7.12831L10.9691 7.55983L11.814 7.02489ZM12.2977 7.78886L13.0054 8.49542L13.5704 7.92954L13.1426 7.25392L12.2977 7.78886ZM10.7907 9.29819L10.2638 10.1481L10.9379 10.5661L11.4984 10.0047L10.7907 9.29819ZM10.0093 8.81371L10.5363 7.96382L10.0952 7.69034L9.61767 7.8936L10.0093 8.81371ZM9.26514 9.13049L8.87349 8.21038L8.40411 8.41017L8.29033 8.90744L9.26514 9.13049ZM9.06049 10.0249V11.0249H9.85752L10.0353 10.2479L9.06049 10.0249ZM6.93956 10.0249L5.96475 10.2479L6.14252 11.0249H6.93956V10.0249ZM6.7349 9.13049L7.70971 8.90744L7.59291 8.39696L7.10679 8.20221L6.7349 9.13049ZM5.99072 8.83235L6.36261 7.90407L5.88704 7.71355L5.45458 7.98822L5.99072 8.83235ZM5.22792 9.31682L4.52027 10.0234L5.08699 10.591L5.76406 10.161L5.22792 9.31682ZM3.72094 7.8075L2.87031 7.28173L2.45453 7.95443L3.01329 8.51405L3.72094 7.8075ZM4.20467 7.02489L5.0553 7.55065L5.32732 7.11054L5.12522 6.63426L4.20467 7.02489ZM3.88839 6.27954L4.80894 5.88891L4.60956 5.41906L4.11209 5.30488L3.88839 6.27954ZM2.99536 6.07457H1.99536V6.87105L2.77165 7.04923L2.99536 6.07457ZM2.99536 3.95033L2.77165 2.97568L1.99536 3.15386V3.95033H2.99536ZM3.88839 3.74536L4.11209 4.72002L4.62274 4.60281L4.81706 4.11626L3.88839 3.74536ZM4.18606 3.00002L5.11474 3.37091L5.30417 2.89659L5.03095 2.46507L4.18606 3.00002ZM3.70234 2.23604L2.99468 1.52948L2.42968 2.09537L2.85745 2.77099L3.70234 2.23604ZM5.20932 0.726712L5.73627 -0.123186L5.06211 -0.541168L4.50166 0.0201556L5.20932 0.726712ZM5.99072 1.21119L5.46377 2.06109L5.90485 2.33456L6.38237 2.1313L5.99072 1.21119ZM6.7349 0.894415L7.12656 1.81453L7.59593 1.61473L7.70971 1.11746L6.7349 0.894415ZM6.93956 0V-1H6.14252L5.96475 -0.223046L6.93956 0ZM9.06049 0L10.0353 -0.223046L9.85752 -1H9.06049V0ZM9.26514 0.894415L8.29033 1.11746L8.40714 1.62794L8.89325 1.82269L9.26514 0.894415ZM10.0093 1.19255L9.63744 2.12083L10.113 2.31135L10.5455 2.03669L10.0093 1.19255ZM10.7721 0.708079L11.4798 0.00152191L10.9131 -0.566083L10.236 -0.136053L10.7721 0.708079ZM12.2791 2.2174L13.1297 2.74317L13.5455 2.07047L12.9868 1.51085L12.2791 2.2174ZM11.7954 3.00002L10.9447 2.47425L10.6727 2.91436L10.8748 3.39064L11.7954 3.00002ZM12.1117 3.74536L11.1911 4.13599L11.3905 4.60584L11.888 4.72002L12.1117 3.74536ZM14.0047 6.07457V3.95033H12.0047V6.07457H14.0047ZM12.3354 7.2542L13.2284 7.04923L12.781 5.09991L11.888 5.30488L12.3354 7.2542ZM12.7427 7.39578L13.0403 6.65043L11.183 5.90865L10.8853 6.65399L12.7427 7.39578ZM13.1426 7.25392L12.6589 6.48994L10.9691 7.55983L11.4528 8.32381L13.1426 7.25392ZM11.4984 10.0047L13.0054 8.49542L11.59 7.08231L10.0831 8.59163L11.4984 10.0047ZM9.48238 9.66361L10.2638 10.1481L11.3177 8.44829L10.5363 7.96382L9.48238 9.66361ZM9.6568 10.0506L10.401 9.73383L9.61767 7.8936L8.87349 8.21038L9.6568 10.0506ZM10.0353 10.2479L10.2399 9.35353L8.29033 8.90744L8.08568 9.80186L10.0353 10.2479ZM6.93956 11.0249H9.06049V9.0249H6.93956V11.0249ZM5.7601 9.35353L5.96475 10.2479L7.91436 9.80186L7.70971 8.90744L5.7601 9.35353ZM5.61883 9.76063L6.36302 10.0588L7.10679 8.20221L6.36261 7.90407L5.61883 9.76063ZM5.76406 10.161L6.52685 9.67648L5.45458 7.98822L4.69179 8.47269L5.76406 10.161ZM3.01329 8.51405L4.52027 10.0234L5.93558 8.61027L4.4286 7.10094L3.01329 8.51405ZM3.35404 6.49912L2.87031 7.28173L4.57158 8.33326L5.0553 7.55065L3.35404 6.49912ZM2.96784 6.67017L3.28412 7.41551L5.12522 6.63426L4.80894 5.88891L2.96784 6.67017ZM2.77165 7.04923L3.66468 7.2542L4.11209 5.30488L3.21907 5.09991L2.77165 7.04923ZM1.99536 3.95033V6.07457H3.99536V3.95033H1.99536ZM3.66468 2.77071L2.77165 2.97568L3.21907 4.92499L4.11209 4.72002L3.66468 2.77071ZM3.25739 2.62912L2.95971 3.37447L4.81706 4.11626L5.11474 3.37091L3.25739 2.62912ZM2.85745 2.77099L3.34118 3.53497L5.03095 2.46507L4.54722 1.70109L2.85745 2.77099ZM4.50166 0.0201556L2.99468 1.52948L4.41 2.94259L5.91698 1.43327L4.50166 0.0201556ZM6.51766 0.361289L5.73627 -0.123186L4.68237 1.57661L5.46377 2.06109L6.51766 0.361289ZM6.34325 -0.0256965L5.59906 0.291075L6.38237 2.1313L7.12656 1.81453L6.34325 -0.0256965ZM5.96475 -0.223046L5.7601 0.671369L7.70971 1.11746L7.91436 0.223046L5.96475 -0.223046ZM9.06049 -1H6.93956V1H9.06049V-1ZM10.2399 0.671369L10.0353 -0.223046L8.08568 0.223046L8.29033 1.11746L10.2399 0.671369ZM10.3812 0.264276L9.63703 -0.0338621L8.89325 1.82269L9.63744 2.12083L10.3812 0.264276ZM10.236 -0.136053L9.47319 0.348422L10.5455 2.03669L11.3083 1.55221L10.236 -0.136053ZM12.9868 1.51085L11.4798 0.00152191L10.0645 1.41464L11.5714 2.92396L12.9868 1.51085ZM12.646 3.52578L13.1297 2.74317L11.4285 1.69164L10.9447 2.47425L12.646 3.52578ZM13.0322 3.35474L12.7159 2.60939L10.8748 3.39064L11.1911 4.13599L13.0322 3.35474ZM13.2284 2.97568L12.3354 2.77071L11.888 4.72002L12.781 4.92499L13.2284 2.97568ZM8.00003 5V7C9.1046 7 10 6.10457 10 5H8.00003ZM8.00003 5H10C10 3.89543 9.1046 3 8.00003 3V5ZM8.00003 5V3C6.89546 3 6.00003 3.89543 6.00003 5H8.00003ZM8.00003 5H6.00003C6.00003 6.10457 6.89546 7 8.00003 7V5Z" fill="#444444" mask="url(#path-4-inside-1_650_2323)"/>
</svg>
