<svg width="24" height="24" viewBox="0 0 24 24" fill="none" xmlns="http://www.w3.org/2000/svg">
<path d="M11.9511 23C10.368 22.9784 8.69777 22.9426 7.03538 22.7084C6.30017 22.6045 5.7124 22.3143 5.25044 21.6866C4.19023 20.2455 3.27942 18.7087 2.41972 17.1374C1.59474 15.6303 0.816294 14.0995 0.197072 12.4857C-0.0637214 11.8053 -0.0676529 11.1662 0.197072 10.4831C0.858886 8.77077 1.70024 7.15225 2.58484 5.55668C3.36198 4.15414 4.20465 2.79614 5.12201 1.48337C5.66457 0.707183 6.35784 0.336637 7.26275 0.236745C9.64331 -0.0251343 12.0265 -0.0467327 14.4136 0.0605839C15.3539 0.103106 16.289 0.184099 17.2194 0.338662C17.802 0.435179 18.2534 0.710558 18.6197 1.18505C19.2665 2.02265 19.8411 2.90953 20.385 3.81869C21.5494 5.76658 22.6306 7.76105 23.5191 9.86149C24.1587 11.3727 24.1665 11.671 23.5054 13.1809C22.2171 16.1236 20.6655 18.9085 18.834 21.532C18.2816 22.323 17.5654 22.6618 16.6585 22.7631C15.1226 22.9345 13.5834 22.9838 11.9518 23H11.9511Z" fill="#03A8F3"/>
<path d="M6.00292 11.4982C6.00292 11.0897 5.99553 10.6812 6.00427 10.2734C6.02175 9.47022 6.68683 8.85438 7.54761 8.84937C8.43326 8.84436 9.31892 8.84311 10.2039 8.85814C10.3902 8.86127 10.4056 8.80051 10.4043 8.66205C10.3996 7.9535 10.3996 7.24557 10.403 6.53701C10.407 5.60981 11.0566 5.00525 12.0505 5.00212C12.8198 4.99961 13.5892 4.99899 14.3585 5.00212C15.3363 5.00588 15.9899 5.61232 15.9953 6.52198C15.9993 7.28002 16 8.0387 15.9953 8.79675C15.9899 9.69763 15.3457 10.3022 14.3813 10.3066C13.5138 10.3103 12.6457 10.3066 11.7782 10.2972C11.6383 10.2953 11.5912 10.3229 11.5926 10.4569C11.5986 11.1486 11.5993 11.8402 11.5926 12.5319C11.5912 12.6816 11.647 12.7029 11.795 12.701C12.6625 12.691 13.53 12.6879 14.3982 12.6922C15.345 12.6972 15.9899 13.3043 15.996 14.1914C16.0013 14.9582 16.0013 15.7244 15.996 16.4912C15.9899 17.3827 15.3309 17.9917 14.3699 17.9967C13.5824 18.0005 12.7956 18.0017 12.0082 17.9967C11.0674 17.9904 10.411 17.3765 10.4043 16.4963C10.3989 15.7714 10.3989 15.0466 10.4063 14.3217C10.4077 14.1707 10.3761 14.1375 10.2026 14.1407C9.29067 14.1551 8.37745 14.1607 7.46557 14.1463C6.69625 14.1344 6.03722 13.5186 6.00898 12.7987C5.99149 12.3658 6.00561 11.9323 6.00561 11.4988H6.00292V11.4982Z" fill="#FEFEFE"/>
</svg>
