<svg width="24" height="24" viewBox="0 0 24 24" fill="none" xmlns="http://www.w3.org/2000/svg">
<path d="M6.12491 19.0891C5.1122 17.6354 4.91622 12.8987 7.2764 9.98304C8.44425 8.58667 8.74645 7.61479 8.8363 6.29987C8.90159 4.80536 7.78275 0.354573 11.9967 0.01973C16.268 -0.3233 16.0311 3.89068 16.0067 6.12027C15.9904 7.99854 17.387 9.06847 18.3506 10.5385C20.1227 13.2335 19.9758 17.8721 18.0157 20.3875C15.5331 23.5317 13.4097 22.1679 11.9968 22.2822C9.35074 22.4374 9.261 23.8422 6.12491 19.0891Z" fill="black"/>
<path d="M16.4311 10.8161C17.1662 11.494 19.069 14.5238 16.0555 16.4185C14.9938 17.08 17.0029 19.5953 17.9665 18.3786C19.6734 16.1899 18.5872 12.6945 17.5582 11.445C16.8722 10.5631 15.8106 10.22 16.4311 10.8161Z" fill="#F5F5F5"/>
<path d="M16.2272 10.4078C17.4358 11.3878 19.6327 14.8177 16.4232 17.0554C15.3696 17.7496 17.3541 19.9465 18.4731 18.8275C22.3522 14.9238 18.375 10.4403 17.003 8.89677C15.778 7.54942 14.6919 9.20715 16.2272 10.4078Z" fill="black"/>
<path d="M10.9512 4.81344C10.9922 5.54033 10.6492 6.15281 10.1754 6.17727C9.70172 6.20183 9.28522 5.63837 9.24439 4.91148C9.20355 4.18459 9.54658 3.57211 10.0203 3.54765C10.494 3.52309 10.9105 4.08655 10.9512 4.81344Z" fill="#F5F5F5"/>
<path d="M11.8089 4.87064C11.8253 5.71174 12.3725 6.38142 13.0258 6.36515C13.6791 6.34878 14.1936 5.65453 14.1773 4.80525C14.1609 3.96415 13.6138 3.29447 12.9604 3.31084C12.3071 3.32711 11.7845 4.02944 11.8089 4.87064Z" fill="#F5F5F5"/>
<path d="M12.3479 5.0586C12.3397 5.52413 12.5685 5.8997 12.8706 5.8997C13.1646 5.8997 13.4177 5.52402 13.4259 5.06679C13.434 4.60126 13.2054 4.22559 12.9032 4.22559C12.6011 4.22559 12.3561 4.60137 12.3479 5.0586ZM10.4615 5.06679C10.5023 5.45065 10.3552 5.77731 10.1429 5.80995C9.93066 5.83451 9.72639 5.54869 9.68556 5.16483C9.64462 4.78096 9.79179 4.4542 10.004 4.42156C10.2165 4.3971 10.4206 4.68292 10.4615 5.06679Z" fill="black"/>
<path d="M7.70918 12.8823C8.28902 11.5674 9.52217 9.25626 9.54673 7.46774C9.54673 6.0467 13.8016 5.70367 14.1447 7.12481C14.4876 8.54585 15.3533 10.6691 15.9086 11.6982C16.464 12.719 18.0728 15.9776 16.3579 18.8195C14.8144 21.335 10.1349 23.3276 7.63581 18.4766C6.78642 16.7942 6.94156 14.7117 7.70918 12.8823Z" fill="#F5F5F5"/>
<path d="M7.18647 11.9023C6.6883 12.8414 5.65931 15.3078 8.17473 16.6554C10.8779 18.0928 10.8697 21.0409 7.61935 19.6362C4.6467 18.3704 5.96151 13.2417 6.79452 12.0167C7.33353 11.1591 8.15016 10.1057 7.18647 11.9023Z" fill="#F5F5F5"/>
<path d="M7.61118 10.8405C6.819 12.1309 4.92436 15.1689 7.46423 16.7533C10.8778 18.8521 9.91415 20.9428 6.79455 19.0563C2.40086 16.4266 6.26362 11.1183 8.0195 9.09295C10.0286 6.82253 8.40337 9.50936 7.61118 10.8405Z" fill="black"/>
<path d="M6.00236 22.9194C4.17301 21.9475 1.51883 23.1072 2.48252 20.4775C2.6785 19.8813 2.1967 18.983 2.50698 18.4032C2.87457 17.6927 3.66665 17.8479 4.14036 17.3742C4.60589 16.8842 4.8999 16.0348 5.77375 16.1656C6.63941 16.2962 7.21924 17.3578 7.82364 18.6646C8.27279 19.5955 9.85715 20.9104 9.75103 21.9558C9.62014 23.5563 7.79897 23.8585 6.00236 22.9194Z" fill="url(#paint0_linear_650_2064)"/>
<path fill-rule="evenodd" clip-rule="evenodd" d="M4.68948 17.1297C4.58613 17.2716 4.47119 17.4294 4.34185 17.5656L4.3394 17.5681L4.33688 17.5707C4.08697 17.8206 3.75887 17.9316 3.50331 18.0181C3.45914 18.033 3.41713 18.0472 3.37807 18.0613C3.09309 18.164 2.88793 18.2716 2.75382 18.5308L2.75294 18.5325L2.75202 18.5343C2.64764 18.7293 2.66677 19.0031 2.72658 19.3919C2.73094 19.4203 2.7355 19.4493 2.74013 19.4787C2.76452 19.6339 2.79099 19.8024 2.80259 19.9634C2.81649 20.1562 2.81183 20.3656 2.74655 20.5643L2.74509 20.5687L2.74347 20.5731C2.50781 21.2161 2.53037 21.5382 2.6159 21.7047C2.69622 21.8611 2.88013 21.9708 3.25156 22.0479C3.43078 22.0851 3.63431 22.1111 3.86183 22.1368C3.91183 22.1424 3.96304 22.1481 4.01522 22.1538C4.19643 22.1738 4.38931 22.195 4.58381 22.2223C5.08534 22.2928 5.63192 22.408 6.13187 22.6734C6.99163 23.1226 7.82729 23.2581 8.43975 23.1189C8.74282 23.05 8.98482 22.9159 9.15717 22.7265C9.32828 22.5385 9.4457 22.2795 9.47404 21.9331L9.47426 21.9303L9.47453 21.9276C9.49359 21.7399 9.43814 21.5168 9.30861 21.2544C9.18 20.9939 8.99083 20.7194 8.77455 20.4357C8.64974 20.272 8.52752 20.1197 8.40507 19.9672C8.30723 19.8452 8.20925 19.7232 8.10968 19.5949C7.89872 19.3232 7.69941 19.0466 7.57333 18.7853L7.57234 18.7832L7.57139 18.7812C7.26899 18.1274 6.98317 17.5589 6.67311 17.1391C6.36202 16.7179 6.05806 16.4896 5.73246 16.4404C5.41547 16.393 5.20887 16.5113 5.00679 16.727C4.90012 16.8409 4.80246 16.9745 4.69375 17.1238L4.68948 17.1297ZM4.60109 16.3471C4.88082 16.0484 5.25811 15.8074 5.81489 15.8907L5.8152 15.8907C6.3552 15.9722 6.77393 16.34 7.12022 16.8089C7.46722 17.2787 7.77322 17.8935 8.0749 18.5457C8.17351 18.7494 8.34029 18.9856 8.54872 19.254C8.63315 19.3628 8.72902 19.4824 8.82795 19.6059C8.95858 19.7689 9.09456 19.9387 9.21658 20.0987C9.43926 20.3908 9.65436 20.6992 9.80701 21.0083C9.95831 21.3148 10.061 21.647 10.0278 21.981C9.9903 22.4336 9.8311 22.8118 9.5683 23.1006C9.30621 23.3886 8.95609 23.5715 8.56293 23.6609C7.78312 23.8381 6.81019 23.6552 5.87362 23.1656L5.87279 23.1652L5.87197 23.1647C5.45748 22.9445 4.98664 22.8403 4.50641 22.7728C4.32102 22.7467 4.13932 22.7267 3.95947 22.7069C3.90599 22.701 3.85267 22.6951 3.79947 22.6891C3.57118 22.6633 3.3452 22.6351 3.13854 22.5922C2.73821 22.509 2.32494 22.3548 2.12147 21.9587C1.9237 21.5736 1.97514 21.0561 2.21978 20.3868C2.25143 20.2879 2.25966 20.1626 2.24819 20.0033C2.23842 19.8677 2.21631 19.7266 2.19195 19.5712C2.1871 19.5402 2.18215 19.5086 2.1772 19.4764C2.12276 19.1225 2.05624 18.6582 2.261 18.2738C2.49455 17.8237 2.8687 17.654 3.18969 17.5384C3.24605 17.5181 3.29945 17.4995 3.35012 17.482C3.60493 17.3936 3.79106 17.3291 3.94142 17.18C4.0421 17.0736 4.13642 16.9449 4.24443 16.7966L4.25009 16.7888C4.35332 16.6471 4.46924 16.4879 4.60109 16.3471Z" fill="#E68C3F"/>
<path d="M19.3223 16.7452C19.0447 17.2679 17.8849 18.1091 17.1091 17.8885C16.3251 17.6762 15.9658 16.4838 16.121 15.5773C16.268 14.5646 17.1091 14.5073 18.1709 15.0138C19.3142 15.5774 19.6572 16.051 19.3223 16.7452Z" fill="#F5F5F5"/>
<path d="M18.6852 22.4701C20.0246 20.845 23.0054 21.1798 20.9964 18.9503C20.5717 18.4685 20.7024 17.4394 20.1798 16.9985C19.5673 16.4595 18.8894 16.9004 18.2688 16.6228C17.6481 16.3206 16.9948 15.7408 16.2353 16.1491C15.4757 16.5657 15.3941 17.6436 15.3206 19.0646C15.2552 20.0855 14.3242 21.7923 14.8224 22.7315C15.541 24.1852 17.4112 23.9891 18.6852 22.4701Z" fill="url(#paint1_linear_650_2064)"/>
<path fill-rule="evenodd" clip-rule="evenodd" d="M18.3863 16.3707C18.5834 16.4576 18.7813 16.4502 19.0526 16.4402C19.1056 16.4382 19.1614 16.4361 19.2205 16.4347C19.5639 16.426 19.9752 16.4492 20.3615 16.7878C20.7031 17.0777 20.8141 17.5414 20.8959 17.8967C20.9025 17.9253 20.9089 17.9535 20.9152 17.9812C20.9516 18.1409 20.9844 18.285 21.0276 18.4181C21.0778 18.5722 21.1344 18.6858 21.2042 18.7654C21.7106 19.3276 21.9737 19.7996 21.9488 20.2284C21.9223 20.6842 21.583 20.9684 21.2399 21.1749C21.0622 21.2818 20.86 21.3816 20.6558 21.4803C20.6247 21.4953 20.5935 21.5103 20.5623 21.5254C20.3848 21.6109 20.2049 21.6975 20.0245 21.7934C19.6004 22.0188 19.2004 22.282 18.8998 22.6467L18.8991 22.6477L18.8983 22.6486C18.2253 23.4511 17.3752 23.9281 16.5678 23.9926C15.7456 24.0582 14.9881 23.6904 14.5751 22.8581C14.4192 22.5619 14.3838 22.2232 14.4035 21.8894C14.4234 21.5533 14.5008 21.1988 14.5917 20.8572C14.6433 20.6631 14.7038 20.4577 14.7619 20.2606C14.803 20.121 14.8429 19.9856 14.8775 19.8615C14.9655 19.5458 15.0287 19.2722 15.0432 19.0484C15.0796 18.3448 15.1189 17.6925 15.2511 17.1628C15.3846 16.6276 15.6253 16.1666 16.1017 15.9053L16.1027 15.9047L16.1038 15.9042C16.5784 15.649 17.0221 15.7102 17.4057 15.8606C17.593 15.934 17.7709 16.0304 17.9327 16.1217C17.9686 16.1419 18.0035 16.1618 18.0375 16.1812C18.1609 16.2514 18.2737 16.3156 18.3863 16.3707ZM16.3681 16.3933C16.0856 16.5487 15.9059 16.8348 15.7905 17.2974C15.6737 17.7656 15.6354 18.3621 15.5983 19.0789L15.5982 19.0806L15.5981 19.0823C15.5798 19.3686 15.5022 19.6907 15.413 20.0107C15.3727 20.1552 15.3314 20.295 15.2903 20.4345C15.2353 20.6204 15.1806 20.8057 15.1289 21.0001C15.0411 21.3302 14.9751 21.6422 14.9585 21.9222C14.9419 22.2031 14.9766 22.4286 15.0681 22.6012L15.07 22.6047L15.0717 22.6083C15.3777 23.2272 15.9136 23.4871 16.5236 23.4384C17.1492 23.3885 17.8708 23.0082 18.4716 22.2922C18.8406 21.8449 19.3152 21.5408 19.7635 21.3025C19.9546 21.201 20.1457 21.1089 20.3229 21.0236C20.3537 21.0088 20.3841 20.9942 20.414 20.9797C20.6193 20.8805 20.8001 20.7907 20.9532 20.6986C21.2716 20.507 21.3846 20.3552 21.3938 20.1961C21.4046 20.0101 21.2874 19.6883 20.7901 19.1363L20.7891 19.1352L20.7881 19.134C20.646 18.9728 20.5599 18.7774 20.499 18.59C20.4472 18.4307 20.4081 18.2585 20.3721 18.1001C20.366 18.0734 20.36 18.0471 20.3541 18.0213C20.2645 17.6321 20.1799 17.362 20.0007 17.2108L19.9985 17.209L19.9963 17.207C19.7707 17.0085 19.5377 16.9828 19.2345 16.9904C19.1932 16.9914 19.1491 16.9934 19.1028 16.9955C18.8316 17.0076 18.4833 17.0231 18.1554 16.8764L18.1513 16.8746L18.1472 16.8726C18.0153 16.8084 17.8809 16.7318 17.754 16.6595C17.722 16.6412 17.6904 16.6233 17.6596 16.6059C17.5006 16.5162 17.3514 16.4364 17.2028 16.3782C16.915 16.2653 16.6525 16.2407 16.3681 16.3933Z" fill="#E68C3F"/>
<path d="M19.1427 16.7205C18.8977 17.1453 17.9014 17.8149 17.2399 17.6352C16.562 17.4637 16.2516 16.5082 16.3906 15.7896C16.5131 14.9729 17.2399 14.9321 18.1545 15.3404C19.1263 15.7814 19.4285 16.1571 19.1427 16.7205Z" fill="black"/>
<path d="M10.0286 5.82616C10.3553 5.52396 11.1474 4.6012 12.6501 5.56479C12.9278 5.74439 13.1564 5.76076 13.6873 5.98948C14.7572 6.43055 14.2508 7.49218 13.1075 7.85148C12.6175 8.00662 12.1765 8.60294 11.2945 8.54573C10.535 8.50479 10.339 8.00683 9.87346 7.73728C9.04863 7.27175 8.92614 6.6429 9.37529 6.30806C9.82444 5.97311 9.99595 5.85061 10.0286 5.82616Z" fill="url(#paint2_linear_650_2064)"/>
<path fill-rule="evenodd" clip-rule="evenodd" d="M10.2144 5.88001C10.1888 5.90442 10.1647 5.92748 10.1419 5.94861L10.1355 5.95447L10.1286 5.95965C10.1228 5.96401 10.1097 5.97353 10.0885 5.98901C10.0103 6.04596 9.82121 6.1836 9.47501 6.44178L9.47499 6.44179C9.30423 6.56909 9.24987 6.73838 9.30632 6.92556C9.36686 7.12631 9.56371 7.37101 9.95546 7.59211L9.95626 7.59256L9.95705 7.59302C10.088 7.66884 10.1974 7.75927 10.296 7.84708C10.3294 7.87684 10.3607 7.90545 10.3911 7.93322C10.4541 7.99074 10.513 8.04464 10.5786 8.09757C10.7606 8.24466 10.967 8.36113 11.3035 8.37927L11.3044 8.37932L11.3053 8.37937C11.7021 8.40511 11.9997 8.28557 12.2652 8.13357C12.3547 8.08234 12.4355 8.03055 12.5173 7.97813C12.562 7.94952 12.6069 7.92073 12.6537 7.89174C12.7801 7.81348 12.914 7.73788 13.0572 7.69256L13.0573 7.6925L13.0575 7.69245C13.5986 7.5224 13.9591 7.19456 14.0711 6.89311C14.1254 6.74698 14.121 6.611 14.0603 6.49168C13.9983 6.36995 13.8663 6.24367 13.6238 6.1437L13.6226 6.14319L13.6214 6.14267C13.4017 6.04802 13.2364 5.99118 13.0932 5.9419C13.0678 5.93316 13.0431 5.92466 13.0189 5.91623C12.8578 5.86009 12.7159 5.80591 12.5599 5.70505C11.8446 5.24646 11.324 5.24972 10.953 5.37839C10.6176 5.49473 10.3845 5.7175 10.2144 5.88001ZM10.8437 5.0633C11.3262 4.89595 11.9529 4.91962 12.7402 5.42446L12.7405 5.42464L12.7407 5.42482C12.8623 5.50343 12.9734 5.5472 13.1286 5.60129C13.1517 5.60932 13.1756 5.61754 13.2005 5.62611C13.344 5.67544 13.5207 5.73622 13.7521 5.83588C14.0439 5.95641 14.2494 6.12805 14.3575 6.34036C14.467 6.55537 14.4652 6.78995 14.3837 7.00927C14.2242 7.43867 13.7598 7.82125 13.1578 8.01053C13.056 8.04278 12.9511 8.09988 12.8294 8.17526C12.7912 8.19893 12.7503 8.22507 12.7076 8.25242C12.6211 8.30775 12.5269 8.36805 12.4309 8.42299C12.1331 8.59353 11.7695 8.74347 11.2846 8.71224C10.8622 8.68927 10.591 8.53638 10.369 8.35699C10.2954 8.2976 10.2239 8.23223 10.1571 8.17123C10.1285 8.14513 10.1008 8.11983 10.0742 8.09614C9.98164 8.01369 9.89219 7.94095 9.79069 7.88207C9.3581 7.63773 9.08158 7.33542 8.98702 7.02185C8.8883 6.69452 8.99726 6.38197 9.27564 6.17443M10.8437 5.0633C10.4337 5.20552 10.1458 5.48273 9.97871 5.64355L10.8437 5.0633ZM9.97871 5.64355C9.95787 5.66361 9.93891 5.68186 9.92183 5.69781L9.97871 5.64355ZM9.92183 5.69781C9.91228 5.70486 9.89819 5.71511 9.87834 5.72956C9.79814 5.78792 9.62396 5.91467 9.27566 6.17441" fill="#E68C3F"/>
<path fill-rule="evenodd" clip-rule="evenodd" d="M13.2222 6.75257C13.3904 6.65917 13.5564 6.58045 13.6976 6.57275L13.7097 6.79476C13.6264 6.7993 13.5025 6.85123 13.3302 6.94694C13.2365 6.99896 13.1392 7.05751 13.034 7.12071C12.9464 7.17341 12.8534 7.22934 12.7527 7.28741C12.3249 7.53405 11.8042 7.79127 11.2618 7.79127C10.7156 7.79127 10.2832 7.53764 9.97406 7.29371C9.83831 7.18659 9.72388 7.07929 9.63448 6.99546C9.62212 6.98386 9.61023 6.97271 9.59883 6.96208C9.55075 6.91722 9.51378 6.88374 9.48496 6.86151C9.47061 6.85045 9.46136 6.8446 9.45621 6.84191C9.45557 6.84157 9.45505 6.84132 9.45466 6.84113C9.45697 6.84199 9.46354 6.84394 9.47332 6.84394V6.62161C9.50919 6.62161 9.53951 6.63456 9.55931 6.64492C9.58068 6.65611 9.60149 6.67061 9.62073 6.68545C9.65909 6.71503 9.70339 6.75556 9.7505 6.79951C9.76232 6.81053 9.77447 6.82192 9.78696 6.83364C9.87662 6.91767 9.984 7.01833 10.1118 7.11917C10.4029 7.3489 10.7872 7.56893 11.2618 7.56893C11.7403 7.56893 12.216 7.34021 12.6416 7.09479C12.733 7.04208 12.8247 6.98702 12.9132 6.93388C13.0234 6.86772 13.1287 6.80454 13.2222 6.75257ZM9.45374 6.84074C9.45373 6.84073 9.45403 6.84084 9.45466 6.84113C9.45406 6.84091 9.45374 6.84076 9.45374 6.84074Z" fill="#E68C3F"/>
<defs>
<linearGradient id="paint0_linear_650_2064" x1="6.28166" y1="19.7237" x2="5.24376" y2="23.3263" gradientUnits="userSpaceOnUse">
<stop stop-color="#FFA63F"/>
<stop offset="1" stop-color="#FFFF00"/>
</linearGradient>
<linearGradient id="paint1_linear_650_2064" x1="16.8135" y1="18.6344" x2="19.6388" y2="22.6376" gradientUnits="userSpaceOnUse">
<stop stop-color="#FFA63F"/>
<stop offset="1" stop-color="#FFFF00"/>
</linearGradient>
<linearGradient id="paint2_linear_650_2064" x1="11.6817" y1="5.73803" x2="11.7004" y2="8.52866" gradientUnits="userSpaceOnUse">
<stop stop-color="#FFA63F"/>
<stop offset="1" stop-color="#FFFF00"/>
</linearGradient>
</defs>
</svg>
