<svg width="24" height="24" viewBox="0 0 24 24" fill="none" xmlns="http://www.w3.org/2000/svg">
<g clip-path="url(#clip0_998_307)">
<path d="M15.8999 6.55133C16.4705 6.55133 18.2209 6.6023 19.5809 8.04068C19.3268 8.25054 19.0251 8.52954 18.737 8.86906C18.0184 9.71593 17.3125 10.998 17.3125 12.7549C17.3125 14.7829 18.2117 16.1733 19.1178 17.0458C19.5622 17.4737 20.0118 17.7815 20.3668 17.9876C20.3189 18.1149 20.2617 18.2597 20.1947 18.4185C19.9426 19.0165 19.5571 19.8007 19.0174 20.5882C18.4974 21.3365 18.017 22.0057 17.4869 22.4945C16.9701 22.9711 16.4669 23.2188 15.9023 23.2188C15.2732 23.2188 14.8914 23.0525 14.3668 22.824C14.3539 22.8184 14.341 22.8128 14.3279 22.8071C13.7507 22.5559 13.0619 22.2707 11.9659 22.2707C10.8941 22.2707 10.1591 22.5639 9.55423 22.8195C9.53501 22.8276 9.516 22.8357 9.49718 22.8436C8.92837 23.0843 8.53652 23.25 7.98387 23.25C7.49372 23.25 7.03355 23.0339 6.51628 22.5554C5.98579 22.0646 5.46902 21.3676 4.86362 20.5183C3.5584 18.6611 2.49323 15.7459 2.49323 13.0045C2.49323 8.70944 5.23324 6.61374 7.76305 6.61374C8.40083 6.61374 9.01161 6.82313 9.65941 7.0813C9.72693 7.10821 9.79622 7.1362 9.86659 7.16463C10.1146 7.26484 10.3761 7.37047 10.6207 7.45317C10.9372 7.56017 11.2978 7.65545 11.6683 7.65545C12.0347 7.65545 12.402 7.55168 12.7201 7.44195C12.9408 7.36584 13.186 7.26871 13.4257 7.17379C13.5301 7.13244 13.6334 7.0915 13.7333 7.05291C14.4323 6.78256 15.1441 6.55133 15.8999 6.55133Z" fill="#444444" stroke="#444444" stroke-width="1.50001"/>
<path d="M16.3175 0.48245C16.3175 1.71138 15.7894 2.9403 15.043 3.826C14.2509 4.8077 12.8803 5.53737 11.7906 5.53737C11.6658 5.53737 11.541 5.52057 11.4642 5.50617C11.4498 5.44617 11.4186 5.25895 11.4186 5.07173C11.4186 3.826 12.057 2.59707 12.7411 1.81939C13.6124 0.808884 15.0574 0.0456047 16.2719 0C16.3031 0.139214 16.3175 0.312032 16.3175 0.48245Z" fill="#444444"/>
</g>
<defs>
<clipPath id="clip0_998_307">
<rect width="24" height="24" fill="white"/>
</clipPath>
</defs>
</svg>
