<svg width="24" height="24" viewBox="0 0 24 24" fill="none" xmlns="http://www.w3.org/2000/svg">
<g clip-path="url(#clip0_650_2087)">
<path d="M19.9989 0H8.00227C5.7938 0 4.00113 1.79267 4.00113 4.00113H7.60011V15.6228C7.67509 16.509 8.97017 17.4837 11.6421 17.6541C13.8302 17.7904 15.8887 16.9725 16.4067 15.7455V4.00796C16.8634 4.04885 19.4331 4.71685 19.9171 7.20478C19.9512 7.34792 19.9716 7.49787 19.9852 7.64101C19.9921 7.7637 19.9989 7.87277 19.9989 7.99547V19.9989H16.3999V18.2539C15.7932 19.1059 14.9071 19.7194 13.8983 19.9989H8.00227C5.82107 20.0261 4.0284 18.2744 4.00113 16.0932V4.00113C1.79267 4.00113 0 5.7938 0 8.00227V19.9989C0 22.2073 1.79267 24 4.00113 24H15.9977C18.2062 24 19.9989 22.2073 19.9989 19.9989C22.2073 19.9989 24 18.2062 24 15.9977V4.00113C24 1.79267 22.2073 0 19.9989 0Z" fill="#DD0A2E"/>
</g>
<defs>
<clipPath id="clip0_650_2087">
<rect width="24" height="24" fill="white"/>
</clipPath>
</defs>
</svg>
