<svg width="24" height="24" viewBox="0 0 24 24" fill="none" xmlns="http://www.w3.org/2000/svg">
<path fill-rule="evenodd" clip-rule="evenodd" d="M20 12C19.7259 17.0143 15.3536 21 10 21C4.64641 21 0.274064 17.0143 0 12H20Z" fill="#0091E2"/>
<path d="M21 10C21 11.6569 19.5 13 19.5 13C19.5 13 18 11.6569 18 10C18 8.34315 19.5 7 19.5 7C19.5 7 21 8.34315 21 10Z" fill="#0091E2"/>
<path d="M22.0492 12.7893C20.5907 13.5754 18.6967 12.8923 18.6967 12.8923C18.6967 12.8923 19.1673 10.9346 20.6257 10.1485C22.0842 9.36231 23.9782 10.0454 23.9782 10.0454C23.9782 10.0454 23.5076 12.0031 22.0492 12.7893Z" fill="#0091E2"/>
<rect x="2" y="9" width="2" height="2" fill="#0091E2"/>
<rect x="5" y="9" width="2" height="2" fill="#0091E2"/>
<rect x="5" y="6" width="2" height="2" fill="#0091E2"/>
<rect x="8" y="9" width="2" height="2" fill="#0091E2"/>
<rect x="8" y="6" width="2" height="2" fill="#0091E2"/>
<rect x="11" y="9" width="2" height="2" fill="#0091E2"/>
<rect x="11" y="6" width="2" height="2" fill="#0091E2"/>
<rect x="11" y="3" width="2" height="2" fill="#0091E2"/>
<rect x="14" y="9" width="2" height="2" fill="#0091E2"/>
</svg>
