<svg width="16" height="16" viewBox="0 0 16 16" fill="none" xmlns="http://www.w3.org/2000/svg">
<path d="M1 5C1.55201 5 2 5.41726 2 5.93241V10.0676C2 10.5823 1.55249 11 1 11C0.447508 10.9995 0 10.5823 0 10.0671V5.93196C0 5.41726 0.447508 5 1 5Z" fill="#FF6F3D"/>
<path d="M6 10C6.55201 10 7 10.4173 7 10.9324V15.0676C7 15.5823 6.55249 16 6 16C5.44751 15.9995 5 15.5823 5 15.0671V10.932C5 10.4173 5.44751 10 6 10Z" fill="#FF6F3D"/>
<path d="M10 10C10.552 10 11 10.4173 11 10.9324V15.0676C11 15.5823 10.5525 16 10 16C9.44751 15.9995 9 15.5823 9 15.0671V10.932C9 10.4173 9.44751 10 10 10Z" fill="#FF6F3D"/>
<path d="M15 5C15.552 5 16 5.41726 16 5.93241V10.0676C16 10.5823 15.5525 11 15 11C14.448 11 14 10.5827 14 10.0676V5.93241C14 5.41726 14.448 5 15 5Z" fill="#FF6F3D"/>
<path fill-rule="evenodd" clip-rule="evenodd" d="M3 6C3 3.23858 5.23858 1 8 1C10.7614 1 13 3.23858 13 6V11C13 12.1046 12.1046 13 11 13H5C3.89543 13 3 12.1046 3 11V6ZM6 5C6.55228 5 7 4.55228 7 4C7 3.44772 6.55228 3 6 3C5.44772 3 5 3.44772 5 4C5 4.55228 5.44772 5 6 5ZM11 4C11 4.55228 10.5523 5 10 5C9.44772 5 9 4.55228 9 4C9 3.44772 9.44772 3 10 3C10.5523 3 11 3.44772 11 4Z" fill="#FF6F3D"/>
</svg>
