<svg width="16" height="16" viewBox="0 0 16 16" fill="none" xmlns="http://www.w3.org/2000/svg">
<path d="M13.6109 5.45495C13.5181 5.52695 11.8795 6.45024 11.8795 8.50325C11.8795 10.8779 13.9645 11.718 14.0269 11.7388C14.0173 11.79 13.6957 12.8893 12.9276 14.0094C12.2427 14.9951 11.5275 15.9792 10.4393 15.9792C9.35124 15.9792 9.07121 15.3471 7.81508 15.3471C6.59096 15.3471 6.15572 16 5.16042 16C4.16512 16 3.47065 15.0879 2.67217 13.9678C1.74727 12.6525 1 10.6091 1 8.66967C1 5.55896 3.0226 3.90919 5.0132 3.90919C6.07091 3.90919 6.9526 4.60366 7.61666 4.60366C8.24872 4.60366 9.23442 3.86759 10.4377 3.86759C10.8938 3.86759 12.5324 3.90919 13.6109 5.45495ZM9.86649 2.55065C10.3641 1.9602 10.7162 1.14091 10.7162 0.321632C10.7162 0.208021 10.7066 0.0928093 10.6858 0C9.87609 0.030403 8.91279 0.539254 8.33193 1.21292C7.87589 1.73137 7.45025 2.55065 7.45025 3.38114C7.45025 3.50595 7.47105 3.63076 7.48065 3.67077C7.53185 3.68037 7.61506 3.69157 7.69827 3.69157C8.42474 3.69157 9.33843 3.20512 9.86649 2.55065Z" fill="#FF6F3D"/>
</svg>
