<svg width="12" height="12" viewBox="0 0 12 12" fill="none" xmlns="http://www.w3.org/2000/svg">
<path fill-rule="evenodd" clip-rule="evenodd" d="M11 8.5C11 8.77614 11.2239 9 11.5 9C11.7761 9 12 8.77614 12 8.5V2.5C12 1.11929 10.8807 0 9.5 0H3.5C3.22386 0 3 0.223858 3 0.5C3 0.776142 3.22386 1 3.5 1H9.5C10.3284 1 11 1.67157 11 2.5V8.5ZM8 3H2C1.44772 3 1 3.44772 1 4V10C1 10.5523 1.44772 11 2 11H8C8.55228 11 9 10.5523 9 10V4C9 3.44772 8.55228 3 8 3ZM2 2C0.895431 2 0 2.89543 0 4V10C0 11.1046 0.89543 12 2 12H8C9.10457 12 10 11.1046 10 10V4C10 2.89543 9.10457 2 8 2H2Z" fill="#A3A9AE"/>
</svg>
