<svg width="80" height="80" viewBox="0 0 80 80" fill="none" xmlns="http://www.w3.org/2000/svg">
<path d="M13.5 16.5H65.5C67.0913 16.5 68.6174 17.1321 69.7426 18.2574C70.8679 19.3826 71.5 20.9087 71.5 22.5V50.5H7.5V22.5C7.5 20.9087 8.13214 19.3826 9.25736 18.2574C10.3826 17.1321 11.9087 16.5 13.5 16.5Z" fill="white" stroke="#333333" stroke-linecap="round" stroke-linejoin="round"/>
<path d="M7.5 49.5H71.5V55.5C71.5 57.0913 70.8679 58.6174 69.7426 59.7426C68.6174 60.8679 67.0913 61.5 65.5 61.5H13.5C11.9087 61.5 10.3826 60.8679 9.25736 59.7426C8.13214 58.6174 7.5 57.0913 7.5 55.5V49.5Z" fill="#BDECFF" stroke="#333333" stroke-miterlimit="10"/>
<path d="M38.5 57C39.3284 57 40 56.3284 40 55.5C40 54.6716 39.3284 54 38.5 54C37.6716 54 37 54.6716 37 55.5C37 56.3284 37.6716 57 38.5 57Z" fill="#333333"/>
<path d="M31.5 70.5V61.5H46.5V70.5H31.5Z" fill="white" stroke="#333333" stroke-linecap="round" stroke-linejoin="round"/>
<path d="M28.5 11.5H18.5C16.8431 11.5 15.5 12.8431 15.5 14.5V38.5C15.5 40.1569 16.8431 41.5 18.5 41.5H28.5C30.1569 41.5 31.5 40.1569 31.5 38.5V14.5C31.5 12.8431 30.1569 11.5 28.5 11.5Z" fill="white" stroke="#333333" stroke-miterlimit="10"/>
<path d="M28 17.0233V36.9767H21V17.0233H28ZM29 16H20V38H29V16Z" fill="#9ADAF3"/>
<path d="M20 22.5H29" stroke="#9ADAF3" stroke-miterlimit="10"/>
<path d="M20.5 27.5H29.5" stroke="#9ADAF3" stroke-miterlimit="10"/>
<path d="M21 32.5H30" stroke="#9ADAF3" stroke-miterlimit="10"/>
<path d="M60.5 11.5H41.5C39.8431 11.5 38.5 12.8431 38.5 14.5V38.5C38.5 40.1569 39.8431 41.5 41.5 41.5H60.5C62.1569 41.5 63.5 40.1569 63.5 38.5V14.5C63.5 12.8431 62.1569 11.5 60.5 11.5Z" fill="white" stroke="#333333" stroke-miterlimit="10"/>
<path d="M54.2904 20.73L51.1404 17L47.0004 21.76C46.9964 21.9189 47.0238 22.0771 47.0809 22.2254C47.1381 22.3737 47.2239 22.5093 47.3335 22.6245C47.4431 22.7396 47.5742 22.8321 47.7195 22.8965C47.8648 22.9609 48.0215 22.9961 48.1804 23H58.8203C58.9792 22.9961 59.1359 22.9609 59.2813 22.8965C59.4266 22.8321 59.5577 22.7396 59.6673 22.6245C59.7768 22.5093 59.8627 22.3737 59.9198 22.2254C59.977 22.0771 60.0044 21.9189 60.0004 21.76L56.6504 18.28L54.2904 20.73Z" fill="url(#paint0_linear_1087_6984)"/>
<path d="M55 17C55.5523 17 56 16.5523 56 16C56 15.4477 55.5523 15 55 15C54.4477 15 54 15.4477 54 16C54 16.5523 54.4477 17 55 17Z" fill="url(#paint1_linear_1087_6984)"/>
<path d="M58 26H49C47.8954 26 47 26.8954 47 28V35C47 36.1046 47.8954 37 49 37H58C59.1046 37 60 36.1046 60 35V28C60 26.8954 59.1046 26 58 26Z" fill="url(#paint2_linear_1087_6984)"/>
<path fill-rule="evenodd" clip-rule="evenodd" d="M50.49 45.5H29.49C28.6943 45.5 27.9313 45.1821 27.3687 44.6162C26.806 44.0503 26.49 43.2828 26.49 42.4825V10.5175C26.49 9.71719 26.806 8.94968 27.3687 8.38379C27.9313 7.81791 28.6943 7.5 29.49 7.5H44.49L53.49 16.5524V42.4825C53.49 43.2828 53.1739 44.0503 52.6113 44.6162C52.0487 45.1821 51.2856 45.5 50.49 45.5Z" fill="white" stroke="#333333" stroke-miterlimit="10"/>
<path fill-rule="evenodd" clip-rule="evenodd" d="M44.5 16.49H53.5L44.5 7.5V16.49Z" fill="url(#paint3_linear_1087_6984)" stroke="#333333" stroke-linecap="round" stroke-linejoin="round"/>
<path d="M31 21.5H49" stroke="#333333" stroke-linecap="round" stroke-linejoin="round"/>
<path d="M31 25.5H49" stroke="#333333" stroke-linecap="round" stroke-linejoin="round"/>
<path d="M31 29.5H49" stroke="#333333" stroke-linecap="round" stroke-linejoin="round"/>
<path d="M31 33.5H49" stroke="#333333" stroke-linecap="round" stroke-linejoin="round"/>
<path d="M31 37.5H49" stroke="#333333" stroke-linecap="round" stroke-linejoin="round"/>
<rect x="25.5" y="69.5" width="27" height="3" rx="1.5" fill="white" stroke="#333333"/>
<defs>
<linearGradient id="paint0_linear_1087_6984" x1="47.0004" y1="20" x2="60.0004" y2="20" gradientUnits="userSpaceOnUse">
<stop stop-color="#FF8E3D"/>
<stop offset="1" stop-color="#FF6F3D"/>
</linearGradient>
<linearGradient id="paint1_linear_1087_6984" x1="149" y1="34" x2="153" y2="34" gradientUnits="userSpaceOnUse">
<stop stop-color="#FF8E3D"/>
<stop offset="1" stop-color="#FF6F3D"/>
</linearGradient>
<linearGradient id="paint2_linear_1087_6984" x1="573.5" y1="290" x2="742.5" y2="290" gradientUnits="userSpaceOnUse">
<stop stop-color="#FF8E3D"/>
<stop offset="1" stop-color="#FF6F3D"/>
</linearGradient>
<linearGradient id="paint3_linear_1087_6984" x1="44.5" y1="12" x2="53.5" y2="12" gradientUnits="userSpaceOnUse">
<stop stop-color="#FFC671"/>
<stop offset="0.59" stop-color="#FF7541"/>
<stop offset="1" stop-color="#FF6F3D"/>
</linearGradient>
</defs>
</svg>
