<svg width="80" height="80" viewBox="0 0 80 80" fill="none" xmlns="http://www.w3.org/2000/svg">
<path d="M68.3428 65H11.6571C9.66233 65 8 63.3474 8 61.3643V19.6358C8 17.6526 9.66233 16 11.6571 16H68.3428C70.3377 16 72 17.6526 72 19.6358V61.3643C72 63.3474 70.4208 65 68.3428 65Z" fill="white"/>
<path fill-rule="evenodd" clip-rule="evenodd" d="M11.6571 64H68.3428C69.8592 64 71 62.8044 71 61.3643V19.6358C71 18.2104 69.7909 17 68.3428 17H11.6571C10.2091 17 9 18.2104 9 19.6358V61.3643C9 62.7896 10.2091 64 11.6571 64ZM11.6571 65H68.3428C70.4208 65 72 63.3474 72 61.3643V19.6358C72 17.6526 70.3377 16 68.3428 16H11.6571C9.66233 16 8 17.6526 8 19.6358V61.3643C8 63.3474 9.66233 65 11.6571 65Z" fill="#333333"/>
<path d="M68.2597 16H11.6572C9.66235 16 8 17.6667 8 19.6667V25H72V19.6667C71.9169 17.6667 70.2545 16 68.2597 16Z" fill="url(#paint0_linear)"/>
<path fill-rule="evenodd" clip-rule="evenodd" d="M68.2597 17H11.6572C10.2171 17 9 18.2165 9 19.6667V24H71V19.689C70.9282 18.2068 69.686 17 68.2597 17ZM72 19.6667V25H8V19.6667C8 17.6667 9.66235 16 11.6572 16H68.2597C70.2545 16 71.9169 17.6667 72 19.6667Z" fill="#333333"/>
<path d="M12.5 22C13.3284 22 14 21.3284 14 20.5C14 19.6716 13.3284 19 12.5 19C11.6716 19 11 19.6716 11 20.5C11 21.3284 11.6716 22 12.5 22Z" fill="white"/>
<path d="M17.5 22C18.3284 22 19 21.3284 19 20.5C19 19.6716 18.3284 19 17.5 19C16.6716 19 16 19.6716 16 20.5C16 21.3284 16.6716 22 17.5 22Z" fill="white"/>
<path d="M22.5 22C23.3284 22 24 21.3284 24 20.5C24 19.6716 23.3284 19 22.5 19C21.6716 19 21 19.6716 21 20.5C21 21.3284 21.6716 22 22.5 22Z" fill="white"/>
<path d="M19.6667 38.8483L15 36.8103V36.19L19.6667 33.8862V34.7723L16.2327 36.4558L19.6667 37.8736V38.8483Z" fill="#333333"/>
<path d="M23.8052 33L21.2517 40H20.1951L22.7486 33H23.8052Z" fill="#333333"/>
<path d="M24.3334 37.9623L27.7674 36.5446L24.3334 34.8611V33.975L29.0001 36.2788V36.899L24.3334 38.937V37.9623Z" fill="#333333"/>
<path fill-rule="evenodd" clip-rule="evenodd" d="M32 31.4957C32 31.2196 32.2239 30.9957 32.5 30.9957H64.5C64.7761 30.9957 65 31.2196 65 31.4957C65 31.7719 64.7761 31.9957 64.5 31.9957H32.5C32.2239 31.9957 32 31.7719 32 31.4957Z" fill="#333333"/>
<path fill-rule="evenodd" clip-rule="evenodd" d="M32 36.5C32 36.2239 32.2239 36 32.5 36H64.5C64.7761 36 65 36.2239 65 36.5C65 36.7761 64.7761 37 64.5 37H32.5C32.2239 37 32 36.7761 32 36.5Z" fill="#333333"/>
<path fill-rule="evenodd" clip-rule="evenodd" d="M32 41.5C32 41.2239 32.2239 41 32.5 41H64.5C64.7761 41 65 41.2239 65 41.5C65 41.7761 64.7761 42 64.5 42H32.5C32.2239 42 32 41.7761 32 41.5Z" fill="#333333"/>
<path fill-rule="evenodd" clip-rule="evenodd" d="M16 47.5C16 47.2239 16.2196 47 16.4904 47H40.5096C40.7804 47 41 47.2239 41 47.5C41 47.7761 40.7804 48 40.5096 48H16.4904C16.2196 48 16 47.7761 16 47.5Z" fill="#333333"/>
<path fill-rule="evenodd" clip-rule="evenodd" d="M16 52.5C16 52.2239 16.2282 52 16.5097 52H30.4903C30.7718 52 31 52.2239 31 52.5C31 52.7761 30.7718 53 30.4903 53H16.5097C16.2282 53 16 52.7761 16 52.5Z" fill="#333333"/>
<path fill-rule="evenodd" clip-rule="evenodd" d="M35.5 52.506C35.5 52.2298 35.7239 52.006 36 52.006H64C64.2761 52.006 64.5 52.2298 64.5 52.506C64.5 52.7821 64.2761 53.006 64 53.006H36C35.7239 53.006 35.5 52.7821 35.5 52.506Z" fill="#333333"/>
<path fill-rule="evenodd" clip-rule="evenodd" d="M16 57.5C16 57.2239 16.2239 57 16.5 57H64.5C64.7761 57 65 57.2239 65 57.5C65 57.7761 64.7761 58 64.5 58H16.5C16.2239 58 16 57.7761 16 57.5Z" fill="#333333"/>
<defs>
<linearGradient id="paint0_linear" x1="7.94913" y1="20.4878" x2="71.9235" y2="20.4878" gradientUnits="userSpaceOnUse">
<stop stop-color="#FF8E3D"/>
<stop offset="1" stop-color="#FF6F3D"/>
</linearGradient>
</defs>
</svg>
