<svg width="32" height="33" viewBox="0 0 32 33" fill="none" xmlns="http://www.w3.org/2000/svg">
<path d="M30.2078 13.5189C30.1243 13.4469 29.373 12.856 27.759 12.856C27.3416 12.856 26.9102 12.8992 26.4928 12.9713C26.1867 10.7663 24.4197 9.69987 24.3501 9.64222L23.9188 9.38282L23.6405 9.80075C23.2926 10.3628 23.0283 10.9969 22.8752 11.6454C22.583 12.8992 22.7639 14.081 23.3761 15.0898C22.6387 15.5221 21.4421 15.623 21.1917 15.6374L1.43404 15.6374C0.919229 15.6374 0.501815 16.0698 0.501815 16.603C0.473987 18.39 0.766177 20.177 1.36447 21.8632C2.04625 23.7079 3.06196 25.077 4.36985 25.9128C5.84472 26.8496 8.25181 27.3828 10.965 27.3828C12.1894 27.3828 13.4138 27.2675 14.6243 27.0369C16.3079 26.7199 17.9219 26.1146 19.4107 25.2355C20.6351 24.5005 21.7343 23.5638 22.6665 22.4685C24.2388 20.6382 25.171 18.5918 25.8528 16.7759L26.1311 16.7759C27.8425 16.7759 28.8999 16.0698 29.4843 15.4645C29.8739 15.0898 30.1661 14.6286 30.3748 14.1098L30.5 13.7351L30.2078 13.5189Z" fill="#0091E2"/>
<path d="M2.75215 15.3828L5.57026 15.3828C5.70375 15.3828 5.8224 15.2815 5.8224 15.1368L5.8224 12.6766C5.8224 12.5463 5.71858 12.4306 5.57026 12.4306L2.75215 12.4306C2.61866 12.4306 2.5 12.5319 2.5 12.6766L2.5 15.1368C2.51483 15.2815 2.61866 15.3828 2.75215 15.3828ZM6.63817 15.3828L9.45628 15.3828C9.58977 15.3828 9.70843 15.2815 9.70843 15.1368L9.70843 12.6766C9.70843 12.5463 9.60461 12.4306 9.45628 12.4306L6.63817 12.4306C6.50468 12.4306 6.38603 12.5319 6.38603 12.6766L6.38603 15.1368C6.40086 15.2815 6.50468 15.3828 6.63817 15.3828ZM10.5984 15.3828L13.4165 15.3828C13.55 15.3828 13.6686 15.2815 13.6686 15.1368L13.6686 12.6766C13.6686 12.5463 13.5648 12.4306 13.4165 12.4306L10.5984 12.4306C10.4649 12.4306 10.3462 12.5319 10.3462 12.6766L10.3462 15.1368C10.3462 15.2815 10.45 15.3828 10.5984 15.3828ZM14.4992 15.3828L17.3173 15.3828C17.4508 15.3828 17.5695 15.2815 17.5695 15.1368L17.5695 12.6766C17.5695 12.5463 17.4657 12.4306 17.3173 12.4306L14.4992 12.4306C14.3657 12.4306 14.2471 12.5319 14.2471 12.6766L14.2471 15.1368C14.2471 15.2815 14.3657 15.3828 14.4992 15.3828ZM6.63817 11.8662L9.45628 11.8662C9.58977 11.8662 9.70843 11.7504 9.70843 11.6201L9.70843 9.15995C9.70843 9.0297 9.60461 8.91393 9.45628 8.91393L6.63817 8.91393C6.50468 8.91393 6.38603 9.01523 6.38603 9.15995L6.38603 11.6201C6.40086 11.7504 6.50468 11.8662 6.63817 11.8662ZM10.5984 11.8662L13.4165 11.8662C13.55 11.8662 13.6686 11.7504 13.6686 11.6202L13.6686 9.15995C13.6686 9.0297 13.5648 8.91393 13.4165 8.91393L10.5984 8.91393C10.4649 8.91393 10.3462 9.01523 10.3462 9.15995L10.3462 11.6201C10.3462 11.7504 10.45 11.8662 10.5984 11.8662ZM14.4992 11.8662L17.3173 11.8662C17.4508 11.8662 17.5695 11.7504 17.5695 11.6202L17.5695 9.15995C17.5695 9.0297 17.4508 8.91393 17.3173 8.91393L14.4992 8.91393C14.3657 8.91393 14.2471 9.01523 14.2471 9.15995L14.2471 11.6202C14.2471 11.7504 14.3657 11.8662 14.4992 11.8662ZM14.4992 8.33506L17.3173 8.33506C17.4508 8.33506 17.5695 8.23376 17.5695 8.08904L17.5695 5.62884C17.5695 5.49859 17.4508 5.38282 17.3173 5.38282L14.4992 5.38281C14.3657 5.38281 14.2471 5.48412 14.2471 5.62884L14.2471 8.08904C14.2471 8.21928 14.3657 8.33506 14.4992 8.33506ZM18.4297 15.3828L21.2479 15.3828C21.3813 15.3828 21.5 15.2815 21.5 15.1368L21.5 12.6766C21.5 12.5463 21.3962 12.4306 21.2479 12.4306L18.4297 12.4306C18.2963 12.4306 18.1776 12.5319 18.1776 12.6766L18.1776 15.1368C18.1924 15.2815 18.2963 15.3828 18.4297 15.3828Z" fill="#0091E2"/>
</svg>
