<svg width="48" height="48" viewBox="0 0 48 48" fill="none" xmlns="http://www.w3.org/2000/svg">
<path d="M40.5 45.5H11C9.61929 45.5 8.5 44.3807 8.5 43V5C8.5 3.61929 9.61929 2.5 11 2.5H31.7929L40.5 11.2071V45.5Z" fill="white" stroke="#333333"/>
<path d="M32.5 3.20711L39.7929 10.5H32.5V3.20711Z" fill="url(#paint0_linear_1266_15965)" stroke="#333333" stroke-linecap="round" stroke-linejoin="round"/>
<rect x="14" y="10" width="14" height="1" rx="0.5" fill="#333333"/>
<rect x="14" y="18" width="9" height="1" rx="0.5" fill="#333333"/>
<rect x="14" y="22" width="9" height="1" rx="0.5" fill="#333333"/>
<rect x="14" y="26" width="9" height="1" rx="0.5" fill="#333333"/>
<rect x="14" y="30" width="9" height="1" rx="0.5" fill="#333333"/>
<rect x="14" y="14" width="21" height="1" rx="0.5" fill="#333333"/>
<rect x="40" y="42" width="26" height="1" transform="rotate(-90 40 42)" fill="white"/>
<path d="M45.5 40C45.5 39.9006 45.4704 39.8035 45.4149 39.721C42.8945 35.9733 39.247 33.5 35 33.5C30.8426 33.5 27.1068 35.9712 24.5851 39.721C24.5296 39.8035 24.5 39.9006 24.5 40V45C24.5 45.2761 24.7239 45.5 25 45.5H45C45.2761 45.5 45.5 45.2761 45.5 45V40Z" fill="#BDECFF" stroke="#333333" stroke-miterlimit="10" stroke-linecap="round" stroke-linejoin="round"/>
<path d="M32.5 29.5H37.5V33.691L35 34.941L32.5 33.691V29.5Z" fill="#F5F5F5" stroke="#333333"/>
<path d="M35 31.5C38.5898 31.5 41.5 28.5899 41.5 25C41.5 21.4101 38.5898 18.5 35 18.5C31.4102 18.5 28.5 21.4101 28.5 25C28.5 28.5899 31.4102 31.5 35 31.5Z" fill="white" stroke="#333333" stroke-miterlimit="10" stroke-linecap="round" stroke-linejoin="round"/>
<path d="M41 25.4382C41.1356 25.4382 41.2653 25.3831 41.3595 25.2856C41.4538 25.1881 41.5043 25.0566 41.4997 24.9211C41.3799 21.4164 38.5053 18.5 35 18.5C31.3866 18.5 28.5 21.4168 28.5 25.0502V25.0515V25.0528V25.0541V25.0555V25.0568V25.0581V25.0594V25.0607V25.062V25.0633V25.0646V25.066V25.0673V25.0686V25.0699V25.0712V25.0725V25.0738V25.0752V25.0765V25.0778V25.0791V25.0804V25.0817V25.083V25.0844V25.0857V25.087V25.0883V25.0896V25.0909V25.0922V25.0936V25.0949V25.0962V25.0975V25.0988V25.1001V25.1015V25.1028V25.1041V25.1054V25.1067V25.108V25.1094V25.1107V25.112V25.1133V25.1146V25.116V25.1173V25.1186V25.1199V25.1212V25.1226V25.1239V25.1252V25.1265V25.1278V25.1292V25.1305V25.1318V25.1331V25.1344V25.1358V25.1371V25.1384V25.1397V25.1411V25.1424V25.1437V25.145V25.1464V25.1477V25.149V25.1504V25.1517V25.153V25.1543V25.1557V25.157V25.1583V25.1597V25.161V25.1623V25.1636V25.165V25.1663V25.1676V25.169V25.1703V25.1716V25.173V25.1743V25.1756V25.177V25.1783V25.1797V25.181V25.1823V25.1837V25.185V25.1863V25.1877V25.189V25.1904V25.1917V25.1931V25.1944V25.1957V25.1971V25.1984V25.1998V25.2011V25.2025V25.2038V25.2052V25.2065V25.2079V25.2092V25.2105V25.2119V25.2133V25.2146V25.216V25.2173V25.2187V25.22V25.2214V25.2227V25.2241V25.2254V25.2268V25.2281V25.2295V25.2309V25.2322V25.2336V25.2349V25.2363V25.2377V25.239V25.2404V25.2418V25.2431V25.2445V25.2459V25.2472V25.2486V25.25V25.2513V25.2527V25.2541V25.2554V25.2568V25.2582V25.2596V25.2609V25.2623V25.2637V25.2651V25.2665V25.2678V25.2692V25.2706V25.272V25.2734V25.2747V25.2761V25.2775V25.2789V25.2803V25.2817V25.2831V25.2844V25.2858V25.2872V25.2886V25.29V25.2914V25.2928V25.2942V25.2956V25.297V25.2984V25.2998V25.3012V25.3026V25.304V25.3054V25.3068V25.3082V25.3096V25.311V25.3124V25.3138V25.3152V25.3166V25.3181V25.3195V25.3209V25.3223V25.3237V25.3251V25.3266V25.328V25.3294V25.3308V25.3322V25.3337V25.3351V25.3365V25.3379V25.3394V25.3408V25.3422V25.3436V25.3451V25.3465V25.3479V25.3494V25.3508V25.3523V25.3537V25.3551V25.3566V25.358V25.3595V25.3609V25.3623V25.3638V25.3652V25.3667V25.3681V25.3696V25.371V25.3725V25.3739V25.3754V25.3769V25.3783V25.3798V25.3812V25.3827V25.3842V25.3856V25.3871V25.3886V25.39V25.3915V25.393V25.3944V25.3959V25.3974V25.3989V25.4003V25.4018V25.4033V25.4048V25.4062V25.4077V25.4092V25.4107V25.4122V25.4137V25.4152V25.4167V25.4181V25.4196V25.4211V25.4226V25.4241V25.4256V25.4271V25.4286V25.4301V25.4316V25.4331V25.4346V25.4362V25.4377V25.4392V25.4407V25.4422V25.4437V25.4452V25.4468V25.4483V25.4498V25.4513V25.4528V25.4544V25.4559V25.4574V25.459V25.4605V25.462V25.4636V25.4651V25.4666V25.4682V25.4697V25.4713V25.4728V25.4743V25.4759V25.4774V25.479V25.4805V25.4821V25.4836V25.4852V25.4868V25.4883V25.4899V25.4914V25.493V25.4946V25.4961V25.4977V25.4993V25.5008V25.5024V25.504V25.5056V25.5072V25.5087V25.5103V25.5119V25.5135V25.5151V25.5167V25.5182V25.5198V25.5214V25.523V25.5246V25.5262V25.5278V25.5294V25.531V25.5326V25.5342V25.5358V25.5375V25.5391V25.5407V25.5423V25.5439V25.5455V25.5472V25.5488V25.5504V25.552V25.5537V25.5553V25.5569V25.5585V25.5602V25.5618V25.5635V25.5651V25.5667V25.5684V25.57V25.5717V25.5733V25.575V25.5766V25.5783V25.5799V25.5816V25.5833V25.5849V25.5866V25.5883V25.5899V25.5916V25.5933V25.5949V25.5966V25.5983V25.6V25.6017V25.6033V25.605V25.6067V25.6084V25.6101V25.6118V25.6135V25.6152V25.6169V25.6186V25.6203V25.622V25.6237V25.6254V25.6271V25.6288V25.6305V25.6322V25.634V25.6357V25.6374V25.6391V25.6409V25.6426V25.6443V25.6461V25.6478V25.6495V25.6513V25.653V25.6547V25.6565V25.6582V25.66V25.6617V25.6635V25.6653V25.667V25.6688V25.6705V25.6723V25.6741V25.6758V25.6776V25.6794V25.6812V25.6829V25.6847V25.6865V25.6883V25.6901V25.6918V25.6936V25.6954V25.6972V25.699V25.7008V25.7026V25.7044V25.7062V25.708V25.7098V25.7117V25.7135V25.7153V25.7171V25.7189V25.7208V25.7226V25.7244V25.7262V25.7281V25.7299V25.7317V25.7336V25.7354V25.7373V25.7391V25.741V25.7428V25.7447V25.7465V25.7484V25.7502V25.7521V25.754V25.7558V25.7577V25.7596V25.7615V25.7633V25.7652V25.7671V25.769V25.7709V25.7727V25.7746V25.7765V25.7784V25.7803V25.7822V25.7841V25.786V25.7879V25.7899V25.7918V25.7937V25.7956V25.7975V25.7994V25.8014V25.8033V25.8052V25.8072V25.8091V25.811V25.813V25.8149V25.8169V25.8188V25.8208V25.8227V25.8247V25.8266V25.8286V25.8306V25.8325V25.8345C28.5 26.0636 28.6557 26.2633 28.8778 26.3193C30.4175 26.7075 32.2566 26.1556 33.7638 25.1871C34.9073 24.4524 35.9334 23.4313 36.5398 22.2755C36.9616 23.1163 37.4083 23.8097 37.9553 24.3294C38.7496 25.0838 39.7165 25.4382 41 25.4382Z" fill="#AAAAAA" stroke="#333333" stroke-linecap="round" stroke-linejoin="round"/>
<path d="M32.5664 45.5L33.4414 38.5H36.5586L37.4336 45.5H32.5664Z" fill="url(#paint1_linear_1266_15965)" stroke="#333333"/>
<path d="M32.5705 37.7794L33.3904 34.5H36.6096L37.4295 37.7794L35 39.3991L32.5705 37.7794Z" fill="url(#paint2_linear_1266_15965)" stroke="#333333"/>
<rect x="19" y="45" width="5" height="1" fill="white"/>
<defs>
<linearGradient id="paint0_linear_1266_15965" x1="36.5" y1="2" x2="36.5" y2="11" gradientUnits="userSpaceOnUse">
<stop stop-color="#FF8E3D"/>
<stop offset="1" stop-color="#FF6F3D"/>
</linearGradient>
<linearGradient id="paint1_linear_1266_15965" x1="35" y1="38" x2="35" y2="46" gradientUnits="userSpaceOnUse">
<stop stop-color="#FF8E3D"/>
<stop offset="1" stop-color="#FF6F3D"/>
</linearGradient>
<linearGradient id="paint2_linear_1266_15965" x1="35" y1="34" x2="35" y2="40" gradientUnits="userSpaceOnUse">
<stop stop-color="#FF8E3D"/>
<stop offset="1" stop-color="#FF6F3D"/>
</linearGradient>
</defs>
</svg>
