<svg width="48" height="48" viewBox="0 0 48 48" fill="none" xmlns="http://www.w3.org/2000/svg">
<path d="M40.5 44C40.5 44.8284 39.8284 45.5 39 45.5H10C9.17157 45.5 8.5 44.8284 8.5 44V4C8.5 3.17157 9.17157 2.5 10 2.5H31.1716C31.5694 2.5 31.9509 2.65804 32.2322 2.93934L40.0607 10.7678C40.342 11.0491 40.5 11.4306 40.5 11.8284V44Z" fill="white" stroke="#333333"/>
<path d="M32.5 3.20711L39.7929 10.5H32.5V3.20711Z" fill="url(#paint0_linear_650_2352)" stroke="#333333" stroke-linecap="round" stroke-linejoin="round"/>
<rect x="14" y="10" width="14" height="1" rx="0.5" fill="#333333"/>
<rect x="14" y="18" width="21" height="1" rx="0.5" fill="#333333"/>
<rect x="14" y="22" width="14" height="1" rx="0.5" fill="#333333"/>
<rect x="14" y="26" width="9" height="1" rx="0.5" fill="#333333"/>
<rect x="14" y="30" width="9" height="1" rx="0.5" fill="#333333"/>
<rect x="14" y="14" width="21" height="1" rx="0.5" fill="#333333"/>
<rect x="40" y="42" width="19" height="1" transform="rotate(-90 40 42)" fill="white"/>
<mask id="path-10-inside-1_650_2352" fill="white">
<path fill-rule="evenodd" clip-rule="evenodd" d="M43 40H28C25.7909 40 24 38.2091 24 36C24 33.7909 25.7909 32 28 32C28.3457 32 28.6812 32.0439 29.0011 32.1263C29.0004 32.0843 29 32.0422 29 32C29 28.134 32.134 25 36 25C39.174 25 41.8546 27.1125 42.7125 30.0081C42.8077 30.0027 42.9035 30 43 30C45.7614 30 48 32.2386 48 35C48 37.7614 45.7614 40 43 40Z"/>
</mask>
<path fill-rule="evenodd" clip-rule="evenodd" d="M43 40H28C25.7909 40 24 38.2091 24 36C24 33.7909 25.7909 32 28 32C28.3457 32 28.6812 32.0439 29.0011 32.1263C29.0004 32.0843 29 32.0422 29 32C29 28.134 32.134 25 36 25C39.174 25 41.8546 27.1125 42.7125 30.0081C42.8077 30.0027 42.9035 30 43 30C45.7614 30 48 32.2386 48 35C48 37.7614 45.7614 40 43 40Z" fill="white"/>
<path d="M29.0011 32.1263L28.7516 33.0947L30.0242 33.4226L30.001 32.1086L29.0011 32.1263ZM42.7125 30.0081L41.7537 30.2922L41.9787 31.0513L42.7691 31.0065L42.7125 30.0081ZM43 39H28V41H43V39ZM23 36C23 38.7614 25.2386 41 28 41V39C26.3431 39 25 37.6569 25 36H23ZM28 31C25.2386 31 23 33.2386 23 36H25C25 34.3431 26.3431 33 28 33V31ZM29.2507 31.1579C28.8499 31.0547 28.4306 31 28 31V33C28.2608 33 28.5124 33.033 28.7516 33.0947L29.2507 31.1579ZM28 32C28 32.0481 28.0004 32.0961 28.0013 32.144L30.001 32.1086C30.0003 32.0725 30 32.0363 30 32H28ZM36 24C31.5817 24 28 27.5817 28 32H30C30 28.6863 32.6863 26 36 26V24ZM43.6713 29.724C42.691 26.4154 39.6289 24 36 24V26C38.7191 26 41.0181 27.8095 41.7537 30.2922L43.6713 29.724ZM43 29C42.8846 29 42.7699 29.0033 42.6559 29.0097L42.7691 31.0065C42.8454 31.0022 42.9224 31 43 31V29ZM49 35C49 31.6863 46.3137 29 43 29V31C45.2091 31 47 32.7909 47 35H49ZM43 41C46.3137 41 49 38.3137 49 35H47C47 37.2091 45.2091 39 43 39V41Z" fill="#333333" mask="url(#path-10-inside-1_650_2352)"/>
<defs>
<linearGradient id="paint0_linear_650_2352" x1="36.5" y1="2" x2="36.5" y2="11" gradientUnits="userSpaceOnUse">
<stop stop-color="#FF8E3D"/>
<stop offset="1" stop-color="#FF6F3D"/>
</linearGradient>
</defs>
</svg>
