<svg width="48" height="48" viewBox="0 0 48 48" fill="none" xmlns="http://www.w3.org/2000/svg">
<path d="M40.5 45.5H11C9.61929 45.5 8.5 44.3807 8.5 43V5C8.5 3.61929 9.61929 2.5 11 2.5H31.7929L40.5 11.2071V45.5Z" fill="white" stroke="#333333"/>
<path d="M32.5 3.20711L39.7929 10.5H32.5V3.20711Z" fill="url(#paint0_linear_650_2393)" stroke="#333333" stroke-linecap="round" stroke-linejoin="round"/>
<rect x="14" y="10" width="14" height="1" rx="0.5" fill="#333333"/>
<rect x="14" y="18" width="21" height="1" rx="0.5" fill="#333333"/>
<rect x="14" y="22" width="21" height="1" rx="0.5" fill="#333333"/>
<rect x="14" y="14" width="21" height="1" rx="0.5" fill="#333333"/>
<rect x="40" y="42" width="23" height="1" transform="rotate(-90 40 42)" fill="white"/>
<rect x="14" y="45" width="6" height="1" fill="white"/>
<path d="M45 45.5H45.5V45V29C45.5 27.6193 44.3807 26.5 43 26.5H23C21.6193 26.5 20.5 27.6193 20.5 29V45V45.5H21H45Z" fill="white" stroke="#333333"/>
<path d="M45 30.5H45.5V30V29C45.5 27.6193 44.3807 26.5 43 26.5H23C21.6193 26.5 20.5 27.6193 20.5 29V30V30.5H21H45Z" fill="url(#paint1_linear_650_2393)" stroke="#333333"/>
<path d="M30.7672 40.7503L25 38.054V37.1737L30.7672 34.1204V35.5978L26.7946 37.5492L30.7672 39.2791V40.7503Z" fill="#333333"/>
<path d="M35.9015 33L32.7363 42H31.1275L34.2928 33H35.9015Z" fill="#333333"/>
<path d="M36.2328 39.2791L40.2054 37.5492L36.2328 35.5978V34.1204L42 37.1737V38.054L36.2328 40.7503V39.2791Z" fill="#333333"/>
<defs>
<linearGradient id="paint0_linear_650_2393" x1="36.5" y1="2" x2="36.5" y2="11" gradientUnits="userSpaceOnUse">
<stop stop-color="#FF8E3D"/>
<stop offset="1" stop-color="#FF6F3D"/>
</linearGradient>
<linearGradient id="paint1_linear_650_2393" x1="33" y1="27" x2="33" y2="30" gradientUnits="userSpaceOnUse">
<stop stop-color="#FF8E3D"/>
<stop offset="1" stop-color="#FF6F3D"/>
</linearGradient>
</defs>
</svg>
