<svg width="24" height="24" viewBox="0 0 24 24" fill="none" xmlns="http://www.w3.org/2000/svg">
<path d="M19.3909 3.1892C17.3922 1.51082 14.8142 0.5 12 0.5C5.64873 0.5 0.5 5.64873 0.5 12C0.5 18.3513 5.64873 23.5 12 23.5C18.3513 23.5 23.5 18.3513 23.5 12C23.5 10.2899 23.1267 8.66703 22.4573 7.20833" stroke="#333333" stroke-linecap="round"/>
<path d="M11.4085 5C13.65 5.01208 15.6478 6.74592 15.9585 8.95702C16.2143 10.7754 15.2702 12.6301 13.6195 13.5242C13.2541 13.7236 12.9617 13.9592 12.8825 14.3821C12.8521 14.5452 12.8582 14.7143 12.8216 14.8714C12.6815 15.5541 12.0237 16.0555 11.3476 15.9951C10.5801 15.9286 9.9954 15.3728 9.98931 14.6418C9.97713 13.0832 10.6776 11.9112 12.0359 11.1379C12.511 10.866 12.8947 10.5459 13.047 10.0082C13.2845 9.16242 12.7851 8.25623 11.9141 7.96021C11.1222 7.68231 10.2147 8.09312 9.8614 8.88452C9.75785 9.11409 9.64212 9.35574 9.47766 9.54302C9.02084 10.0505 8.3021 10.1351 7.71128 9.79675C7.13263 9.4524 6.85245 8.77578 7.07781 8.14145C7.693 6.43178 8.89902 5.39268 10.708 5.07249C10.9395 5.03021 11.1771 5.02416 11.4085 5ZM15.0509 9.53698C15.0509 9.40407 15.0631 9.26512 15.0509 9.13221C14.7707 6.93924 12.5353 5.45309 10.4096 6.0693C9.21575 6.41365 8.40565 7.19297 7.97319 8.35289C7.85746 8.661 7.98537 8.94493 8.25338 9.04159C8.53356 9.14429 8.80766 9.01139 8.93557 8.71537C8.95384 8.66704 8.97211 8.61871 8.99039 8.57038C9.51421 7.30171 10.9578 6.64322 12.2369 7.09631C13.5891 7.57357 14.3322 8.9993 13.9058 10.3284C13.6683 11.0715 13.1505 11.5668 12.4683 11.9414C11.4451 12.5093 10.9273 13.3973 10.8969 14.5633C10.8908 14.8351 11.0918 15.0466 11.3476 15.0708C11.6461 15.0949 11.8653 14.9318 11.9141 14.6418C11.9384 14.4848 11.9384 14.3277 11.9689 14.1706C12.1151 13.5 12.5414 13.059 13.1383 12.7268C14.4053 12.0381 15.0205 10.9506 15.0509 9.53698Z" fill="#FF6F3D"/>
<circle cx="11.5" cy="18.5" r="1" stroke="#FF6F3D"/>
</svg>
