<svg width="48" height="48" viewBox="0 0 48 48" fill="none" xmlns="http://www.w3.org/2000/svg">
<path d="M40.5 43C40.5 44.3807 39.3807 45.5 38 45.5H11C9.61929 45.5 8.5 44.3807 8.5 43V5C8.5 3.61929 9.61929 2.5 11 2.5H31.7929L40.5 11.2071V43Z" fill="white" stroke="#333333"/>
<path d="M32.5 3.20711L39.7929 10.5H32.5V3.20711Z" fill="#27ABA3" stroke="#333333" stroke-linecap="round" stroke-linejoin="round"/>
<rect x="14" y="8" width="14" height="1" rx="0.5" fill="#333333"/>
<rect x="14" y="12" width="14" height="1" rx="0.5" fill="#333333"/>
<rect x="14" y="22" width="21" height="1" rx="0.5" fill="#333333"/>
<rect x="14" y="31" width="21" height="1" rx="0.5" fill="#333333"/>
<rect x="14" y="40" width="21" height="1" rx="0.5" fill="#333333"/>
<rect x="20" y="35" width="4" height="1" rx="0.5" fill="#333333"/>
<rect x="31" y="35" width="4" height="1" rx="0.5" fill="#333333"/>
<rect x="14" y="16" width="21" height="4" rx="1" fill="#27ABA3"/>
<rect x="14" y="34" width="4" height="4" rx="1" fill="#27ABA3"/>
<rect x="25" y="34" width="4" height="4" rx="1" fill="#27ABA3"/>
<rect x="14.5" y="25.5" width="20" height="3" rx="0.5" stroke="#27ABA3"/>
</svg>
