<svg width="24" height="24" viewBox="0 0 24 24" fill="none" xmlns="http://www.w3.org/2000/svg">
<path d="M21.5 13.5V1.5C21.5 0.947715 21.0523 0.5 20.5 0.5H6.5C4.29086 0.5 2.5 2.29086 2.5 4.5V19.5C2.5 21.7091 4.29086 23.5 6.5 23.5H19" stroke="#333333" stroke-linecap="round"/>
<path d="M4.5 19C4.5 17.6193 5.61929 16.5 7 16.5H21C21.2761 16.5 21.5 16.7239 21.5 17V21C21.5 21.2761 21.2761 21.5 21 21.5H7C5.61929 21.5 4.5 20.3807 4.5 19Z" stroke="#FF6F3D"/>
<path d="M6.5 10.5L7.33333 8.5M11.5 10.5L10.6667 8.5M7.33333 8.5L8.90769 4.72154C8.94188 4.63949 9.05812 4.63949 9.09231 4.72154L10.6667 8.5M7.33333 8.5H10.6667" stroke="#FF6F3D" stroke-linecap="round"/>
<path d="M13.5 7.5H17.3131C17.393 7.5 17.4407 7.58901 17.3964 7.65547L13.6036 13.3445C13.5593 13.411 13.607 13.5 13.6869 13.5H17.5" stroke="#FF6F3D" stroke-linecap="round"/>
</svg>
