<svg width="16" height="16" viewBox="0 0 16 16" fill="none" xmlns="http://www.w3.org/2000/svg">
<path d="M7.91709 0.000276259C8.14595 0.0629199 8.38358 0.104265 8.60199 0.192384C9.2727 0.463004 9.68113 0.987959 9.9363 1.64321C10.2458 2.4367 10.3439 3.27194 10.3176 4.11179C10.2909 4.96332 10.612 5.64071 11.1808 6.24167C12.3861 7.51751 12.9812 9.04351 13.0008 10.7959C13.0029 10.9479 12.9946 11.0853 13.1186 11.2231C13.2677 11.3901 13.281 11.6223 13.256 11.8466C13.2514 11.9446 13.2406 12.0423 13.2238 12.1389C13.1708 12.3569 13.2656 12.4923 13.4418 12.6046C13.6181 12.7169 13.7893 12.8226 13.9325 12.9629C14.072 13.0923 14.184 13.2486 14.2616 13.4223C14.3923 13.748 14.2875 14.0383 13.9835 14.2129C13.7571 14.3392 13.5194 14.444 13.2735 14.5261C12.8665 14.6602 12.506 14.9073 12.2341 15.2385C11.8002 15.7656 11.2226 16.017 10.5431 15.9903C10.1881 15.9769 9.9079 15.7986 9.768 15.4536C9.73041 15.3617 9.68447 15.3283 9.5855 15.3283C8.87554 15.335 8.1685 15.3258 7.46021 15.3409C6.9173 15.3521 6.40655 15.5192 5.915 15.7422C5.90516 15.7456 5.89597 15.7507 5.88786 15.7572C5.62601 16.0308 5.30318 16.0287 4.97368 15.9402C4.64417 15.8516 4.3201 15.7618 4.01314 15.6249C3.63478 15.4549 3.26142 15.3208 2.83921 15.2995C2.48423 15.2816 2.12924 15.1997 1.78345 15.1062C1.58425 15.0519 1.39256 14.9366 1.223 14.8138C1.13231 14.749 1.06416 14.6574 1.02807 14.5519C0.991975 14.4464 0.989751 14.3322 1.02171 14.2254C1.13739 13.7994 1.10523 13.3818 1.03298 12.9575C0.941106 12.4146 1.10899 12.1352 1.64021 11.966C1.84902 11.9001 2.06326 11.8587 2.27667 11.8128C2.39109 11.7877 2.4575 11.7326 2.47337 11.6102C2.51847 11.2594 2.66339 10.9663 2.96658 10.7599C3.01168 10.729 3.02881 10.6451 3.04301 10.5816C3.36374 9.14792 3.84735 7.77226 4.54645 6.47888C4.85173 5.91801 5.13488 5.34587 5.23929 4.7069C5.30778 4.28928 5.33116 3.85996 5.35246 3.43482C5.38504 2.77288 5.43599 2.11471 5.64146 1.4795C5.78679 1.02596 6.00479 0.61669 6.40905 0.334376C6.66338 0.156468 6.95196 0.0758661 7.25307 0.0341037C7.3082 0.0261689 7.36249 0.0111345 7.41678 -0.000976562L7.91709 0.000276259ZM8.89308 5.20429C8.82417 5.24104 8.76779 5.26777 8.716 5.29867C8.20827 5.59612 7.66205 5.82236 7.0927 5.97105C7.04931 5.98622 7.00295 5.99094 6.95739 5.98483C6.60619 5.90552 6.27618 5.75155 5.98976 5.53338L5.80016 5.38721C5.62642 5.77059 5.47942 6.14353 5.29358 6.49642C4.63601 7.7327 4.1333 9.0453 3.79682 10.4045C3.73584 10.6526 3.68239 10.879 3.93672 11.0502C3.95267 11.0637 3.96513 11.0809 3.97305 11.1003C4.14219 11.4273 4.31509 11.7522 4.47796 12.0821C4.68322 12.51 4.97336 12.8917 5.33075 13.2039C5.5287 13.3755 5.69617 13.5864 5.85486 13.7965C5.93004 13.8959 5.99936 13.9564 6.12381 13.9694C6.79535 14.0387 7.46439 14.0421 8.1305 13.9189C8.70055 13.8128 9.23803 13.6265 9.6757 13.2298C9.72672 13.1818 9.75948 13.1176 9.76842 13.0481C9.80833 12.4175 9.98914 11.8038 10.2975 11.2523C10.3299 11.1877 10.3443 11.1156 10.3393 11.0435C10.3088 10.509 10.2938 9.97189 10.2328 9.43984C10.0866 8.16399 9.71538 6.94871 9.17748 5.78395C9.08978 5.59143 8.99372 5.40392 8.89308 5.20429ZM3.30151 11.3434L3.24221 11.3375C3.19325 11.476 3.15143 11.6169 3.11692 11.7597C3.0334 12.1857 2.75777 12.3958 2.35309 12.4751C2.18933 12.5035 2.0272 12.5406 1.86739 12.5862C1.64355 12.6539 1.64355 12.6618 1.68531 12.8965C1.76382 13.3296 1.8106 13.7622 1.71663 14.1987C1.66861 14.4192 1.67487 14.4547 1.89746 14.5031C2.21152 14.5716 2.53142 14.6155 2.84965 14.6652C3.13864 14.7103 3.44351 14.6464 3.72248 14.7842C3.86698 14.856 4.01857 14.9128 4.16182 14.9859C4.49471 15.1591 4.85424 15.2754 5.22551 15.33C5.41761 15.3572 5.49362 15.31 5.5216 15.1137C5.55225 14.9253 5.5435 14.7326 5.49592 14.5478C5.44833 14.363 5.36294 14.1901 5.24513 14.04C5.11358 13.8704 4.93233 13.7393 4.77322 13.5914C4.3432 13.2017 4.00855 12.7183 3.79514 12.1786C3.67654 11.8725 3.52745 11.5835 3.30151 11.3417V11.3434ZM12.5594 12.4058C11.8628 12.767 11.2071 12.8581 10.5761 12.326C10.5677 12.3678 10.5544 12.4129 10.5494 12.4588C10.4934 12.9763 10.4337 13.4929 10.3857 14.0107C10.3548 14.3419 10.3318 14.6743 10.3226 15.0072C10.3151 15.2707 10.4203 15.3643 10.6864 15.353C11.137 15.3333 11.5153 15.1513 11.7947 14.7984C12.1155 14.3929 12.5231 14.1243 13.0021 13.9477C13.233 13.8641 13.459 13.7627 13.687 13.6695C13.6903 13.6482 13.6941 13.6278 13.6974 13.6056C13.5583 13.5025 13.4218 13.3968 13.2798 13.297C12.9528 13.0677 12.592 12.8673 12.5594 12.4041V12.4058ZM6.0027 4.67976C6.25556 4.96196 6.57192 5.17997 6.92565 5.3158C6.97727 5.33685 7.03444 5.34008 7.08811 5.32499C7.43808 5.1997 7.79055 5.07441 8.13217 4.92532C8.30799 4.84806 8.46042 4.71651 8.62997 4.60792C7.69157 3.82613 6.84004 3.81026 6.00437 4.67683L6.0027 4.67976ZM8.49675 3.92803L8.53643 3.9652C8.62956 3.88585 8.73981 3.81945 8.81206 3.72423C9.09145 3.35798 9.07015 2.59665 8.78241 2.23749C8.53517 1.92761 8.17059 1.9226 7.91751 2.22538C7.59552 2.61001 7.5713 3.33166 7.87575 3.72883C7.94465 3.8182 8.04739 3.88168 8.13467 3.95685L8.16808 3.92135C8.00563 3.71922 7.98182 3.49579 8.06702 3.25942C8.11337 3.13121 8.18771 3.01678 8.34014 3.01928C8.48506 3.02179 8.54895 3.13747 8.60032 3.25608C8.61565 3.2945 8.62645 3.33459 8.63248 3.37552C8.65374 3.47154 8.65271 3.57115 8.62947 3.66672C8.60624 3.76228 8.5614 3.85124 8.49842 3.92678L8.49675 3.92803ZM6.47295 3.95518C6.68176 3.89629 6.79577 3.78813 6.86593 3.6382C7.0689 3.20721 7.06806 2.76954 6.85132 2.34774C6.6212 1.90088 6.11755 1.88 5.85695 2.30598C5.59636 2.73196 5.59051 3.1926 5.81811 3.64238C5.85298 3.71733 5.9042 3.78351 5.96802 3.83606C6.03184 3.8886 6.10662 3.92617 6.18688 3.94599C6.00354 3.71045 5.97806 3.47867 6.07495 3.23603C6.12089 3.11993 6.19397 3.01928 6.33137 3.01552C6.46877 3.01176 6.54728 3.11742 6.59114 3.23018C6.68635 3.47324 6.67341 3.70961 6.47462 3.95518H6.47295Z" fill="#444444"/>
</svg>
