<svg width="80" height="80" viewBox="0 0 80 80" fill="none" xmlns="http://www.w3.org/2000/svg">
<rect x="21.5" y="8.5" width="37" height="63" rx="3.5" fill="#EFEFEF" stroke="#333333"/>
<path d="M25.5549 36.8154C25.6154 36.9622 25.7419 37.0716 25.896 37.1101L27.5 37.5111V41.5835L25.8023 41.9877C25.6459 42.025 25.517 42.1351 25.4558 42.2838L24.7618 43.9691C24.7011 44.1166 24.7143 44.2841 24.7975 44.4202L25.6827 45.8688L22.7696 48.7819L21.3211 47.8966C21.185 47.8135 21.0174 47.8002 20.87 47.8609L19.1846 48.5549C19.0378 48.6154 18.9284 48.7419 18.8899 48.896L18.4889 50.5H14.4165L14.0123 48.8023C13.975 48.6459 13.8649 48.517 13.7162 48.4558L12.0309 47.7618C11.8834 47.7011 11.7159 47.7143 11.5798 47.7975L10.1312 48.6827L7.21813 45.7696L8.10337 44.3211C8.18652 44.185 8.19978 44.0174 8.13906 43.87L7.4451 42.1846C7.38464 42.0378 7.25806 41.9284 7.10403 41.8899L5.5 41.4889V37.4165L7.19771 37.0123C7.35409 36.975 7.48303 36.8649 7.54424 36.7162L8.2382 35.0309C8.29892 34.8834 8.28566 34.7159 8.2025 34.5798L7.31727 33.1312L10.2304 30.2181L11.6789 31.1034C11.815 31.1865 11.9826 31.1998 12.13 31.1391L13.8154 30.4451C13.9622 30.3846 14.0716 30.2581 14.1101 30.104L14.5111 28.5H18.5835L18.9877 30.1977C19.025 30.3541 19.1351 30.483 19.2838 30.5442L20.9691 31.2382C21.1166 31.2989 21.2841 31.2857 21.4202 31.2025L22.8688 30.3173L25.7819 33.2304L24.8966 34.6789C24.8135 34.815 24.8002 34.9826 24.8609 35.13L25.5549 36.8154ZM11.7371 39.5991C11.7371 42.2546 13.9437 44.4612 16.5991 44.4612C19.2546 44.4612 21.4612 42.2546 21.4612 39.5991C21.4612 36.9437 19.2546 34.7371 16.5991 34.7371C13.9437 34.7371 11.7371 36.9437 11.7371 39.5991Z" fill="#BDECFF" stroke="#333333" stroke-miterlimit="10" stroke-linecap="round" stroke-linejoin="round"/>
<path d="M46 10.5H34C33.6964 10.5 33.3311 10.2952 33.016 9.82265C32.782 9.4716 32.6059 9.01118 32.5347 8.5H47.4653C47.3941 9.01118 47.218 9.4716 46.984 9.82265C46.6689 10.2952 46.3036 10.5 46 10.5Z" fill="white" stroke="#333333"/>
<path d="M39.5 23C39.5 21.6193 40.6193 20.5 42 20.5H58.7929L68.5 30.2071V57C68.5 58.3807 67.3807 59.5 66 59.5H42C40.6193 59.5 39.5 58.3807 39.5 57V23Z" fill="white" stroke="#333333" stroke-linejoin="round"/>
<path d="M59.5 29.5V21.2071L67.7929 29.5H59.5Z" fill="url(#paint0_linear_1087_6987)" stroke="#333333" stroke-linejoin="round"/>
<rect x="34" y="67" width="13" height="1" rx="0.5" fill="#333333"/>
<path d="M54.5 26.5H43.5V37.5H54.5V26.5Z" fill="white" stroke="#333333" stroke-linecap="round" stroke-linejoin="round"/>
<path fill-rule="evenodd" clip-rule="evenodd" d="M54.5 37.5H43.5L47.4286 33L49 34.5L51.3571 31.5L54.5 35.25V37.5Z" fill="#EFEFEF" stroke="#333333" stroke-linecap="round" stroke-linejoin="round"/>
<path d="M47.5 31C48.3284 31 49 30.3284 49 29.5C49 28.6716 48.3284 28 47.5 28C46.6716 28 46 28.6716 46 29.5C46 30.3284 46.6716 31 47.5 31Z" fill="#FF6F3D"/>
<rect x="43" y="41" width="22" height="1" rx="0.5" fill="#333333"/>
<rect x="43" y="45" width="22" height="1" rx="0.5" fill="#333333"/>
<rect x="43" y="49" width="22" height="1" rx="0.5" fill="#333333"/>
<rect x="43" y="53" width="12" height="1" rx="0.5" fill="#333333"/>
<defs>
<linearGradient id="paint0_linear_1087_6987" x1="64" y1="20" x2="64" y2="30" gradientUnits="userSpaceOnUse">
<stop stop-color="#FF8E3D"/>
<stop offset="1" stop-color="#FF6F3D"/>
</linearGradient>
</defs>
</svg>
