<svg width="48" height="48" viewBox="0 0 48 48" fill="none" xmlns="http://www.w3.org/2000/svg">
<path d="M40.5 43C40.5 44.3807 39.3807 45.5 38 45.5H11C9.61929 45.5 8.5 44.3807 8.5 43V5C8.5 3.61929 9.61929 2.5 11 2.5H31.7929L40.5 11.2071V43Z" fill="white" stroke="#333333"/>
<path d="M32.5 3.20711L39.7929 10.5H32.5V3.20711Z" fill="#CB0000" stroke="#333333" stroke-linecap="round" stroke-linejoin="round"/>
<rect x="14" y="21" width="12" height="2" rx="1" fill="#CB0000"/>
<rect x="14" y="26" width="21" height="1" rx="0.5" fill="#333333"/>
<rect x="14" y="36" width="21" height="1" rx="0.5" fill="#333333"/>
<rect x="14" y="40" width="12" height="1" rx="0.5" fill="#333333"/>
<rect x="14" y="30" width="21" height="3" rx="1" fill="#CB0000"/>
<path d="M25 7H15C14.4477 7 14 7.44772 14 8V18C14 18.5523 14.4477 19 15 19H25C25.5523 19 26 18.5523 26 18V8C26 7.44772 25.5523 7 25 7Z" fill="#CB0000"/>
<path fill-rule="evenodd" clip-rule="evenodd" d="M25 17C25 17.5523 24.5523 18 24 18H15.9973C15.1737 18 14.7032 17.0602 15.1966 16.4009L17.9286 12.75L19.5 14.5L21.8571 11L25 15.375V17Z" fill="white"/>
<path d="M18.5 12C19.3284 12 20 11.3284 20 10.5C20 9.67157 19.3284 9 18.5 9C17.6716 9 17 9.67157 17 10.5C17 11.3284 17.6716 12 18.5 12Z" fill="white"/>
</svg>
