<svg width="80" height="80" viewBox="0 0 80 80" fill="none" xmlns="http://www.w3.org/2000/svg">
<path d="M5.55172 68.5H74.4483C76.0076 68.5 77.5 67.4827 77.5 66C77.5 64.5173 76.0076 63.5 74.4483 63.5H5.55172C3.99243 63.5 2.5 64.5173 2.5 66C2.5 67.4827 3.99243 68.5 5.55172 68.5Z" fill="#E2E2E2" stroke="#333333" stroke-miterlimit="10" stroke-linecap="round" stroke-linejoin="round"/>
<path d="M9.5 24C9.5 22.6193 10.6193 21.5 12 21.5H68C69.3807 21.5 70.5 22.6193 70.5 24V63.5H9.5V24Z" fill="#F9F9F9" stroke="#333333"/>
<path d="M10 24C10 22.8954 10.8954 22 12 22H41V63H10V24Z" fill="#EFEFEF"/>
<path d="M35 35.5C35.1848 35.5 35.3545 35.3981 35.4413 35.235C35.5282 35.072 35.518 34.8743 35.4149 34.721C32.8945 30.9733 29.247 28.5 25 28.5C20.8426 28.5 17.1068 30.9712 14.5851 34.721C14.482 34.8743 14.4718 35.072 14.5587 35.235C14.6455 35.3981 14.8152 35.5 15 35.5H35Z" fill="url(#paint0_linear_1087_6972)" stroke="#333333" stroke-miterlimit="10" stroke-linecap="round" stroke-linejoin="round"/>
<path d="M22.5 25.5H27.5V29.691L25 30.941L22.5 29.691V25.5Z" fill="#F5F5F5" stroke="#333333"/>
<path d="M25 26.5C28.5898 26.5 31.5 23.5899 31.5 20C31.5 16.4101 28.5898 13.5 25 13.5C21.4102 13.5 18.5 16.4101 18.5 20C18.5 23.5899 21.4102 26.5 25 26.5Z" fill="white" stroke="#333333" stroke-miterlimit="10" stroke-linecap="round" stroke-linejoin="round"/>
<path d="M31 20.4382C31.1356 20.4382 31.2653 20.3831 31.3595 20.2856C31.4538 20.1881 31.5043 20.0566 31.4997 19.9211C31.3799 16.4164 28.5053 13.5 25 13.5C21.3866 13.5 18.5 16.4168 18.5 20.0502V20.0515V20.0528V20.0541V20.0555V20.0568V20.0581V20.0594V20.0607V20.062V20.0633V20.0646V20.066V20.0673V20.0686V20.0699V20.0712V20.0725V20.0738V20.0752V20.0765V20.0778V20.0791V20.0804V20.0817V20.083V20.0844V20.0857V20.087V20.0883V20.0896V20.0909V20.0922V20.0936V20.0949V20.0962V20.0975V20.0988V20.1001V20.1015V20.1028V20.1041V20.1054V20.1067V20.108V20.1094V20.1107V20.112V20.1133V20.1146V20.116V20.1173V20.1186V20.1199V20.1212V20.1226V20.1239V20.1252V20.1265V20.1278V20.1292V20.1305V20.1318V20.1331V20.1344V20.1358V20.1371V20.1384V20.1397V20.1411V20.1424V20.1437V20.145V20.1464V20.1477V20.149V20.1504V20.1517V20.153V20.1543V20.1557V20.157V20.1583V20.1597V20.161V20.1623V20.1636V20.165V20.1663V20.1676V20.169V20.1703V20.1716V20.173V20.1743V20.1756V20.177V20.1783V20.1797V20.181V20.1823V20.1837V20.185V20.1863V20.1877V20.189V20.1904V20.1917V20.1931V20.1944V20.1957V20.1971V20.1984V20.1998V20.2011V20.2025V20.2038V20.2052V20.2065V20.2079V20.2092V20.2105V20.2119V20.2133V20.2146V20.216V20.2173V20.2187V20.22V20.2214V20.2227V20.2241V20.2254V20.2268V20.2281V20.2295V20.2309V20.2322V20.2336V20.2349V20.2363V20.2377V20.239V20.2404V20.2418V20.2431V20.2445V20.2459V20.2472V20.2486V20.25V20.2513V20.2527V20.2541V20.2554V20.2568V20.2582V20.2596V20.2609V20.2623V20.2637V20.2651V20.2665V20.2678V20.2692V20.2706V20.272V20.2734V20.2747V20.2761V20.2775V20.2789V20.2803V20.2817V20.2831V20.2844V20.2858V20.2872V20.2886V20.29V20.2914V20.2928V20.2942V20.2956V20.297V20.2984V20.2998V20.3012V20.3026V20.304V20.3054V20.3068V20.3082V20.3096V20.311V20.3124V20.3138V20.3152V20.3166V20.3181V20.3195V20.3209V20.3223V20.3237V20.3251V20.3266V20.328V20.3294V20.3308V20.3322V20.3337V20.3351V20.3365V20.3379V20.3394V20.3408V20.3422V20.3436V20.3451V20.3465V20.3479V20.3494V20.3508V20.3523V20.3537V20.3551V20.3566V20.358V20.3595V20.3609V20.3623V20.3638V20.3652V20.3667V20.3681V20.3696V20.371V20.3725V20.3739V20.3754V20.3769V20.3783V20.3798V20.3812V20.3827V20.3842V20.3856V20.3871V20.3886V20.39V20.3915V20.393V20.3944V20.3959V20.3974V20.3989V20.4003V20.4018V20.4033V20.4048V20.4062V20.4077V20.4092V20.4107V20.4122V20.4137V20.4152V20.4167V20.4181V20.4196V20.4211V20.4226V20.4241V20.4256V20.4271V20.4286V20.4301V20.4316V20.4331V20.4346V20.4362V20.4377V20.4392V20.4407V20.4422V20.4437V20.4452V20.4468V20.4483V20.4498V20.4513V20.4528V20.4544V20.4559V20.4574V20.459V20.4605V20.462V20.4636V20.4651V20.4666V20.4682V20.4697V20.4713V20.4728V20.4743V20.4759V20.4774V20.479V20.4805V20.4821V20.4836V20.4852V20.4868V20.4883V20.4899V20.4914V20.493V20.4946V20.4961V20.4977V20.4993V20.5008V20.5024V20.504V20.5056V20.5072V20.5087V20.5103V20.5119V20.5135V20.5151V20.5167V20.5182V20.5198V20.5214V20.523V20.5246V20.5262V20.5278V20.5294V20.531V20.5326V20.5342V20.5358V20.5375V20.5391V20.5407V20.5423V20.5439V20.5455V20.5472V20.5488V20.5504V20.552V20.5537V20.5553V20.5569V20.5585V20.5602V20.5618V20.5635V20.5651V20.5667V20.5684V20.57V20.5717V20.5733V20.575V20.5766V20.5783V20.5799V20.5816V20.5833V20.5849V20.5866V20.5883V20.5899V20.5916V20.5933V20.5949V20.5966V20.5983V20.6V20.6017V20.6033V20.605V20.6067V20.6084V20.6101V20.6118V20.6135V20.6152V20.6169V20.6186V20.6203V20.622V20.6237V20.6254V20.6271V20.6288V20.6305V20.6322V20.634V20.6357V20.6374V20.6391V20.6409V20.6426V20.6443V20.6461V20.6478V20.6495V20.6513V20.653V20.6547V20.6565V20.6582V20.66V20.6617V20.6635V20.6653V20.667V20.6688V20.6705V20.6723V20.6741V20.6758V20.6776V20.6794V20.6812V20.6829V20.6847V20.6865V20.6883V20.6901V20.6918V20.6936V20.6954V20.6972V20.699V20.7008V20.7026V20.7044V20.7062V20.708V20.7098V20.7117V20.7135V20.7153V20.7171V20.7189V20.7208V20.7226V20.7244V20.7262V20.7281V20.7299V20.7317V20.7336V20.7354V20.7373V20.7391V20.741V20.7428V20.7447V20.7465V20.7484V20.7502V20.7521V20.754V20.7558V20.7577V20.7596V20.7615V20.7633V20.7652V20.7671V20.769V20.7709V20.7727V20.7746V20.7765V20.7784V20.7803V20.7822V20.7841V20.786V20.7879V20.7899V20.7918V20.7937V20.7956V20.7975V20.7994V20.8014V20.8033V20.8052V20.8072V20.8091V20.811V20.813V20.8149V20.8169V20.8188V20.8208V20.8227V20.8247V20.8266V20.8286V20.8306V20.8325V20.8345C18.5 21.0636 18.6557 21.2633 18.8778 21.3193C21.4676 21.9722 24.2535 20.8204 25.4298 18.3488C26.0032 19.1799 26.7223 19.6959 27.5404 20.0034C28.6145 20.4072 29.8292 20.4382 31 20.4382Z" fill="#AAAAAA" stroke="#333333" stroke-linecap="round" stroke-linejoin="round"/>
<rect x="15" y="41" width="20" height="1" rx="0.5" fill="#333333"/>
<rect x="15" y="46" width="20" height="1" rx="0.5" fill="#333333"/>
<rect x="15" y="51" width="20" height="1" rx="0.5" fill="#333333"/>
<path d="M73.5 46C73.5 46.2761 73.2761 46.5 73 46.5H47C46.7239 46.5 46.5 46.2761 46.5 46V13C46.5 12.7239 46.7239 12.5 47 12.5H65.7929L73.5 20.2071V46Z" fill="white" stroke="#333333" stroke-linecap="round" stroke-linejoin="round"/>
<path d="M66.5 13.2071L72.7929 19.5H66.5V13.2071Z" fill="#FF6F3D" stroke="#333333" stroke-linecap="round" stroke-linejoin="round"/>
<rect x="50" y="28" width="20" height="1" rx="0.5" fill="#333333"/>
<rect x="50" y="24" width="20" height="1" rx="0.5" fill="#333333"/>
<rect x="50" y="32" width="20" height="1" rx="0.5" fill="#333333"/>
<rect x="50" y="36" width="20" height="1" rx="0.5" fill="#333333"/>
<rect x="50" y="40" width="11" height="1" rx="0.5" fill="#333333"/>
<rect x="50" y="20" width="11" height="1" rx="0.5" fill="#333333"/>
<defs>
<linearGradient id="paint0_linear_1087_6972" x1="15.0024" y1="31.9893" x2="34.9653" y2="31.9893" gradientUnits="userSpaceOnUse">
<stop stop-color="#FF8E3D"/>
<stop offset="1" stop-color="#FF6F3D"/>
</linearGradient>
</defs>
</svg>
