<svg width="48" height="48" viewBox="0 0 48 48" fill="none" xmlns="http://www.w3.org/2000/svg">
<path d="M40.5 43C40.5 44.3807 39.3807 45.5 38 45.5H11C9.61929 45.5 8.5 44.3807 8.5 43V5C8.5 3.61929 9.61929 2.5 11 2.5H31.7929L40.5 11.2071V43Z" fill="white" stroke="#333333"/>
<path d="M32.5 3.20711L39.7929 10.5H32.5V3.20711Z" fill="#FF6F3D" stroke="#333333" stroke-linecap="round" stroke-linejoin="round"/>
<rect x="14" y="8" width="14" height="1" rx="0.5" fill="#333333"/>
<rect x="14" y="12" width="14" height="1" rx="0.5" fill="#333333"/>
<rect x="14" y="16" width="21" height="10" rx="1" fill="#FF6F3D"/>
<rect x="14" y="29" width="21" height="10" rx="1" fill="#FF6F3D"/>
<rect x="17" y="19" width="15" height="1" rx="0.5" fill="white"/>
<rect x="17" y="32" width="15" height="1" rx="0.5" fill="white"/>
<rect x="17" y="22" width="15" height="1" rx="0.5" fill="white"/>
<rect x="17" y="35" width="15" height="1" rx="0.5" fill="white"/>
</svg>
