<svg width="344" height="257" viewBox="0 0 344 257" fill="none" xmlns="http://www.w3.org/2000/svg">
<path d="M127.015 57.3509V56.9175L126.586 56.8559C115.248 55.2278 106.5 45.4578 106.5 33.6835C106.5 20.771 117.012 10.2656 129.934 10.2656H157.288C170.216 10.2656 180.95 20.7771 180.95 33.6835C180.95 46.5899 170.216 57.1014 157.288 57.1014H145.024H144.817L144.671 57.2477L131.997 69.9128L131.997 69.9128L131.993 69.9169C131.159 70.7695 129.897 71.0035 128.828 70.557C127.712 70.0871 127.015 69.0373 127.015 67.852V57.3509ZM126.015 33.6835C126.015 35.8506 127.766 37.6004 129.934 37.6004C132.102 37.6004 133.853 35.8506 133.853 33.6835C133.853 31.5164 132.102 29.7667 129.934 29.7667C127.766 29.7667 126.015 31.5164 126.015 33.6835ZM139.692 33.6835C139.692 35.8506 141.443 37.6004 143.611 37.6004C145.779 37.6004 147.53 35.8506 147.53 33.6835C147.53 31.5164 145.779 29.7667 143.611 29.7667C141.443 29.7667 139.692 31.5164 139.692 33.6835ZM153.369 33.6835C153.369 35.8506 155.12 37.6004 157.288 37.6004C159.455 37.6004 161.207 35.8506 161.207 33.6835C161.207 31.5164 159.455 29.7667 157.288 29.7667C155.12 29.7667 153.369 31.5164 153.369 33.6835Z" fill="white" stroke="#CCCCCC"/>
<path d="M304.724 232.04V231.606L305.153 231.545C325.194 228.669 340.658 211.416 340.658 190.622C340.658 167.818 322.077 149.266 299.235 149.266H251.323C228.475 149.266 209.501 167.824 209.501 190.622C209.501 213.42 228.475 231.978 251.323 231.978H272.804H273.011L273.157 232.124L295.356 254.288L295.36 254.292C296.931 255.897 299.307 256.336 301.318 255.496C303.411 254.616 304.724 252.644 304.724 250.417V232.04ZM305.724 190.622C305.724 194.207 302.824 197.101 299.235 197.101C295.646 197.101 292.746 194.207 292.746 190.622C292.746 187.036 295.646 184.142 299.235 184.142C302.824 184.142 305.724 187.036 305.724 190.622ZM281.768 190.622C281.768 194.207 278.868 197.101 275.279 197.101C271.69 197.101 268.79 194.207 268.79 190.622C268.79 187.036 271.69 184.142 275.279 184.142C278.868 184.142 281.768 187.036 281.768 190.622ZM257.812 190.622C257.812 194.207 254.912 197.101 251.323 197.101C247.734 197.101 244.834 194.207 244.834 190.622C244.834 187.036 247.734 184.142 251.323 184.142C254.912 184.142 257.812 187.036 257.812 190.622Z" fill="white" stroke="#CCCCCC"/>
<ellipse cx="142.366" cy="223.101" rx="139.366" ry="4.80573" fill="#CCCCCC"/>
<path d="M230.326 79.8906H54.408C47.7805 79.8906 42.408 85.2632 42.408 91.8906V213.49H242.326V91.8906C242.326 85.2632 236.954 79.8906 230.326 79.8906Z" fill="#F5F5F5" stroke="#333333" stroke-miterlimit="10" stroke-linecap="round" stroke-linejoin="round"/>
<path d="M234.638 87.1367H50.0977V208.241H234.638V87.1367Z" fill="white" stroke="#333333" stroke-miterlimit="10" stroke-linecap="round" stroke-linejoin="round"/>
<path d="M261.472 213.229H23.2629C22.1584 213.229 21.2629 214.124 21.2629 215.229V216.034C21.2629 217.139 22.1584 218.034 23.2629 218.034H261.472C262.576 218.034 263.472 217.139 263.472 216.034V215.229C263.472 214.124 262.576 213.229 261.472 213.229Z" fill="white" stroke="#333333" stroke-miterlimit="10" stroke-linecap="round" stroke-linejoin="round"/>
<path fill-rule="evenodd" clip-rule="evenodd" d="M263.472 217.814C255.916 220.361 247.997 221.659 240.024 221.659H41.3746C34.4881 221.659 27.6639 220.355 21.2629 217.814H263.472Z" fill="#AAAAAA" stroke="#333333" stroke-miterlimit="10" stroke-linecap="round" stroke-linejoin="round"/>
<rect x="21.5" y="69.5664" width="100.881" height="78.775" rx="11.5" fill="white" stroke="#CCCCCC"/>
<path d="M75.0654 59.6466C72.9989 58.1568 62.5705 55.754 55.3619 63.7315C49.4028 70.3634 51.0848 77.3317 51.0848 77.3317C51.0848 77.3317 46.9038 78.7253 46.5194 82.5699C46.1349 86.4625 48.5858 88.8174 48.5858 88.8174C48.5858 88.8174 39.2147 91.1722 37.821 104.868C36.0909 121.929 48.9222 138.124 75.9304 135.337C101.785 132.646 100.68 112.942 101.353 109.386C103.804 96.3143 88.5695 83.1466 88.5695 83.1466C88.5695 83.1466 89.867 80.984 89.6267 79.254C89.2903 76.3705 88.2811 75.1691 88.2811 75.1691C88.2811 75.1691 91.549 72.2376 91.3568 69.21C91.1645 65.6057 87.8005 64.1159 87.8005 64.1159C87.8005 64.1159 87.7525 60.6077 84.9652 58.9257C80.1114 55.9462 75.0654 59.6466 75.0654 59.6466Z" fill="#666666" stroke="#333333" stroke-miterlimit="10"/>
<path d="M109.953 90.4997C109.953 90.4997 109.761 91.1245 107.454 90.9323C105.196 90.74 103.898 89.875 103.898 89.875L100.246 119.19C100.246 119.19 87.5107 94.3924 85.5404 93.7676C83.57 93.1429 54.159 94.056 50.5066 99.102C41.2316 112.029 38.8768 138.797 38.7807 141.633C38.6846 145.862 41.9044 147.255 42.8655 148.553H84.387L86.7899 125.678C89.4811 123.323 90.6825 120.632 90.6825 120.632C90.6825 120.632 98.5639 132.982 103.898 130.916C110.482 128.417 109.953 90.4997 109.953 90.4997ZM49.5455 137.644C49.5455 137.644 54.5915 115.586 55.7449 116.547C57.4269 117.892 58.0036 139.518 58.0036 139.518L49.5455 137.644Z" fill="url(#paint0_linear_1657_18572)" stroke="#333333" stroke-miterlimit="10" stroke-linecap="round" stroke-linejoin="round"/>
<path d="M72.9992 141.295C64.1086 140.094 55.218 138.267 46.2794 137.402C45.7507 137.354 45.6546 138.171 46.1352 138.316C54.6894 141.007 63.9644 141.776 72.855 142.064C73.3356 142.112 73.4317 141.343 72.9992 141.295Z" fill="#333333"/>
<path d="M78.4763 153.31C80.2063 153.886 82.1767 152.973 83.1859 151.483C84.1951 149.994 84.2432 147.975 83.7145 146.245C83.282 144.948 72.9016 141.584 72.8536 141.92C72.325 144.179 70.9794 146.822 72.9497 148.6C74.5356 149.994 76.4098 152.589 78.4763 153.31Z" fill="white" stroke="#333333" stroke-miterlimit="10" stroke-linecap="round" stroke-linejoin="round"/>
<path d="M104.33 89.8261C104.042 88.913 102.889 86.8466 102.264 86.1257C101.639 85.4049 100.966 84.684 100.582 83.819C100.197 82.9539 100.101 81.8486 100.678 81.0797C101.207 80.3108 102.504 80.0225 103.177 80.6953C102.937 79.1094 102.744 77.4754 103.177 75.9376C103.609 74.3998 111.779 77.4274 111.923 78.6768C112.404 81.8967 109.857 86.5582 109.472 89.8261H104.33Z" fill="white" stroke="#333333" stroke-miterlimit="10" stroke-linecap="round" stroke-linejoin="round"/>
<path d="M76.6521 92.855L80.5447 93.5759C80.5447 93.5759 83.0918 103.139 75.691 103.668C66.0315 104.389 60.7932 95.3059 60.7932 95.3059L66.6562 93.4798V84.0605H76.604V92.855H76.6521Z" fill="white" stroke="#333333" stroke-miterlimit="10" stroke-linecap="round" stroke-linejoin="round"/>
<path d="M83.1383 71.0845C81.6485 64.1162 76.4584 64.2124 69.3459 64.741C62.3295 65.2216 60.5995 70.1234 61.032 77.1398C60.0228 77.4762 59.2058 78.8218 59.7344 79.9271C60.4072 81.2727 61.7048 81.561 63.0984 81.561C63.2907 81.561 66.943 89.6827 74.7764 89.6827C83.1383 89.6827 84.6762 78.2451 83.1383 71.0845Z" fill="white" stroke="#333333" stroke-miterlimit="10" stroke-linecap="round" stroke-linejoin="round"/>
<path d="M76.0276 75.2656C75.9796 74.2084 74.3456 74.0161 73.5287 74.2564C72.5675 74.4967 71.5583 75.602 71.8947 76.6593C71.9908 76.9476 72.3753 77.0438 72.5675 76.7554C72.952 76.0826 73.1923 75.554 74.0573 75.4579C74.682 75.4098 75.2107 75.6982 75.7874 75.6501C75.9315 75.602 76.0276 75.4098 76.0276 75.2656Z" fill="#333333"/>
<path d="M78.622 75.2179C78.9104 74.8815 79.3429 74.1126 79.8715 74.3049C80.4001 74.4971 80.5443 75.1218 81.1691 75.1218C81.3613 75.1218 81.5535 74.9777 81.6016 74.7854C81.986 73.7762 80.5443 72.9112 79.6793 73.0073C78.6701 73.1034 77.8051 74.0646 77.9973 75.0257C78.0453 75.3141 78.4298 75.4102 78.622 75.2179Z" fill="#333333"/>
<path d="M77.0836 80.0241C77.8525 80.3605 79.102 80.6008 79.5826 79.6397C79.6787 79.3994 79.6787 79.111 79.4864 78.9188C79.3423 78.7746 79.1981 78.7266 79.0059 78.7266C78.7656 78.7746 78.7175 78.9188 78.5734 79.063C78.4292 79.2071 78.1408 79.3513 77.9486 79.3994C77.7083 79.4955 77.42 79.5916 77.1797 79.6397C76.9875 79.6877 76.9394 79.928 77.0836 80.0241Z" fill="#333333"/>
<path d="M77.3249 82.666C76.8443 82.3776 76.0274 82.5218 75.4507 82.4738C74.6818 82.3776 73.8167 82.3296 73.1439 81.9932C72.8075 81.849 72.4231 82.0412 72.4231 82.4257C72.375 83.7232 73.5284 85.0208 74.874 84.6844C75.1143 84.6363 75.1143 84.348 74.9221 84.2519C74.2493 83.7232 73.3362 83.483 73.4323 82.4738C73.192 82.6179 72.9517 82.7621 72.7114 82.9063C73.5284 83.2907 74.5376 83.483 75.4507 83.5791C76.0274 83.6271 77.373 83.8194 77.5652 83.0504C77.5171 82.8582 77.4691 82.714 77.3249 82.666Z" fill="#333333"/>
<path d="M89.4334 123.562C92.3649 120.919 92.8455 114.623 90.5388 111.451C90.1543 110.923 89.3854 111.259 89.5296 111.884C89.8179 113.614 90.3946 115.2 90.3946 116.978C90.4426 119.333 89.5776 121.063 88.8087 123.177C88.6645 123.562 89.1931 123.802 89.4334 123.562Z" fill="#333333"/>
<path d="M52.9092 77.0443C53.7742 78.4379 64.9235 76.5637 70.354 72.7191C72.036 71.5177 74.7752 69.2109 75.1597 67.1925C76.5534 68.6343 83.5697 70.941 85.2998 70.6527C87.0299 70.3643 83.7139 67.1925 83.6178 65.4144C83.5697 64.1169 67.9992 59.6956 65.7885 60.2723C62.6648 61.1373 51.8039 75.2662 52.9092 77.0443Z" fill="#666666"/>
<path d="M56.9462 77.717C64.4911 77.2844 73.5259 74.0646 76.3613 66.4716C76.5055 66.039 75.9288 65.8949 75.6885 66.1832C73.574 69.0186 71.1711 71.5176 68.0474 73.1515C64.4911 74.9777 60.5504 75.6986 56.8981 77.1403C56.6098 77.2844 56.6098 77.765 56.9462 77.717Z" fill="#333333"/>
<path d="M73.1904 63.6851C73.9593 66.4724 76.4583 68.2986 78.8131 69.7884C80.9757 71.134 84.1475 72.8641 86.8387 72.1432C87.3193 71.999 87.2231 71.3743 86.8387 71.2301C82.1291 69.3559 77.3233 67.1933 73.8152 63.3487C73.5268 63.0604 73.0943 63.3487 73.1904 63.6851Z" fill="#333333"/>
<path d="M75.0654 59.6466C72.9989 58.1568 62.5705 55.754 55.3619 63.7315C49.4028 70.3634 51.0848 77.3317 51.0848 77.3317C51.0848 77.3317 46.9038 78.7253 46.5194 82.5699C46.1349 86.4625 48.5858 88.8174 48.5858 88.8174C48.5858 88.8174 39.2147 91.1722 37.821 104.868C36.0909 121.929 48.9222 138.124 75.9304 135.337C101.785 132.646 100.68 112.942 101.353 109.386C103.804 96.3143 88.5695 83.1466 88.5695 83.1466C88.5695 83.1466 89.867 80.984 89.6267 79.254C89.2903 76.3705 88.2811 75.1691 88.2811 75.1691C88.2811 75.1691 91.549 72.2376 91.3568 69.21C91.1645 65.6057 87.8005 64.1159 87.8005 64.1159C87.8005 64.1159 87.7525 60.6077 84.9652 58.9257C80.1114 55.9462 75.0654 59.6466 75.0654 59.6466Z" fill="#666666" stroke="#333333" stroke-miterlimit="10"/>
<path d="M109.953 90.4997C109.953 90.4997 109.761 91.1245 107.454 90.9323C105.196 90.74 103.898 89.875 103.898 89.875L100.246 119.19C100.246 119.19 87.5107 94.3924 85.5404 93.7676C83.57 93.1429 54.159 94.056 50.5066 99.102C41.2316 112.029 38.8768 138.797 38.7807 141.633C38.6846 145.862 41.9044 147.255 42.8655 148.553H84.387L86.7899 125.678C89.4811 123.323 90.6825 120.632 90.6825 120.632C90.6825 120.632 98.5639 132.982 103.898 130.916C110.482 128.417 109.953 90.4997 109.953 90.4997ZM49.5455 137.644C49.5455 137.644 54.5915 115.586 55.7449 116.547C57.4269 117.892 58.0036 139.518 58.0036 139.518L49.5455 137.644Z" fill="url(#paint1_linear_1657_18572)" stroke="#333333" stroke-miterlimit="10" stroke-linecap="round" stroke-linejoin="round"/>
<path d="M72.9992 141.295C64.1086 140.094 55.218 138.267 46.2794 137.402C45.7507 137.354 45.6546 138.171 46.1352 138.316C54.6894 141.007 63.9644 141.776 72.855 142.064C73.3356 142.112 73.4317 141.343 72.9992 141.295Z" fill="#333333"/>
<path d="M78.4763 153.31C80.2063 153.886 82.1767 152.973 83.1859 151.483C84.1951 149.994 84.2432 147.975 83.7145 146.245C83.282 144.948 72.9016 141.584 72.8536 141.92C72.325 144.179 70.9794 146.822 72.9497 148.6C74.5356 149.994 76.4098 152.589 78.4763 153.31Z" fill="white" stroke="#333333" stroke-miterlimit="10" stroke-linecap="round" stroke-linejoin="round"/>
<path d="M104.33 89.8261C104.042 88.913 102.889 86.8466 102.264 86.1257C101.639 85.4049 100.966 84.684 100.582 83.819C100.197 82.9539 100.101 81.8486 100.678 81.0797C101.207 80.3108 102.504 80.0225 103.177 80.6953C102.937 79.1094 102.744 77.4754 103.177 75.9376C103.609 74.3998 111.779 77.4274 111.923 78.6768C112.404 81.8967 109.857 86.5582 109.472 89.8261H104.33Z" fill="white" stroke="#333333" stroke-miterlimit="10" stroke-linecap="round" stroke-linejoin="round"/>
<path d="M76.6521 92.855L80.5447 93.5759C80.5447 93.5759 83.0918 103.139 75.691 103.668C66.0315 104.389 60.7932 95.3059 60.7932 95.3059L66.6562 93.4798V84.0605H76.604V92.855H76.6521Z" fill="white" stroke="#333333" stroke-miterlimit="10" stroke-linecap="round" stroke-linejoin="round"/>
<path d="M83.1383 71.0845C81.6485 64.1162 76.4584 64.2124 69.3459 64.741C62.3295 65.2216 60.5995 70.1234 61.032 77.1398C60.0228 77.4762 59.2058 78.8218 59.7344 79.9271C60.4072 81.2727 61.7048 81.561 63.0984 81.561C63.2907 81.561 66.943 89.6827 74.7764 89.6827C83.1383 89.6827 84.6762 78.2451 83.1383 71.0845Z" fill="white" stroke="#333333" stroke-miterlimit="10" stroke-linecap="round" stroke-linejoin="round"/>
<path d="M76.0276 75.2656C75.9796 74.2084 74.3456 74.0161 73.5287 74.2564C72.5675 74.4967 71.5583 75.602 71.8947 76.6593C71.9908 76.9476 72.3753 77.0438 72.5675 76.7554C72.952 76.0826 73.1923 75.554 74.0573 75.4579C74.682 75.4098 75.2107 75.6982 75.7874 75.6501C75.9315 75.602 76.0276 75.4098 76.0276 75.2656Z" fill="#333333"/>
<path d="M78.622 75.2179C78.9104 74.8815 79.3429 74.1126 79.8715 74.3049C80.4001 74.4971 80.5443 75.1218 81.1691 75.1218C81.3613 75.1218 81.5535 74.9777 81.6016 74.7854C81.986 73.7762 80.5443 72.9112 79.6793 73.0073C78.6701 73.1034 77.8051 74.0646 77.9973 75.0257C78.0453 75.3141 78.4298 75.4102 78.622 75.2179Z" fill="#333333"/>
<path d="M77.0836 80.0241C77.8525 80.3605 79.102 80.6008 79.5826 79.6397C79.6787 79.3994 79.6787 79.111 79.4864 78.9188C79.3423 78.7746 79.1981 78.7266 79.0059 78.7266C78.7656 78.7746 78.7175 78.9188 78.5734 79.063C78.4292 79.2071 78.1408 79.3513 77.9486 79.3994C77.7083 79.4955 77.42 79.5916 77.1797 79.6397C76.9875 79.6877 76.9394 79.928 77.0836 80.0241Z" fill="#333333"/>
<path d="M77.3249 82.666C76.8443 82.3776 76.0274 82.5218 75.4507 82.4738C74.6818 82.3776 73.8167 82.3296 73.1439 81.9932C72.8075 81.849 72.4231 82.0412 72.4231 82.4257C72.375 83.7232 73.5284 85.0208 74.874 84.6844C75.1143 84.6363 75.1143 84.348 74.9221 84.2519C74.2493 83.7232 73.3362 83.483 73.4323 82.4738C73.192 82.6179 72.9517 82.7621 72.7114 82.9063C73.5284 83.2907 74.5376 83.483 75.4507 83.5791C76.0274 83.6271 77.373 83.8194 77.5652 83.0504C77.5171 82.8582 77.4691 82.714 77.3249 82.666Z" fill="#333333"/>
<path d="M89.4334 123.562C92.3649 120.919 92.8455 114.623 90.5388 111.451C90.1543 110.923 89.3854 111.259 89.5296 111.884C89.8179 113.614 90.3946 115.2 90.3946 116.978C90.4426 119.333 89.5776 121.063 88.8087 123.177C88.6645 123.562 89.1931 123.802 89.4334 123.562Z" fill="#333333"/>
<path d="M52.9092 77.0443C53.7742 78.4379 64.9235 76.5637 70.354 72.7191C72.036 71.5177 74.7752 69.2109 75.1597 67.1925C76.5534 68.6343 83.5697 70.941 85.2998 70.6527C87.0299 70.3643 83.7139 67.1925 83.6178 65.4144C83.5697 64.1169 67.9992 59.6956 65.7885 60.2723C62.6648 61.1373 51.8039 75.2662 52.9092 77.0443Z" fill="#666666"/>
<path d="M56.9462 77.717C64.4911 77.2844 73.5259 74.0646 76.3613 66.4716C76.5055 66.039 75.9288 65.8949 75.6885 66.1832C73.574 69.0186 71.1711 71.5176 68.0474 73.1515C64.4911 74.9777 60.5504 75.6986 56.8981 77.1403C56.6098 77.2844 56.6098 77.765 56.9462 77.717Z" fill="#333333"/>
<path d="M73.1904 63.6851C73.9593 66.4724 76.4583 68.2986 78.8131 69.7884C80.9757 71.134 84.1475 72.8641 86.8387 72.1432C87.3193 71.999 87.2231 71.3743 86.8387 71.2301C82.1291 69.3559 77.3233 67.1933 73.8152 63.3487C73.5268 63.0604 73.0943 63.3487 73.1904 63.6851Z" fill="#333333"/>
<circle cx="73.3835" cy="148.361" r="13.9172" fill="white" stroke="#AAAAAA"/>
<path d="M65.2133 143.272C65.2133 143.026 65.4224 142.826 65.6805 142.826H81.5661C81.8241 142.826 82.0333 143.026 82.0333 143.272V153.362C82.0333 153.609 81.8241 153.808 81.5661 153.808H74.4135C74.2687 153.808 74.1321 153.872 74.0437 153.982L71.936 156.589C71.7358 156.837 71.3377 156.816 71.1672 156.549L69.6519 154.44C69.4183 153.975 68.8804 153.808 68.7174 153.808H65.6805C65.4224 153.808 65.2133 153.609 65.2133 153.362V143.272Z" fill="url(#paint2_linear_1657_18572)"/>
<path fill-rule="evenodd" clip-rule="evenodd" d="M67.1353 147.15C67.1353 146.885 67.259 146.67 67.4116 146.67H80.315C80.4676 146.67 80.5913 146.885 80.5913 147.15C80.5913 147.416 80.4676 147.631 80.315 147.631H67.4116C67.259 147.631 67.1353 147.416 67.1353 147.15Z" fill="white"/>
<path fill-rule="evenodd" clip-rule="evenodd" d="M67.1353 149.555C67.1353 149.289 67.2571 149.074 67.4074 149.074H75.994C76.1443 149.074 76.2661 149.289 76.2661 149.555C76.2661 149.82 76.1443 150.035 75.994 150.035H67.4074C67.2571 150.035 67.1353 149.82 67.1353 149.555Z" fill="white"/>
<rect x="174.5" y="117.76" width="92.2311" height="78.775" rx="11.5" fill="white" stroke="#CCCCCC"/>
<path d="M247.431 148.936C241.376 140.862 226.67 140.526 218.164 139.805C209.61 139.084 203.17 141.487 200.335 144.514C193.463 151.963 193.895 155.519 190.339 180.846C188.561 193.485 200.864 196.08 200.864 196.08C200.864 196.08 250.747 197.281 255.024 196.224C259.301 195.215 260.359 190.073 260.022 187.429C258.484 175.319 250.074 152.444 247.431 148.936ZM237.099 186.66L240.367 162.007C240.367 162.007 243.058 174.454 249.546 184.162L237.099 186.66Z" fill="#9ADAF3" stroke="#333333" stroke-miterlimit="10" stroke-linecap="round" stroke-linejoin="round"/>
<path d="M198.797 196.704C201.344 196.127 204.468 191.273 202.882 182.863C201.056 173.108 195.962 153.885 195.962 153.885C195.962 153.885 191.973 154.029 190.675 154.125C190.675 154.125 188.945 182.719 189.089 184.834C189.618 194.878 198.797 196.704 198.797 196.704Z" fill="#9ADAF3" stroke="#333333" stroke-miterlimit="10" stroke-linecap="round" stroke-linejoin="round"/>
<path d="M224.316 196.08C224.412 191.803 222.778 189.448 222.778 189.448L251.372 183.777" stroke="#333333" stroke-miterlimit="10" stroke-linecap="round" stroke-linejoin="round"/>
<path d="M215.329 200.453C213.503 200.981 211.388 200.164 210.331 198.771C209.274 197.377 209.178 195.599 209.754 194.013C210.187 192.812 221.144 189.832 221.336 190.072C223.018 192.187 223.595 196.031 223.595 196.031C221.913 197.425 217.588 199.828 215.329 200.453Z" fill="white" stroke="#333333" stroke-miterlimit="10" stroke-linecap="round" stroke-linejoin="round"/>
<path d="M204.084 150.713H201.825C199.038 150.713 196.827 148.454 196.827 145.715V138.41H209.082V145.715C209.082 148.454 206.823 150.713 204.084 150.713Z" fill="white" stroke="#333333" stroke-miterlimit="10" stroke-linecap="round" stroke-linejoin="round"/>
<path d="M188.754 149.417C188.273 148.023 188.033 146.485 188.61 145.14C189.09 144.034 190.148 143.217 191.253 142.641C192.935 141.776 194.857 141.391 196.779 141.535C197.789 141.632 198.846 141.872 199.615 142.545C200.384 143.217 200.816 144.323 200.432 145.284C200.095 146.149 199.182 146.63 198.509 147.206C197.692 147.975 197.116 148.984 196.924 150.138C196.731 151.291 196.924 152.589 196.155 153.454C195.482 154.271 194.232 154.367 193.223 154.126C192.31 153.934 190.532 153.742 190.051 153.117C189.379 152.348 189.09 150.426 188.754 149.417Z" fill="white" stroke="#333333" stroke-miterlimit="10" stroke-linecap="round" stroke-linejoin="round"/>
<path d="M202.45 180.028L202.402 167.293" stroke="#333333" stroke-miterlimit="10" stroke-linecap="round" stroke-linejoin="round"/>
<path d="M205.286 114.43C206.872 110.682 211.822 110.249 211.822 110.249C211.822 110.249 211.053 105.011 218.31 104.771C224.173 104.579 225.711 109.769 225.711 109.769C225.711 109.769 229.94 107.943 232.006 111.018C233.4 113.085 230.757 116.16 230.757 116.16C230.757 116.16 235.13 119.957 234.649 124.618C234.121 129.905 227.969 130.914 227.969 130.914L217.925 130.337L212.062 127.646L208.939 121.927C208.987 121.879 203.076 119.621 205.286 114.43Z" fill="white" stroke="#333333" stroke-miterlimit="10" stroke-linecap="round" stroke-linejoin="round"/>
<path d="M221.48 145.331H218.261C215.906 145.331 214.031 143.457 214.031 141.102V132.115H225.709V141.102C225.709 143.457 223.835 145.331 221.48 145.331Z" fill="white" stroke="#333333" stroke-miterlimit="10" stroke-linecap="round" stroke-linejoin="round"/>
<path d="M211.965 114.814C210.091 116.593 208.938 119.092 208.938 121.879V127.742C208.938 133.124 213.311 137.546 218.742 137.546C224.124 137.546 228.545 133.172 228.545 127.742V127.165C228.737 127.213 228.93 127.261 229.17 127.261C230.371 127.261 231.333 126.3 231.333 125.099C231.333 123.897 230.371 122.936 229.17 122.936C228.978 122.936 228.737 122.984 228.545 123.032V121.879" fill="white"/>
<path d="M211.965 114.814C210.091 116.593 208.938 119.092 208.938 121.879V127.742C208.938 133.124 213.311 137.546 218.742 137.546C224.124 137.546 228.545 133.172 228.545 127.742V127.165C228.737 127.213 228.93 127.261 229.17 127.261C230.371 127.261 231.333 126.3 231.333 125.099C231.333 123.897 230.371 122.936 229.17 122.936C228.978 122.936 228.737 122.984 228.545 123.032V121.879" stroke="#333333" stroke-miterlimit="10" stroke-linecap="round" stroke-linejoin="round"/>
<path d="M215.907 111.258C217.973 112.075 218.358 113.853 218.358 113.853C218.358 113.853 220.232 111.114 223.98 112.603C226.287 113.517 225.807 116.496 225.807 116.496C225.807 116.496 228.306 116.688 228.834 118.899" fill="white"/>
<path d="M215.907 111.258C217.973 112.075 218.358 113.853 218.358 113.853C218.358 113.853 220.232 111.114 223.98 112.603C226.287 113.517 225.807 116.496 225.807 116.496C225.807 116.496 228.306 116.688 228.834 118.899" stroke="#333333" stroke-miterlimit="10" stroke-linecap="round" stroke-linejoin="round"/>
<path d="M214.609 125.242C214.609 125.723 214.368 126.107 214.128 126.444C213.936 126.732 213.648 126.972 213.744 127.357C213.936 128.077 215.137 127.837 215.57 127.597C215.714 127.501 215.714 127.26 215.522 127.164C215.233 127.068 214.945 127.068 214.657 127.02C214.561 127.02 214.465 127.02 214.416 126.972C214.465 127.02 214.513 127.068 214.561 127.116C214.609 127.116 214.753 126.684 214.753 126.636C214.945 126.155 215.089 125.675 214.993 125.146C214.993 124.954 214.609 125.002 214.609 125.242Z" fill="#333333"/>
<path d="M215.186 130.432C215.041 130.384 214.945 130.384 214.801 130.432C214.801 130.432 214.705 130.432 214.753 130.432C214.849 130.432 214.609 130.384 214.801 130.432C214.897 130.48 214.945 130.576 215.041 130.624C215.041 130.672 215.041 130.672 215.089 130.72V130.624V130.576C215.089 130.624 215.089 130.624 215.089 130.576C215.089 130.528 215.089 130.48 215.089 130.432C215.089 130.143 214.897 129.855 214.561 129.855C214.272 129.807 213.936 129.999 213.888 130.288C213.84 130.48 213.792 130.72 213.792 130.96C213.792 131.345 214.032 131.681 214.417 131.777C214.897 131.873 215.666 131.537 215.618 130.96C215.57 130.672 215.426 130.48 215.186 130.432Z" fill="#333333"/>
<path d="M211.388 122.598C211.58 122.358 211.917 121.829 212.205 121.733C212.397 121.637 212.445 121.781 212.589 121.925C212.734 122.069 212.83 122.165 213.022 122.309C213.31 122.55 213.743 122.213 213.743 121.877C213.743 121.06 212.926 120.339 212.109 120.531C211.34 120.724 210.811 121.493 210.619 122.261C210.475 122.742 211.1 122.982 211.388 122.598Z" fill="#333333"/>
<path d="M217.54 122.743C217.588 122.743 217.588 122.743 217.636 122.743C217.829 122.743 218.021 122.599 218.117 122.455C218.213 122.311 218.501 121.83 218.694 121.83C218.934 121.782 219.078 122.023 219.222 122.119C219.559 122.359 219.943 122.743 220.279 122.84C220.952 123.08 221.241 122.407 221.048 121.878C220.76 121.109 219.895 120.437 219.078 120.389C218.069 120.292 217.492 121.109 217.108 121.926C217.012 122.167 217.012 122.407 217.204 122.647C217.3 122.647 217.396 122.743 217.54 122.743Z" fill="#333333"/>
<path d="M247.431 148.936C241.376 140.862 226.67 140.526 218.164 139.805C209.61 139.084 203.17 141.487 200.335 144.514C193.463 151.963 193.895 155.519 190.339 180.846C188.561 193.485 200.864 196.08 200.864 196.08C200.864 196.08 250.747 197.281 255.024 196.224C259.301 195.215 260.359 190.073 260.022 187.429C258.484 175.319 250.074 152.444 247.431 148.936ZM237.099 186.66L240.367 162.007C240.367 162.007 243.058 174.454 249.546 184.162L237.099 186.66Z" fill="#9ADAF3" stroke="#333333" stroke-miterlimit="10" stroke-linecap="round" stroke-linejoin="round"/>
<path d="M198.797 196.704C201.344 196.127 204.468 191.273 202.882 182.863C201.056 173.108 195.962 153.885 195.962 153.885C195.962 153.885 191.973 154.029 190.675 154.125C190.675 154.125 188.945 182.719 189.089 184.834C189.618 194.878 198.797 196.704 198.797 196.704Z" fill="#9ADAF3" stroke="#333333" stroke-miterlimit="10" stroke-linecap="round" stroke-linejoin="round"/>
<path d="M224.316 196.08C224.412 191.803 222.778 189.448 222.778 189.448L251.372 183.777" stroke="#333333" stroke-miterlimit="10" stroke-linecap="round" stroke-linejoin="round"/>
<path d="M215.329 200.453C213.503 200.981 211.388 200.164 210.331 198.771C209.274 197.377 209.178 195.599 209.754 194.013C210.187 192.812 221.144 189.832 221.336 190.072C223.018 192.187 223.595 196.031 223.595 196.031C221.913 197.425 217.588 199.828 215.329 200.453Z" fill="white" stroke="#333333" stroke-miterlimit="10" stroke-linecap="round" stroke-linejoin="round"/>
<path d="M204.084 150.713H201.825C199.038 150.713 196.827 148.454 196.827 145.715V138.41H209.082V145.715C209.082 148.454 206.823 150.713 204.084 150.713Z" fill="white" stroke="#333333" stroke-miterlimit="10" stroke-linecap="round" stroke-linejoin="round"/>
<path d="M188.754 149.417C188.273 148.023 188.033 146.485 188.61 145.14C189.09 144.034 190.148 143.217 191.253 142.641C192.935 141.776 194.857 141.391 196.779 141.535C197.789 141.632 198.846 141.872 199.615 142.545C200.384 143.217 200.816 144.323 200.432 145.284C200.095 146.149 199.182 146.63 198.509 147.206C197.692 147.975 197.116 148.984 196.924 150.138C196.731 151.291 196.924 152.589 196.155 153.454C195.482 154.271 194.232 154.367 193.223 154.126C192.31 153.934 190.532 153.742 190.051 153.117C189.379 152.348 189.09 150.426 188.754 149.417Z" fill="white" stroke="#333333" stroke-miterlimit="10" stroke-linecap="round" stroke-linejoin="round"/>
<path d="M202.45 180.028L202.402 167.293" stroke="#333333" stroke-miterlimit="10" stroke-linecap="round" stroke-linejoin="round"/>
<path d="M205.286 114.43C206.872 110.682 211.822 110.249 211.822 110.249C211.822 110.249 211.053 105.011 218.31 104.771C224.173 104.579 225.711 109.769 225.711 109.769C225.711 109.769 229.94 107.943 232.006 111.018C233.4 113.085 230.757 116.16 230.757 116.16C230.757 116.16 235.13 119.957 234.649 124.618C234.121 129.905 227.969 130.914 227.969 130.914L217.925 130.337L212.062 127.646L208.939 121.927C208.987 121.879 203.076 119.621 205.286 114.43Z" fill="white" stroke="#333333" stroke-miterlimit="10" stroke-linecap="round" stroke-linejoin="round"/>
<path d="M221.48 145.331H218.261C215.906 145.331 214.031 143.457 214.031 141.102V132.115H225.709V141.102C225.709 143.457 223.835 145.331 221.48 145.331Z" fill="white" stroke="#333333" stroke-miterlimit="10" stroke-linecap="round" stroke-linejoin="round"/>
<path d="M211.965 114.814C210.091 116.593 208.938 119.092 208.938 121.879V127.742C208.938 133.124 213.311 137.546 218.742 137.546C224.124 137.546 228.545 133.172 228.545 127.742V127.165C228.737 127.213 228.93 127.261 229.17 127.261C230.371 127.261 231.333 126.3 231.333 125.099C231.333 123.897 230.371 122.936 229.17 122.936C228.978 122.936 228.737 122.984 228.545 123.032V121.879" fill="white"/>
<path d="M211.965 114.814C210.091 116.593 208.938 119.092 208.938 121.879V127.742C208.938 133.124 213.311 137.546 218.742 137.546C224.124 137.546 228.545 133.172 228.545 127.742V127.165C228.737 127.213 228.93 127.261 229.17 127.261C230.371 127.261 231.333 126.3 231.333 125.099C231.333 123.897 230.371 122.936 229.17 122.936C228.978 122.936 228.737 122.984 228.545 123.032V121.879" stroke="#333333" stroke-miterlimit="10" stroke-linecap="round" stroke-linejoin="round"/>
<path d="M215.907 111.258C217.973 112.075 218.358 113.853 218.358 113.853C218.358 113.853 220.232 111.114 223.98 112.603C226.287 113.517 225.807 116.496 225.807 116.496C225.807 116.496 228.306 116.688 228.834 118.899" fill="white"/>
<path d="M215.907 111.258C217.973 112.075 218.358 113.853 218.358 113.853C218.358 113.853 220.232 111.114 223.98 112.603C226.287 113.517 225.807 116.496 225.807 116.496C225.807 116.496 228.306 116.688 228.834 118.899" stroke="#333333" stroke-miterlimit="10" stroke-linecap="round" stroke-linejoin="round"/>
<path d="M214.224 124.57C214.224 125.339 213.887 126.012 213.503 126.637C213.311 126.973 212.878 127.406 212.926 127.838C213.119 128.895 214.945 128.463 215.569 128.223C215.81 128.127 215.762 127.79 215.521 127.79C215.041 127.742 214.56 127.694 214.08 127.646C213.743 127.646 213.743 127.742 213.839 127.454C213.936 127.262 214.08 127.021 214.128 126.829C214.464 126.108 214.752 125.339 214.656 124.522C214.608 124.282 214.224 124.282 214.224 124.57Z" fill="#333333"/>
<path d="M215.234 131.252C215.234 131.204 215.138 131.252 215.234 131.252C215.186 131.252 215.138 131.252 215.042 131.252C214.945 131.252 214.897 131.252 214.801 131.3C214.705 131.348 214.705 131.348 214.753 131.3C214.753 131.3 214.609 131.348 214.657 131.348C214.705 131.348 214.657 131.348 214.657 131.348C214.513 131.348 214.609 131.396 214.897 131.54C214.945 131.54 214.897 131.732 214.897 131.54C214.897 131.396 214.849 131.252 214.849 131.108C214.849 130.867 214.657 130.579 214.417 130.531C213.696 130.435 213.552 131.3 213.552 131.78C213.552 132.309 213.936 132.693 214.465 132.693C214.801 132.693 215.138 132.501 215.378 132.261C215.618 132.021 215.57 131.732 215.522 131.396C215.522 131.252 215.378 131.156 215.234 131.252Z" fill="#333333"/>
<path d="M211.053 122.984C211.245 122.696 211.581 122.167 211.918 122.023C212.254 121.879 212.446 122.36 212.686 122.552C213.311 122.984 213.648 122.263 213.455 121.687C213.167 120.966 212.302 120.581 211.629 120.87C210.908 121.158 210.428 121.879 210.284 122.6C210.091 123.176 210.764 123.417 211.053 122.984Z" fill="#333333"/>
<path d="M217.059 123.129C217.347 123.129 217.491 123.033 217.635 122.841C217.924 122.504 218.164 121.976 218.645 122.216C219.221 122.504 219.606 123.177 220.279 123.273C220.423 123.321 220.615 123.273 220.663 123.129C221.432 121.928 219.317 120.534 218.26 120.678C217.587 120.774 217.107 121.303 216.77 121.88C216.674 122.168 216.338 123.177 217.059 123.129Z" fill="#333333"/>
<circle cx="219.174" cy="196.556" r="13.9172" fill="white" stroke="#AAAAAA"/>
<path fill-rule="evenodd" clip-rule="evenodd" d="M210.524 191.235C210.524 190.989 210.733 190.789 210.991 190.789H226.877C227.135 190.789 227.344 190.989 227.344 191.235V201.325C227.344 201.571 227.135 201.771 226.877 201.771H219.724C219.58 201.771 219.443 201.835 219.355 201.945L217.247 204.552C217.047 204.8 216.649 204.779 216.478 204.512L214.963 202.403C214.729 201.938 214.191 201.771 214.028 201.771H210.991C210.733 201.771 210.524 201.571 210.524 201.325V191.235ZM212.446 195.114C212.446 194.849 212.57 194.634 212.722 194.634H225.626C225.778 194.634 225.902 194.849 225.902 195.114C225.902 195.38 225.778 195.595 225.626 195.595H212.722C212.57 195.595 212.446 195.38 212.446 195.114ZM212.718 197.037C212.568 197.037 212.446 197.252 212.446 197.517C212.446 197.783 212.568 197.998 212.718 197.998H221.305C221.455 197.998 221.577 197.783 221.577 197.517C221.577 197.252 221.455 197.037 221.305 197.037H212.718Z" fill="#FF6F3D"/>
<defs>
<linearGradient id="paint0_linear_1657_18572" x1="38.8233" y1="119.178" x2="109.974" y2="119.178" gradientUnits="userSpaceOnUse">
<stop stop-color="#FFA363"/>
<stop offset="0.9127" stop-color="#FF7743"/>
</linearGradient>
<linearGradient id="paint1_linear_1657_18572" x1="38.8233" y1="119.178" x2="109.974" y2="119.178" gradientUnits="userSpaceOnUse">
<stop stop-color="#FFA363"/>
<stop offset="0.9127" stop-color="#FF7743"/>
</linearGradient>
<linearGradient id="paint2_linear_1657_18572" x1="65.2133" y1="142.282" x2="78.8103" y2="159.333" gradientUnits="userSpaceOnUse">
<stop stop-color="#FF8E3D"/>
<stop offset="1" stop-color="#FF6F3D"/>
</linearGradient>
</defs>
</svg>
