<svg width="16" height="16" viewBox="0 0 16 16" fill="none" xmlns="http://www.w3.org/2000/svg">
<path d="M3.5 10.3063V3.53852L5.90969 2.57464C5.99974 2.53862 6.09833 2.52957 6.19344 2.54859L10.6415 3.43821C10.8975 3.4894 11.1624 3.47291 11.4101 3.39036L12.8419 2.91308C13.1657 2.80516 13.5 3.04615 13.5 3.38743V9.27924C13.5 9.49446 13.3623 9.68553 13.1581 9.75358L11.0938 10.4417C11.0113 10.4692 10.923 10.4747 10.8377 10.4576L6.35847 9.56179L6.26041 10.0521L6.35846 9.56179C6.10249 9.5106 5.83759 9.52709 5.58995 9.60964L3.5 10.3063Z" stroke="#444444" stroke-linejoin="round"/>
<rect x="3" y="1" width="1" height="14" rx="0.5" fill="#444444"/>
</svg>
