<svg width="48" height="48" viewBox="0 0 48 48" fill="none" xmlns="http://www.w3.org/2000/svg">
<path d="M40.5 43C40.5 44.3807 39.3807 45.5 38 45.5H11C9.61929 45.5 8.5 44.3807 8.5 43V5C8.5 3.61929 9.61929 2.5 11 2.5H31.7929L40.5 11.2071V43Z" fill="white" stroke="#333333"/>
<path d="M32.5 3.20711L39.7929 10.5H32.5V3.20711Z" fill="#95C03D" stroke="#333333" stroke-linecap="round" stroke-linejoin="round"/>
<path fill-rule="evenodd" clip-rule="evenodd" d="M29 20C32.3137 20 35 17.3137 35 14H29V8C25.6863 8 23 10.6863 23 14C23 17.3137 25.6863 20 29 20Z" fill="#95C03D"/>
<rect x="14.5" y="23.5" width="10" height="5" fill="white" stroke="#333333"/>
<rect x="14.5" y="28.5" width="10" height="5" fill="white" stroke="#333333"/>
<rect x="14.5" y="33.5" width="10" height="5" fill="white" stroke="#333333"/>
<rect x="24.5" y="23.5" width="10" height="5" fill="white" stroke="#333333"/>
<rect x="24.5" y="28.5" width="10" height="5" fill="white" stroke="#333333"/>
<rect x="24.5" y="33.5" width="10" height="5" fill="white" stroke="#333333"/>
<rect x="14" y="8" width="5" height="2" fill="#95C03D"/>
<rect x="14" y="12" width="5" height="2" fill="#95C03D"/>
<rect x="14" y="16" width="5" height="2" fill="#95C03D"/>
</svg>
