<svg width="24" height="24" viewBox="0 0 24 24" fill="none" xmlns="http://www.w3.org/2000/svg">
<path d="M15.3782 11.576C15.6915 11.7718 15.6915 12.2282 15.3782 12.424L10.265 15.6198C9.93198 15.8279 9.5 15.5885 9.5 15.1958L9.5 8.80425C9.5 8.41153 9.93198 8.17211 10.265 8.38025L15.3782 11.576Z" stroke="#FF6F3D"/>
<path d="M19.3909 3.1892C17.3922 1.51082 14.8142 0.5 12 0.5C5.64873 0.5 0.5 5.64873 0.5 12C0.5 18.3513 5.64873 23.5 12 23.5C18.3513 23.5 23.5 18.3513 23.5 12C23.5 10.2899 23.1267 8.66703 22.4573 7.20833" stroke="#333333" stroke-linecap="round"/>
</svg>
