<svg width="24" height="24" viewBox="0 0 24 24" fill="none" xmlns="http://www.w3.org/2000/svg">
<path d="M20 6.00024V18.0002H4V6.00024H20ZM20 5.00024H4C3.4 5.00024 3 5.40024 3 6.00024V18.0002C3 18.6002 3.4 19.0002 4 19.0002H20C20.6 19.0002 21 18.6002 21 18.0002V6.00024C21 5.40024 20.6 5.00024 20 5.00024Z" fill="#B5B5B5"/>
<path d="M4.3 18.0002H19.7C19.9 18.0002 20 17.9002 20 17.7002V6.30024C20 6.10024 19.9 6.00024 19.7 6.00024H4.3C4.1 6.00024 4 6.10024 4 6.30024V17.7002C4 17.9002 4.1 18.0002 4.3 18.0002Z" fill="#C8414B"/>
<path d="M20 8.00024H4V16.0002H20V8.00024Z" fill="#FFD250"/>
<path d="M10.8 12.0002L11 10.8002C11 10.7002 10.9 10.6002 10.8 10.6002H10.6C10.5 10.6002 10.4 10.7002 10.4 10.8002L10.8 12.0002Z" fill="#C8414B"/>
<path d="M11.1 11.4003H10.5V14.1003H11.1V11.4003Z" fill="#F5F5F5"/>
<path d="M11.1 11.1002H10.3V11.4002H11.1V11.1002Z" fill="#FAB446"/>
<path d="M11.2 12.0002H9.79999V12.3002H11.2V12.0002Z" fill="#C8414B"/>
<path d="M11.2 13.3003L10.4 13.0003V12.7003L11.2 13.0003V13.3003Z" fill="#C8414B"/>
<path d="M6.59999 12.0002L6.79999 10.8002C6.79999 10.7002 6.69999 10.6002 6.59999 10.6002H6.49999C6.39999 10.6002 6.29999 10.7002 6.29999 10.8002L6.59999 12.0002Z" fill="#C8414B"/>
<path d="M7.59999 11.1002C7.39999 11.1002 7.29999 11.2002 7.29999 11.4002V13.5002C7.29999 13.9002 7.59999 14.6002 8.69999 14.6002C9.79999 14.6002 10.1 13.9002 10.1 13.5002V11.4002C10.1 11.2002 9.99999 11.1002 9.79999 11.1002H7.59999Z" fill="#F5F5F5"/>
<path d="M8.69999 12.6002H7.29999V11.3002C7.29999 11.1002 7.39999 11.0002 7.59999 11.0002H8.69999V12.6002Z" fill="#C8414B"/>
<path d="M8.70001 12.6002H10.1V13.4002C10.1 13.8002 9.80001 14.2002 9.40001 14.2002C9.00001 14.2002 8.70001 13.8002 8.70001 13.4002V12.6002Z" fill="#C8414B"/>
<path d="M7.29999 12.6002H8.69999V13.4002C8.69999 13.8002 8.39999 14.2002 7.99999 14.2002C7.59999 14.2002 7.29999 13.8002 7.29999 13.4002V12.6002Z" fill="#FAB446"/>
<path d="M8.39997 14.0002V12.6002H8.09998V14.2002C8.19998 14.2002 8.29997 14.1002 8.39997 14.0002Z" fill="#C8414B"/>
<path d="M7.89998 14.2002V12.6002H7.59998V14.0002C7.69998 14.1002 7.79998 14.2002 7.89998 14.2002Z" fill="#C8414B"/>
<path d="M8.39998 12.0002H7.59998V12.3002H8.39998V12.0002Z" fill="#FFB441"/>
<path d="M8.39998 11.4003H7.59998V11.7003H8.39998V11.4003Z" fill="#FAB446"/>
<path d="M8.30001 11.6002H7.70001V12.2002H8.30001V11.6002Z" fill="#FAB446"/>
<path d="M6.89999 11.4003H6.29999V14.1003H6.89999V11.4003Z" fill="#F5F5F5"/>
<path d="M7.00001 13.9003H6.20001V14.2003H7.00001V13.9003Z" fill="#FAB446"/>
<path d="M7.00001 11.1002H6.20001V11.4002H7.00001V11.1002Z" fill="#FAB446"/>
<path d="M7.19998 14.2003H6.09998V14.5003H7.19998V14.2003Z" fill="#5064AA"/>
<path d="M11.3 13.9003H10.5V14.2003H11.3V13.9003Z" fill="#FAB446"/>
<path d="M11.3 14.2003H10.2V14.5003H11.3V14.2003Z" fill="#5064AA"/>
<path d="M9.60002 10.7003H7.90002V11.0003H9.60002V10.7003Z" fill="#FAB446"/>
<path d="M8.89997 9.80023H8.59998V10.7002H8.89997V9.80023Z" fill="#FFB441"/>
<path d="M8.4 10.3002C8.2 10.3002 8 10.1002 8 9.80023C8 9.50023 8.2 9.30023 8.4 9.30023C8.6 9.30023 8.8 9.50023 8.8 9.80023C8.8 10.1002 8.6 10.3002 8.4 10.3002ZM8.4 9.60023C8.3 9.60023 8.3 9.70023 8.3 9.80023C8.3 9.90023 8.4 10.0002 8.4 10.0002C8.5 10.0002 8.5 9.90023 8.5 9.80023C8.5 9.70023 8.5 9.60023 8.4 9.60023Z" fill="#F5F5F5"/>
<path d="M8.99998 10.3002C8.79998 10.3002 8.59998 10.1002 8.59998 9.80023C8.59998 9.50023 8.79998 9.30023 8.99998 9.30023C9.19998 9.30023 9.39997 9.50023 9.39997 9.80023C9.39997 10.1002 9.19998 10.3002 8.99998 10.3002ZM8.99998 9.60023C8.89998 9.60023 8.89997 9.70023 8.89997 9.80023C8.89997 9.90023 8.99998 10.0002 8.99998 10.0002C9.09998 10.0002 9.09998 9.90023 9.09998 9.80023C9.09998 9.70023 8.99998 9.60023 8.99998 9.60023Z" fill="#F5F5F5"/>
<path d="M9.49998 10.6002C9.29998 10.6002 9.09998 10.4002 9.09998 10.1002C9.09998 9.80022 9.29998 9.60022 9.49998 9.60022C9.69998 9.60022 9.89997 9.80022 9.89997 10.1002C9.89997 10.4002 9.69998 10.6002 9.49998 10.6002ZM9.49998 9.90022C9.39998 9.90022 9.39997 10.0002 9.39997 10.1002C9.39997 10.2002 9.49998 10.3002 9.49998 10.3002C9.49998 10.3002 9.59998 10.2002 9.59998 10.1002C9.69998 10.0002 9.59998 9.90022 9.49998 9.90022Z" fill="#F5F5F5"/>
<path d="M7.9 10.6002C7.7 10.6002 7.5 10.4002 7.5 10.1002C7.5 9.80022 7.7 9.60022 7.9 9.60022C8.1 9.60022 8.3 9.80022 8.3 10.1002C8.3 10.4002 8.1 10.6002 7.9 10.6002ZM7.9 9.90022C7.8 9.90022 7.8 10.0002 7.8 10.1002C7.8 10.2002 7.9 10.3002 7.9 10.3002C8 10.3002 8 10.2002 8 10.1002C8 10.0002 7.9 9.90022 7.9 9.90022Z" fill="#F5F5F5"/>
<path d="M9.5 13.3003V13.5003C9.5 13.6003 9.4 13.7003 9.4 13.7003C9.3 13.7003 9.3 13.6003 9.3 13.5003V13.3003H9.5ZM9.8 12.9003H9V13.4003C9 13.7003 9.2 13.9003 9.4 13.9003C9.6 13.9003 9.8 13.7003 9.8 13.4003V12.9003Z" fill="#FAB446"/>
<path d="M9.39997 12.3003C9.19997 12.3003 9.09998 12.2003 9.09998 12.0003V11.7003C9.09998 11.5003 9.19997 11.4003 9.39997 11.4003C9.59997 11.4003 9.69998 11.5003 9.69998 11.7003V12.0003C9.69998 12.2003 9.49997 12.3003 9.39997 12.3003Z" fill="#FFA0D2"/>
<path d="M9.09999 12.6002C9.09999 12.9002 8.89999 13.1002 8.69999 13.1002C8.49999 13.1002 8.29999 12.9002 8.29999 12.6002C8.29999 12.3002 8.49999 12.1002 8.69999 12.1002C8.89999 12.2002 9.09999 12.4002 9.09999 12.6002Z" fill="#5064AA"/>
<path d="M8.89997 9.20026H8.59998V10.1003H8.89997V9.20026Z" fill="#FAB446"/>
<path d="M7.89998 10.7002L7.59998 10.4002L7.79998 10.2002C7.99998 10.0002 8.29998 9.80023 8.69998 9.80023C9.09998 9.80023 9.39998 10.0002 9.59998 10.2002L9.79998 10.4002L9.49998 10.7002H7.89998Z" fill="#C8414B"/>
<path d="M8.79998 10.4003C8.79998 10.5003 8.69998 10.6003 8.69998 10.6003C8.59998 10.6003 8.59998 10.5003 8.59998 10.4003C8.59998 10.3003 8.69998 10.2003 8.69998 10.2003C8.79998 10.3003 8.79998 10.3003 8.79998 10.4003Z" fill="#FFD250"/>
<path d="M8.29998 10.4003C8.29998 10.5003 8.19998 10.6003 8.19998 10.6003C8.09998 10.6003 8.09998 10.5003 8.09998 10.4003C8.09998 10.3003 8.19998 10.2003 8.19998 10.2003C8.19998 10.3003 8.29998 10.3003 8.29998 10.4003Z" fill="#FFD250"/>
<path d="M9.40001 10.4003C9.40001 10.5003 9.30001 10.6003 9.30001 10.6003C9.20001 10.6003 9.20001 10.5003 9.20001 10.4003C9.20001 10.3003 9.30001 10.2003 9.30001 10.2003C9.30001 10.3003 9.40001 10.3003 9.40001 10.4003Z" fill="#FFD250"/>
<path d="M7.60001 12.0002H6.20001V12.3002H7.60001V12.0002Z" fill="#C8414B"/>
<path d="M6.20001 13.3002L7.00001 12.9002V12.6002L6.20001 12.9002V13.3002Z" fill="#C8414B"/>
</svg>
