<svg width="216" height="24" viewBox="0 0 216 24" fill="none" xmlns="http://www.w3.org/2000/svg">
<path d="M20 10.0002H4V6.30024C4 6.10024 4.1 6.00024 4.3 6.00024H19.7C19.9 6.00024 20 6.10024 20 6.30024V10.0002Z" fill="#464655"/>
<path d="M19.7 18.0002H4.3C4.1 18.0002 4 17.9002 4 17.7002V14.0002H20V17.7002C20 17.9002 19.9 18.0002 19.7 18.0002Z" fill="#FFE15A"/>
<path d="M20 10.0002H4V14.0002H20V10.0002Z" fill="#FF4B55"/>
<path d="M20 6.00024V18.0002H4V6.00024H20ZM20 5.00024H4C3.4 5.00024 3 5.40024 3 6.00024V18.0002C3 18.6002 3.4 19.0002 4 19.0002H20C20.6 19.0002 21 18.6002 21 18.0002V6.00024C21 5.40024 20.6 5.00024 20 5.00024Z" fill="#B5B5B5"/>
<path d="M52 5H36C35.4 5 35 5.4 35 6V18C35 18.6 35.4 19 36 19H52C52.6 19 53 18.6 53 18V6C53 5.4 52.6 5 52 5Z" fill="#B5B5B5"/>
<path d="M51.7 18H36.3C36.1 18 36 17.9 36 17.7V6.29999C36 6.09999 36.1 6 36.3 6H51.7C51.9 6 52 6.09999 52 6.29999V17.7C52 17.9 51.9 18 51.7 18Z" fill="#41479B"/>
<path d="M52 6.29999C52 6.09999 52 6 52 6H49L46 9V6H42V9L39 6H36.3C36.1 6 36 6.09999 36 6.29999V7L39 10H36V14H39L36 17V17.7C36 17.9 36.1 18 36.3 18H39L42 15V18H46V14L50 18H52V17.7V17L49 14H52V10H49L52 7V6.29999Z" fill="#F5F5F5"/>
<path d="M52 11H45V6H43V11H36V13H43V18H45V13H52V11Z" fill="#FF4B55"/>
<path d="M49 18L46 15V14H47L50 17L51 18H49Z" fill="#FF4B55"/>
<path d="M37 6L41 10H42V9L39 6H37Z" fill="#FF4B55"/>
<path d="M37 18L41 14H40H39L36 17V18H37Z" fill="#FF4B55"/>
<path d="M51 6L47 10H48H49L52 7V6H51Z" fill="#FF4B55"/>
<path d="M48 8H37V9H47L48 8Z" fill="#F5F5F5"/>
<path d="M50 6H38V7H49L50 6Z" fill="#F5F5F5"/>
<path d="M46 10H38V11H45L46 10Z" fill="#F5F5F5"/>
<path d="M44 12H36V13H43L44 12Z" fill="#F5F5F5"/>
<path d="M42 14H36V15H41L42 14Z" fill="#F5F5F5"/>
<path d="M40 16H36V17H39L40 16Z" fill="#F5F5F5"/>
<path d="M47 9H36V10H46L47 9Z" fill="#FF4B55"/>
<path d="M49 7H36V8H48L49 7Z" fill="#FF4B55"/>
<path d="M36 11V12H41.2H43V11H36Z" fill="#FF4B55"/>
<path d="M43 13H36V14H42L43 13Z" fill="#FF4B55"/>
<path d="M41 15H36V16H40L41 15Z" fill="#FF4B55"/>
<path d="M39 17H36V18H38L39 17Z" fill="#FF4B55"/>
<path d="M46 11H36V12H45L46 11Z" fill="#FF4B55"/>
<path d="M45 11L44 12H36V6H45V11Z" fill="#41479B"/>
<path d="M38 6H37V7H38V6Z" fill="white"/>
<path d="M40 6H39V7H40V6Z" fill="white"/>
<path d="M42 6H41V7H42V6Z" fill="white"/>
<path d="M44 6H43V7H44V6Z" fill="white"/>
<path d="M44 8H43V9H44V8Z" fill="white"/>
<path d="M42 8H41V9H42V8Z" fill="white"/>
<path d="M40 8H39V9H40V8Z" fill="white"/>
<path d="M38 8H37V9H38V8Z" fill="white"/>
<path d="M38 10H37V11H38V10Z" fill="white"/>
<path d="M40 10H39V11H40V10Z" fill="white"/>
<path d="M42 10H41V11H42V10Z" fill="white"/>
<path d="M44 10H43V11H44V10Z" fill="white"/>
<path d="M84 6.00024V18.0002H68V6.00024H84ZM84 5.00024H68C67.4 5.00024 67 5.40024 67 6.00024V18.0002C67 18.6002 67.4 19.0002 68 19.0002H84C84.6 19.0002 85 18.6002 85 18.0002V6.00024C85 5.40024 84.6 5.00024 84 5.00024Z" fill="#B5B5B5"/>
<path d="M68.3 18.0002H83.7C83.9 18.0002 84 17.9002 84 17.7002V6.30024C84 6.10024 83.9 6.00024 83.7 6.00024H68.3C68.1 6.00024 68 6.10024 68 6.30024V17.7002C68 17.9002 68.1 18.0002 68.3 18.0002Z" fill="#C8414B"/>
<path d="M84 8.00024H68V16.0002H84V8.00024Z" fill="#FFD250"/>
<path d="M74.8004 12.0002L75.0004 10.8002C75.0004 10.7002 74.9004 10.6002 74.8004 10.6002H74.6004C74.5004 10.6002 74.4004 10.7002 74.4004 10.8002L74.8004 12.0002Z" fill="#C8414B"/>
<path d="M75.1 11.4003H74.5V14.1003H75.1V11.4003Z" fill="#F5F5F5"/>
<path d="M75.0998 11.1002H74.2998V11.4002H75.0998V11.1002Z" fill="#FAB446"/>
<path d="M75.1998 12.0002H73.7998V12.3002H75.1998V12.0002Z" fill="#C8414B"/>
<path d="M75.2004 13.3003L74.4004 13.0003V12.7003L75.2004 13.0003V13.3003Z" fill="#C8414B"/>
<path d="M70.5998 12.0002L70.7998 10.8002C70.7998 10.7002 70.6998 10.6002 70.5998 10.6002H70.4998C70.3998 10.6002 70.2998 10.7002 70.2998 10.8002L70.5998 12.0002Z" fill="#C8414B"/>
<path d="M71.5998 11.1002C71.3998 11.1002 71.2998 11.2002 71.2998 11.4002V13.5002C71.2998 13.9002 71.5998 14.6002 72.6998 14.6002C73.7998 14.6002 74.0998 13.9002 74.0998 13.5002V11.4002C74.0998 11.2002 73.9998 11.1002 73.7998 11.1002H71.5998Z" fill="#F5F5F5"/>
<path d="M72.6998 12.6002H71.2998V11.3002C71.2998 11.1002 71.3998 11.0002 71.5998 11.0002H72.6998V12.6002Z" fill="#C8414B"/>
<path d="M72.7002 12.6002H74.1002V13.4002C74.1002 13.8002 73.8002 14.2002 73.4002 14.2002C73.0002 14.2002 72.7002 13.8002 72.7002 13.4002V12.6002Z" fill="#C8414B"/>
<path d="M71.2998 12.6002H72.6998V13.4002C72.6998 13.8002 72.3998 14.2002 71.9998 14.2002C71.5998 14.2002 71.2998 13.8002 71.2998 13.4002V12.6002Z" fill="#FAB446"/>
<path d="M72.3996 14.0002V12.6002H72.0996V14.2002C72.1996 14.2002 72.2996 14.1002 72.3996 14.0002Z" fill="#C8414B"/>
<path d="M71.8996 14.2002V12.6002H71.5996V14.0002C71.6996 14.1002 71.7996 14.2002 71.8996 14.2002Z" fill="#C8414B"/>
<path d="M72.3996 12.0002H71.5996V12.3002H72.3996V12.0002Z" fill="#FFB441"/>
<path d="M72.3996 11.4003H71.5996V11.7003H72.3996V11.4003Z" fill="#FAB446"/>
<path d="M72.3002 11.6002H71.7002V12.2002H72.3002V11.6002Z" fill="#FAB446"/>
<path d="M70.8998 11.4003H70.2998V14.1003H70.8998V11.4003Z" fill="#F5F5F5"/>
<path d="M71.0002 13.9003H70.2002V14.2003H71.0002V13.9003Z" fill="#FAB446"/>
<path d="M71.0002 11.1002H70.2002V11.4002H71.0002V11.1002Z" fill="#FAB446"/>
<path d="M71.1996 14.2003H70.0996V14.5003H71.1996V14.2003Z" fill="#5064AA"/>
<path d="M75.3 13.9003H74.5V14.2003H75.3V13.9003Z" fill="#FAB446"/>
<path d="M75.3002 14.2003H74.2002V14.5003H75.3002V14.2003Z" fill="#5064AA"/>
<path d="M73.6004 10.7003H71.9004V11.0003H73.6004V10.7003Z" fill="#FAB446"/>
<path d="M72.8996 9.80017H72.5996V10.7001H72.8996V9.80017Z" fill="#FFB441"/>
<path d="M72.4 10.3001C72.2 10.3001 72 10.1001 72 9.80017C72 9.50017 72.2 9.30017 72.4 9.30017C72.6 9.30017 72.8 9.50017 72.8 9.80017C72.8 10.1001 72.6 10.3001 72.4 10.3001ZM72.4 9.60017C72.3 9.60017 72.3 9.70017 72.3 9.80017C72.3 9.90017 72.4 10.0001 72.4 10.0001C72.5 10.0001 72.5 9.90017 72.5 9.80017C72.5 9.70017 72.5 9.60017 72.4 9.60017Z" fill="#F5F5F5"/>
<path d="M72.9996 10.3001C72.7996 10.3001 72.5996 10.1001 72.5996 9.80017C72.5996 9.50017 72.7996 9.30017 72.9996 9.30017C73.1996 9.30017 73.3996 9.50017 73.3996 9.80017C73.3996 10.1001 73.1996 10.3001 72.9996 10.3001ZM72.9996 9.60017C72.8996 9.60017 72.8996 9.70017 72.8996 9.80017C72.8996 9.90017 72.9996 10.0001 72.9996 10.0001C73.0996 10.0001 73.0996 9.90017 73.0996 9.80017C73.0996 9.70017 72.9996 9.60017 72.9996 9.60017Z" fill="#F5F5F5"/>
<path d="M73.4996 10.6002C73.2996 10.6002 73.0996 10.4002 73.0996 10.1002C73.0996 9.80022 73.2996 9.60022 73.4996 9.60022C73.6996 9.60022 73.8996 9.80022 73.8996 10.1002C73.8996 10.4002 73.6996 10.6002 73.4996 10.6002ZM73.4996 9.90022C73.3996 9.90022 73.3996 10.0002 73.3996 10.1002C73.3996 10.2002 73.4996 10.3002 73.4996 10.3002C73.4996 10.3002 73.5996 10.2002 73.5996 10.1002C73.6996 10.0002 73.5996 9.90022 73.4996 9.90022Z" fill="#F5F5F5"/>
<path d="M71.9 10.6002C71.7 10.6002 71.5 10.4002 71.5 10.1002C71.5 9.80022 71.7 9.60022 71.9 9.60022C72.1 9.60022 72.3 9.80022 72.3 10.1002C72.3 10.4002 72.1 10.6002 71.9 10.6002ZM71.9 9.90022C71.8 9.90022 71.8 10.0002 71.8 10.1002C71.8 10.2002 71.9 10.3002 71.9 10.3002C72 10.3002 72 10.2002 72 10.1002C72 10.0002 71.9 9.90022 71.9 9.90022Z" fill="#F5F5F5"/>
<path d="M73.5 13.3003V13.5003C73.5 13.6003 73.4 13.7003 73.4 13.7003C73.3 13.7003 73.3 13.6003 73.3 13.5003V13.3003H73.5ZM73.8 12.9003H73V13.4003C73 13.7003 73.2 13.9003 73.4 13.9003C73.6 13.9003 73.8 13.7003 73.8 13.4003V12.9003Z" fill="#FAB446"/>
<path d="M73.3996 12.3003C73.1996 12.3003 73.0996 12.2003 73.0996 12.0003V11.7003C73.0996 11.5003 73.1996 11.4003 73.3996 11.4003C73.5996 11.4003 73.6996 11.5003 73.6996 11.7003V12.0003C73.6996 12.2003 73.4996 12.3003 73.3996 12.3003Z" fill="#FFA0D2"/>
<path d="M73.0998 12.6002C73.0998 12.9002 72.8998 13.1002 72.6998 13.1002C72.4998 13.1002 72.2998 12.9002 72.2998 12.6002C72.2998 12.3002 72.4998 12.1002 72.6998 12.1002C72.8998 12.2002 73.0998 12.4002 73.0998 12.6002Z" fill="#5064AA"/>
<path d="M72.8996 9.20032H72.5996V10.1004H72.8996V9.20032Z" fill="#FAB446"/>
<path d="M71.8996 10.7001L71.5996 10.4001L71.7996 10.2001C71.9996 10.0001 72.2996 9.80017 72.6996 9.80017C73.0996 9.80017 73.3996 10.0001 73.5996 10.2001L73.7996 10.4001L73.4996 10.7001H71.8996Z" fill="#C8414B"/>
<path d="M72.7996 10.4003C72.7996 10.5003 72.6996 10.6003 72.6996 10.6003C72.5996 10.6003 72.5996 10.5003 72.5996 10.4003C72.5996 10.3003 72.6996 10.2003 72.6996 10.2003C72.7996 10.3003 72.7996 10.3003 72.7996 10.4003Z" fill="#FFD250"/>
<path d="M72.2996 10.4003C72.2996 10.5003 72.1996 10.6003 72.1996 10.6003C72.0996 10.6003 72.0996 10.5003 72.0996 10.4003C72.0996 10.3003 72.1996 10.2003 72.1996 10.2003C72.1996 10.3003 72.2996 10.3003 72.2996 10.4003Z" fill="#FFD250"/>
<path d="M73.4002 10.4003C73.4002 10.5003 73.3002 10.6003 73.3002 10.6003C73.2002 10.6003 73.2002 10.5003 73.2002 10.4003C73.2002 10.3003 73.3002 10.2003 73.3002 10.2003C73.3002 10.3003 73.4002 10.3003 73.4002 10.4003Z" fill="#FFD250"/>
<path d="M71.6002 12.0002H70.2002V12.3002H71.6002V12.0002Z" fill="#C8414B"/>
<path d="M70.2002 13.3002L71.0002 12.9002V12.6002L70.2002 12.9002V13.3002Z" fill="#C8414B"/>
<path d="M105 18.0002H99.8996C99.6996 18.0002 99.5996 17.9002 99.5996 17.7002V6.30025C99.5996 6.10025 99.6996 6.00024 99.8996 6.00024H105V18.0002Z" fill="#41479B"/>
<path d="M111 6.00024H105V18.0002H111V6.00024Z" fill="#F5F5F5"/>
<path d="M115.7 18.0002H111V6.00024H115.7C115.9 6.00024 116 6.10025 116 6.30025V17.7002C116 17.9002 115.9 18.0002 115.7 18.0002Z" fill="#FF4B55"/>
<path d="M116 6.00024V18.0002H100V6.00024H116ZM116 5.00024H100C99.4 5.00024 99 5.40024 99 6.00024V18.0002C99 18.6002 99.4 19.0002 100 19.0002H116C116.6 19.0002 117 18.6002 117 18.0002V6.00024C117 5.40024 116.6 5.00024 116 5.00024Z" fill="#B5B5B5"/>
<path d="M137 18.0002H132.3C132.1 18.0002 132 17.9002 132 17.7002V6.30025C132 6.10025 132.1 6.00024 132.3 6.00024H137V18.0002Z" fill="#73AF00"/>
<path d="M143 6.00024H137.3V18.0002H143V6.00024Z" fill="#F5F5F5"/>
<path d="M148.1 18.0002H143V6.00024H148.1C148.3 6.00024 148.4 6.10025 148.4 6.30025V17.7002C148.3 17.9002 148.2 18.0002 148.1 18.0002Z" fill="#FF4B55"/>
<path d="M148 6.00024V18.0002H132V6.00024H148ZM148 5.00024H132C131.4 5.00024 131 5.40024 131 6.00024V18.0002C131 18.6002 131.4 19.0002 132 19.0002H148C148.6 19.0002 149 18.6002 149 18.0002V6.00024C149 5.40024 148.6 5.00024 148 5.00024Z" fill="#B5B5B5"/>
<path d="M180 10.0002H164V5.90024C164 5.70024 164.1 5.50024 164.3 5.50024H179.7C179.9 5.50024 180 5.70024 180 5.90024V10.0002Z" fill="#F5F5F5"/>
<path d="M179.7 18.5002H164.3C164.1 18.5002 164 18.3003 164 18.1003V14.0002H180V18.1003C180 18.3003 179.9 18.5002 179.7 18.5002Z" fill="#FF4B55"/>
<path d="M180 10.0002H164V14.0002H180V10.0002Z" fill="#41479B"/>
<path d="M180 6.00024V18.0002H164V6.00024H180ZM180 5.00024H164C163.4 5.00024 163 5.40024 163 6.00024V18.0002C163 18.6002 163.4 19.0002 164 19.0002H180C180.6 19.0002 181 18.6002 181 18.0002V6.00024C181 5.40024 180.6 5.00024 180 5.00024Z" fill="#B5B5B5"/>
<path d="M211.7 18.0002H196.3C196.1 18.0002 196 17.9002 196 17.7002V6.30025C196 6.10025 196.1 6.00024 196.3 6.00024H211.7C211.9 6.00024 212 6.10025 212 6.30025V17.7002C212 17.9002 211.9 18.0002 211.7 18.0002Z" fill="#FF4B55"/>
<path d="M198.7 7.90044L199 8.80045H199.8C199.9 8.80045 200 9.00045 199.9 9.00045L199.2 9.60045L199.5 10.5004C199.5 10.6004 199.4 10.7005 199.3 10.6005L198.6 10.0004L197.9 10.6005C197.8 10.7005 197.7 10.6004 197.7 10.5004L198 9.60045L197.3 9.00045C197.2 8.90045 197.3 8.80045 197.4 8.80045H198.2L198.5 7.90044C198.5 7.80044 198.6 7.80044 198.7 7.90044Z" fill="#FFE15A"/>
<path d="M201.7 8.10034L201.9 8.40033L202.2 8.30034C202.2 8.30034 202.3 8.30033 202.2 8.40033L202 8.70033L202.2 9.00034V9.10034L201.9 9.00034L201.7 9.30034H201.6V8.90033L201.3 8.80034V8.70033L201.6 8.60034L201.7 8.10034Z" fill="#FFE15A"/>
<path d="M200.5 7.20015H200.8L200.9 6.90015H201L201.1 7.30016H201.4C201.4 7.30016 201.5 7.40015 201.4 7.40015L201.1 7.60016L201.2 8.00015C201.2 8.00015 201.2 8.10015 201.1 8.00015L200.9 7.80016L200.7 8.00015C200.7 8.00015 200.6 8.00015 200.6 7.90015L200.7 7.60016L200.5 7.20015Z" fill="#FFE15A"/>
<path d="M201 10.8003L200.8 11.1003L200.5 11.0003C200.5 11.0003 200.4 11.0003 200.5 11.1003L200.7 11.4003L200.5 11.7003V11.8003L200.8 11.7003L201 12.0003H201.1V11.6003L201.4 11.5003V11.4003L201.1 11.3003L201 10.8003C201.1 10.7003 201.1 10.7003 201 10.8003Z" fill="#FFE15A"/>
<path d="M202.2 9.90033H201.9L201.8 9.60034H201.7L201.6 10.0003H201.3C201.3 10.0003 201.2 10.1003 201.3 10.1003L201.6 10.3003L201.5 10.7003C201.5 10.7003 201.5 10.8003 201.6 10.7003L201.8 10.5003L202.1 10.7003C202.1 10.7003 202.2 10.7003 202.2 10.6003L202.1 10.3003L202.2 9.90033Z" fill="#FFE15A"/>
<path d="M212 6.00024V18.0002H196V6.00024H212ZM212 5.00024H196C195.4 5.00024 195 5.40024 195 6.00024V18.0002C195 18.6002 195.4 19.0002 196 19.0002H212C212.6 19.0002 213 18.6002 213 18.0002V6.00024C213 5.40024 212.6 5.00024 212 5.00024Z" fill="#B5B5B5"/>
</svg>
