<svg width="24" height="24" viewBox="0 0 24 24" fill="none" xmlns="http://www.w3.org/2000/svg">
<path d="M20 10.0002H4V5.90024C4 5.70024 4.1 5.50024 4.3 5.50024H19.7C19.9 5.50024 20 5.70024 20 5.90024V10.0002Z" fill="#F5F5F5"/>
<path d="M19.7 18.5002H4.3C4.1 18.5002 4 18.3003 4 18.1003V14.0002H20V18.1003C20 18.3003 19.9 18.5002 19.7 18.5002Z" fill="#FF4B55"/>
<path d="M20 10.0002H4V14.0002H20V10.0002Z" fill="#41479B"/>
<path d="M20 6.00024V18.0002H4V6.00024H20ZM20 5.00024H4C3.4 5.00024 3 5.40024 3 6.00024V18.0002C3 18.6002 3.4 19.0002 4 19.0002H20C20.6 19.0002 21 18.6002 21 18.0002V6.00024C21 5.40024 20.6 5.00024 20 5.00024Z" fill="#B5B5B5"/>
</svg>
