<svg width="24" height="24" viewBox="0 0 24 24" fill="none" xmlns="http://www.w3.org/2000/svg">
<path d="M19.7 18.0002H4.3C4.1 18.0002 4 17.9002 4 17.7002L4 6.30025C4 6.10025 4.1 6.00024 4.3 6.00024L19.7 6.00024C19.9 6.00024 20 6.10025 20 6.30025L20 17.7002C20 17.9002 19.9 18.0002 19.7 18.0002Z" fill="#FF4B55"/>
<path d="M6.69997 7.90044L6.99997 8.80045H7.79997C7.89997 8.80045 7.99997 9.00045 7.89997 9.00045L7.19997 9.60045L7.49997 10.5004C7.49997 10.6004 7.39997 10.7005 7.29997 10.6005L6.59997 10.0004L5.89997 10.6005C5.79997 10.7005 5.69997 10.6004 5.69997 10.5004L5.99997 9.60045L5.29997 9.00045C5.19997 8.90045 5.29997 8.80045 5.39997 8.80045H6.19997L6.49997 7.90044C6.49997 7.80044 6.59997 7.80044 6.69997 7.90044Z" fill="#FFE15A"/>
<path d="M9.70005 8.10034L9.90005 8.40033L10.2 8.30034C10.2 8.30034 10.3 8.30033 10.2 8.40033L10 8.70033L10.2 9.00034V9.10034L9.90005 9.00034L9.70005 9.30034H9.60005V8.90033L9.30005 8.80034V8.70033L9.60005 8.60034L9.70005 8.10034C9.70005 8.10034 9.60005 8.10034 9.70005 8.10034Z" fill="#FFE15A"/>
<path d="M8.5 7.20015H8.8L8.9 6.90015H9L9.1 7.30016H9.4C9.4 7.30016 9.5 7.40015 9.4 7.40015L9.1 7.60016L9.2 8.00015C9.2 8.00015 9.2 8.10015 9.1 8.00015L8.9 7.80016L8.7 8.00015C8.7 8.00015 8.6 8.00015 8.6 7.90015L8.7 7.60016L8.5 7.20015C8.5 7.30015 8.5 7.20015 8.5 7.20015Z" fill="#FFE15A"/>
<path d="M9.00001 10.8003L8.80001 11.1003L8.50001 11.0003C8.50001 11.0003 8.40001 11.0003 8.50001 11.1003L8.70001 11.4003L8.50001 11.7003V11.8003L8.80001 11.7003L9.00001 12.0003H9.10001V11.6003L9.40001 11.5003V11.4003L9.10001 11.3003L9.00001 10.8003C9.10001 10.7003 9.10001 10.7003 9.00001 10.8003Z" fill="#FFE15A"/>
<path d="M10.2001 9.90033H9.90006L9.80006 9.60034H9.70006L9.60006 10.0003H9.30006C9.30006 10.0003 9.20006 10.1003 9.30006 10.1003L9.60006 10.3003L9.50006 10.7003C9.50006 10.7003 9.50006 10.8003 9.60006 10.7003L9.80006 10.5003L10.1001 10.7003C10.1001 10.7003 10.2001 10.7003 10.2001 10.6003L10.1001 10.3003L10.2001 9.90033C10.2001 10.0003 10.2001 9.90033 10.2001 9.90033Z" fill="#FFE15A"/>
<path d="M20 6.00024L20 18.0002L4 18.0002L4 6.00024L20 6.00024ZM20 5.00024L4 5.00024C3.4 5.00024 3 5.40024 3 6.00024L3 18.0002C3 18.6002 3.4 19.0002 4 19.0002L20 19.0002C20.6 19.0002 21 18.6002 21 18.0002L21 6.00024C21 5.40024 20.6 5.00024 20 5.00024Z" fill="#B5B5B5"/>
</svg>
